<mxfile host="app.diagrams.net" modified="2022-11-06T05:29:04.612Z" agent="5.0 (Macintosh; Intel Mac OS X 10_15_7) AppleWebKit/537.36 (KHTML, like Gecko) Chrome/107.0.0.0 Safari/537.36 Edg/107.0.1418.28" etag="5tT4luUHqzv2DANUYGMa" version="20.5.2" type="github">
  <diagram id="KgRbXG8umwt2WaFN6e4B" name="Page-1">
    <mxGraphModel dx="1113" dy="716" grid="1" gridSize="10" guides="1" tooltips="1" connect="1" arrows="1" fold="1" page="1" pageScale="1" pageWidth="1700" pageHeight="1100" math="0" shadow="0">
      <root>
        <mxCell id="0" />
        <mxCell id="1" parent="0" />
        <mxCell id="_XqpVjVCsElwEC0yUfst-2" value="" style="shape=image;verticalLabelPosition=bottom;labelBackgroundColor=default;verticalAlign=top;aspect=fixed;imageAspect=0;image=data:image/png,iVBORw0KGgoAAAANSUhEUgAAAa8AAAE2CAIAAABZYIrdAAAACXBIWXMAACxLAAAsSwGlPZapAAAE9GlUWHRYTUw6Y29tLmFkb2JlLnhtcAAAAAAAPD94cGFja2V0IGJlZ2luPSLvu78iIGlkPSJXNU0wTXBDZWhpSHpyZVN6TlRjemtjOWQiPz4gPHg6eG1wbWV0YSB4bWxuczp4PSJhZG9iZTpuczptZXRhLyIgeDp4bXB0az0iQWRvYmUgWE1QIENvcmUgOS4wLWMwMDAgNzkuMTcxYzI3ZmFiLCAyMDIyLzA4LzE2LTIyOjM1OjQxICAgICAgICAiPiA8cmRmOlJERiB4bWxuczpyZGY9Imh0dHA6Ly93d3cudzMub3JnLzE5OTkvMDIvMjItcmRmLXN5bnRheC1ucyMiPiA8cmRmOkRlc2NyaXB0aW9uIHJkZjphYm91dD0iIiB4bWxuczp4bXA9Imh0dHA6Ly9ucy5hZG9iZS5jb20veGFwLzEuMC8iIHhtbG5zOmRjPSJodHRwOi8vcHVybC5vcmcvZGMvZWxlbWVudHMvMS4xLyIgeG1sbnM6cGhvdG9zaG9wPSJodHRwOi8vbnMuYWRvYmUuY29tL3Bob3Rvc2hvcC8xLjAvIiB4bWxuczp4bXBNTT0iaHR0cDovL25zLmFkb2JlLmNvbS94YXAvMS4wL21tLyIgeG1sbnM6c3RFdnQ9Imh0dHA6Ly9ucy5hZG9iZS5jb20veGFwLzEuMC9zVHlwZS9SZXNvdXJjZUV2ZW50IyIgeG1wOkNyZWF0b3JUb29sPSJBZG9iZSBQaG90b3Nob3AgMjQuMCAoTWFjaW50b3NoKSIgeG1wOkNyZWF0ZURhdGU9IjIwMjItMTEtMDVUMjI6MDU6MjgtMDY6MDAiIHhtcDpNb2RpZnlEYXRlPSIyMDIyLTExLTA1VDIzOjEzOjQ1LTA1OjAwIiB4bXA6TWV0YWRhdGFEYXRlPSIyMDIyLTExLTA1VDIzOjEzOjQ1LTA1OjAwIiBkYzpmb3JtYXQ9ImltYWdlL3BuZyIgcGhvdG9zaG9wOkNvbG9yTW9kZT0iMyIgeG1wTU06SW5zdGFuY2VJRD0ieG1wLmlpZDplMWRjYjBlMC0wN2ZmLTQ2NjctODVmOC00Yzg5Yjg0ZTJkMWYiIHhtcE1NOkRvY3VtZW50SUQ9InhtcC5kaWQ6ZTFkY2IwZTAtMDdmZi00NjY3LTg1ZjgtNGM4OWI4NGUyZDFmIiB4bXBNTTpPcmlnaW5hbERvY3VtZW50SUQ9InhtcC5kaWQ6ZTFkY2IwZTAtMDdmZi00NjY3LTg1ZjgtNGM4OWI4NGUyZDFmIj4gPHhtcE1NOkhpc3Rvcnk+IDxyZGY6U2VxPiA8cmRmOmxpIHN0RXZ0OmFjdGlvbj0iY3JlYXRlZCIgc3RFdnQ6aW5zdGFuY2VJRD0ieG1wLmlpZDplMWRjYjBlMC0wN2ZmLTQ2NjctODVmOC00Yzg5Yjg0ZTJkMWYiIHN0RXZ0OndoZW49IjIwMjItMTEtMDVUMjI6MDU6MjgtMDY6MDAiIHN0RXZ0OnNvZnR3YXJlQWdlbnQ9IkFkb2JlIFBob3Rvc2hvcCAyNC4wIChNYWNpbnRvc2gpIi8+IDwvcmRmOlNlcT4gPC94bXBNTTpIaXN0b3J5PiA8L3JkZjpEZXNjcmlwdGlvbj4gPC9yZGY6UkRGPiA8L3g6eG1wbWV0YT4gPD94cGFja2V0IGVuZD0iciI/PnidMLQAANYfSURBVHja7H2HX1N393//lN+3zrZPn6eitn3aioi2ttUqy61Vq9Vat9ZHq9aFe9UFyJ4i7r0nU1HcAydDRkJCSCB73fs753M+9xIwSMRR0HteaRowuSQ3n3s+Z7zP+/2BqJhiiimmmCh+oJwCxRRTTDHFGyqmmGKKKd5QMcUUU0zxhooppphiijdUTDHFFFO8oWKKKaaY4g0VU0wxxRRvqJhiiimmeEPFFFNMMcUbKqaYYoop3lAxxRRTTPGGiimmmGKKN1RMMcUUU7yhYoopppjiDRVTTDHFFG+omGKKKaZ4Q8UUU0wxxRsqpphiiineUDHFFFNM8YaKKaaYYoo3VKzVmyAIbrcb7l/qJcp5U0zxhor9w57rDXkiN7NmD674QcUUb6iYYooppnhDxRRTTDHFGyr2zqTYyklQTPGGir2n7o9KgS6Xy+FwKN5QMcUbKvaeGnhAq9VqMpmsZrNyNhRTvKFiir1us9jEqlrXkzKxpNztfD3xpuAWRL1ZVMGtTtS78EfFFFO8oWKt2ZwWl6i2iqUasaJGLNWKFQbRYn3FY7rsgqgziRVGsbQaj1lpFFUWp1NxiIop3lCx1moYshWVi5Um15EztvgM8UGp8LhcLK99pWPCf4+KhGI1BIb21AOu3UfRIeKPtYo7VEzxhoq1VjM7hFKtkFegmrwIbubFm9EVQpxYZ2/5MevcGGZWGI1ro1VTFqsnLzKu2c7CQ7NodCunXDHFGyrWKq3GJVbo7ZFp4LbAG2omLYIgEX1Z9St0aXRmsUznPpcLfrBq6hLtlKW6yUtcpy9i4qxTmj+KKd5QsdZpahNEbeZ1Meopi7VTl4BPxHwZstpXSJaFB4/FcqMjcTf41ip2WHCIjsQ94CKxmKiYYoo3VKw1WmkVxIam9TG6KUshjgP/5QBvCJmy+hVKh6o6UWWyJ+yC2LB6yhLMwacsdiTtxdhQZVROuWKKN1Ss1dmWLVtKysvFYpUjKo3yWfBfrqPnILJrcUpbUlLyrLJSLDdAagwH1M0Ir/p9EQSe7lOZYqVB1NiU066Y4g0Va0WWn58/cuTI/v37h4eHC4/L3OdzwA9qJi82r96OEVy5QazSteCwq1atgmNu3rxZLKsVVbWQgENgCD4RHmC8WWYUTVbl5CumeEPFWoVZLJbVq1eDz/rpp5/gfsiQIZi9lmpdR89CjizcLRIrTQgSVFtfCi997tw5cK8/MSssLBSL1cLDEjisM2W/PYXlyMUqsVKvnH/FFG+o2Ns1p1O8/1jIKxArVJ6/Pn369NChQ3+SDEI5k8nksrjFCr1QWIz3dx64i1SYKRerxernslqdXrxxT7xxV6yujxwdDseiRYvgaAMGDoB7DDbRD2oQb0hY7jIdHBl8rtumwA0VU7yhYm/TVBpH3C77tmTbtmRzZKrr8FlwjmazecGCBeCtBg4cCPcTJ068fv16/UtMFlFrwl6wxoDYGvBflUZ0Yfp6eKDrbLYjOt0WmWrZlgIHd5/LpkhzwoQJ5FuDgoLmzp2LWbbKhHkxhJwGu6g24qH0ZsGhuELFFG+o2Fs0t1aHTjAixR6Rao5IdUSlwYO6fUflkDA4ODgqKupFR4AEWW3AOBFCvGK1w4EO0XXsHHhAR1Q6uEJLRIojIg1+1B8/Kx8W3GtxcbGoMaMPhTT5zgO7xaV8HYop3lCxf8wcB06Cq3JEp9XOWqmavrRuRQS4LbiNGzcOfNb48ePRZzVrJgfEdziiB2Gdus5d/AyOaY1Mq1273TBnZdWs8Lo12yFIhMOOGjUKQsItW7bgqwwWDAnhJZUm0aD0jhVTvKFi/6AZaiEShNhNt3SzdspS1ZTF2mlLLVsSIaa7eOkq91m+HsoillVj1a/C4Np91BGTYdqcAO6VgDjaGeHmTfEQgV64VHDgwAHmQN1YecQE2SSqlYETxRRvqNg/azqDNSoNnJRm9gpwWzXTw1WTF+lXbIMgzpm6/2UPJjwuwkAPkuWE3RAbGldGgnutmopo6ppp4dYVEY7YdGf6YXymWwRXiN6wGDswgjKLrJjiDRX7h62olIp66hnhEMHVTFmKEEKWLFuT97TkgNWY/Dpi0uGYpvBtmkmLwMlCvKmevAhycHC7zqR9otWBXReICuGmsyl03Iop3lCxf9iuX78+YsQIO+sj6xdtVDMKhqpZ4aa/4yCIc+070bLDzps373zuNfCGkBrXzFiuZQN8VTOXQwIOnte58xArFBowJHxapkSFiineULF/0sxmc3h4OKGpL2bdACdl35ZS88cq7bRlEMHBj5ZtKa79J1/2sGfPnh01ahQc9ujRo+gNI1Ns6+LAD2pnLq9dH2OKSrFGponXCoU7DxCtXW4U7Q7lu1BM8YaK/WPmCaiGB0VFReCnIEIEDwjeyhGXgS3miDTbtmThyg0fj2kymebPnz9gAKKpQ0JCdDE76AhmyLi3JMJhKQK1rIisWx0lPCzFHFmv4GkUU7yhYm/YnIa6+5ujL838qyhpp6u6Rv69xWIhQHV/ZqN+HvX06VP8h6JnjpidBAkEn0h4aXNEii1qBw6TyIetrS2KSiyYt7wkKlm02r26VzDV7mPgB+0RKeBkITy0s7okPDYs34YFxCmLkaqrQi+UaJRvSjHFGyr2Bk1/ITejZ0hs+x5xnQISOgfu/GagufCRp8/q169fPeKvProzC3cfCAW3RJVGuH4Hojl0iJGp9sQ9bjZ9XJN1Ke2L/ts7+se07xHdvsfxIRNFtwDudeHChbIfHD9+fNXdcpo8gdc60w5CJGj662/DXxuq5qzUTEI6BgTcLFyPQJxKk8uqVA0VU7yhYm/GzPceJPr1jevYM7qDf1xH9IZxH/dK7fr94cOH+zEjn1VSUvLi47iPn6d8GVyb+1yu/lx2wn++jevQM6FTL/CG8ABc7dHRk4cNGybP2G3YsEG4+5AmT8AVWuN2ui9c0k1BvKFmMsIYqxn9FzjEqt8XCbkFOJWsIK4VU7yhYm/ITgz6Nb5jT/CGiR/2SG7nn9SxV/wngbHw449DIDX2EhI2ZXbBmrDbHIEpM6S9R38aDU4QjpzSIWBHx94J7XrGtscgkQJDmlcR6kzWpL3WyFTWP0kVMvOdGYfBFaoZ2LBmylLV5EVIXDgZb67dx8RKo1BUoXxliineULE3kCNfKgA/GN8xIPFD/7QPA9La90r5sCd4LvgleK5ly5Y9Ki56icNVqDDhjUhVLVgb3wF8n3/SR73S2gWkdQxMaucf++E3sR16Jg4ajdSEzJyp+zGWhMAwItV99Dw4O0fcrho2iAJOUMuCRHgAnhEeOBP2CLfuK6VDxRRvqNgbsZKknZjGduwJUWHqhz3hlsJucR0xay7cHP2yB3RnXYbAsHDyQjgCOFlwhXRYuEHUCcny7j6D6JmQ+Tpi07ElHZHmTNmP2ikVRkfMTh4bTkc666rfFxP2EPwjOEqiRFS+NcUUb6jY67dLM/+Kbt8joXMgJLM7OvUmtwURIpYR2/fIm/lXC44J2W72qCkQBiZ83Bu8IWbf7JbWORB/+a9A5obLHVHp4DfRFabuN5rNBpVZrDQ4dx5ST1msmbSI6KzlTBn18PaeQJCNVlGAUkzxhoq9AXu4KRqLhh16JoMT/DAg5f/8ITBMbRcAv4lt16MyaVcLjinUme5MXRDL2ibgWMEbpkixIUSLO77sb08/CB4Q2cAYLufxkydDhw7Ny8vDUZOCe5QpkwYeCSXDj5rJi925V1ErWaVTvjXFFG+o2Ou36tx8dFsdeya2w2QZwsMUdFvoDWPa++svFbTssNo9R2LZEeiwlIDHt4fsu+exfiPBD5qisI8Mt7zLl6nF/Ntvv+HASbHatjKCokIqGlJsWPPXBvzXMqNoqFO+NcUUb6jYG7GDQWMQaSh5rrh2PWIgd/4oMKNzH5Sga5nVGDI+/S62UwAcKqlTL/SGHXtFM5zNgwlzzduSwQ9Cmlx+JAvJ/dk4CtxXl9dCLuy+kFczYzn2lKeHwz01lB2Ju5Hxv9LoVugaFFO8oWJvyCoOHk/r9gNDBfrHso5KXOdeiR0DLvxnQEHvUaJG24JjqqcvO/fvn+I7cVQNpMws2OxxrNcQzIL/XAM5MtyyLt78ycNmz56NSk8VBtfhs/oZ4ZQjw711ZZRYXMXU6JEXVvnKFFO8oWJvysyFj3b3DAVXSFlz2r++vdAtOKdLUKZfUMnoP172aHXbknO7hWb7BZ3vMhC8KjjB7R3xtr9HSNVvf6mmLAYfp1+62bINx+9kMDbY8OHDxXLUjAefKBTccqYfcsTtch07z3n/H5dTeChWm5UAUTHFGyr2psxRW1eanJE/469Hf0eLT0qu9x2d1z0su2twrl+IYd1L4GyEh0+ufD0ss8tA8IZ5XYLLpy0tCJ2YGTSuYNAk9W8Lkcn190VVcD8r3BGFvP/nzp0jVamEhAQUBoAAsBLv2QOME5Hblaj/yw1I6gUOEdylTiG+Vkzxhoq9FXNlXsr+HOK7YIjyLv93iHi70McXFvQeCW4UfCjElU+HTTeui5Gh1EhZ+DtnclVNXlS3Zrt9W3LBhbtDhgxRl9eKFTXg6YTHZU6n4LS5xRqbWGXCJnK1WaxzixoTZsqoSW/Ee/CPBoXPRjHFGyr2Vqx2+TbwaFldgyDKu/n9WNHefHpa/ddGiAfzPg/L6RZyvdcocHZ14Vup9lcznRNlE3QGHsA/2bYlm6LTMCRkynkY+lm80xeiNKjaKj4zkowy94yKQ1RM8YaKvR17GPI7uEK4XfQbqJm98sVProtIYa4zOK9r6I3eow0rtpojUw3LtpDIiWYyIgcRNwM/MuUT+CcSycOCYJkOMmKn6UX8NC6TS4QQEhLnsmoc0bvzAL1nnUJpo5jiDRV7C1b87Oo3w8AbZrIioCP9YJPPfFJ6rfcoeFpO99DcrqHGbcm2+Az0hsu31cxYgQkymzXG8HB6uGYqoqnhn5APMXoHrw8affBrVieTlFKxGqIJC4jw2KSw2iimeEPF3ryZ0w9gL6VbKHi6fP9h4tNSr0+72e+XnC5BOV1DwHWqF6w9e/Zs2cX7logU67qYKub7CDaIklKTFumYW7Stj7NGpdkT96BrM/oc4pndwuMy1mVWgQ/FuBJe7kFPq5hiijdU7E2ZemZ4FisgQnhYGPxb9emLxwb/uvPLnxI/7bOv96D82YvLZi0HP5jTJRhuV3qPJK7sM2fOOKLTzduSVdORvFrNJo6JjQZDxRnhtq1Jjqh0lFKpfUkiBnCdz4xiWS3D4ug5DtGi6KUopnhDxd602YVb3/+S0y0EvOHRf/+Y+FFgAoNSxyOWEIftkj4KPPbvH7O6h+T+d/Do0aMJPDhs2DAzI/S3LtnC+avZPblFw7It5q3J9ohU4db9lrwloxMxiag0rxVKtRgelhuwE62YYoo3VOzN2u3CvC8Hnf5sABG4gh9M6tgrob1/QseAOEb6kNA58NSn/eKTk0lBhRxi5sUbxIatmbtaO413k+FeP3c1pzWMTEUhgZaZwcxkRY0sXy5DgE5Ftdup4LIVU7yhYm/YVIs3JrLpvQRGeIO0NB16pXUMTG4PzrHn9o7+yV36BgUFkXIAzR0HBQfbGMs/Ulsv3lwzY7lm1oqavzYgZcO2FJpFQYfoM5jxOYfoYtVDI2G2sRWjMioOUTHFGyr2Zi1v6nwIDGPB67XvSQxdOzr2Tm7nTw4xoUNAdAf/ZQs2y2N24BnPnj1rZ+wM4PLAA2KcGJNBSlLwS5LZs7MHwqOiFr4tnRldIQpIGbGAiKN7ZlGBISqmeEPF3pC5nO7ELt+hhlSnAHCF4AFTJEZruiUwsb2Yz/r8+OOPEBWO/XVsRdIuG+Oqce0/6Uzey7WSI1PNkCDHppOQPA8PI5JtUWlihaqFb05twkwZ/CCOspRjtKg2CkoJUTHFGyr2Jkx76nw8k9NLYmSFEBJiVPhhANyS2Y/we3zCx4HLly8/n5cPns4RnQ7Ozpl+GFscKpOQW+A6dt59KlPIvykKovvEBTlZdkSxW8xOUdtSJteqOhxNUZnQIRYWY4tZaxaVjFkxxRsq9trt/tptcZ0Cotv3SG0XQMIpcniYQqTZKKUSkPBRYP64WSg5H4G5MKqdqMxsALma+r/osFhdD/5zHDjhiEq3RjAlZRSKSnEm7xNrDC15f250iEJZHQ7tqdhEM9yqbYpDVEzxhoq9ZsuftSgeVfQwHsSosH2vZFJQYc6R7uM+6hXfwT93+GSM+KLSrMl7hMISCgxZGqsRKwxua71/cjscjozDlshUW2SqnQmkYD0xYZdoagk/DabGaiM1VRjdA7tpFaobxRRvqNhrtYKla5G0tTOKnGBqzDwgCZ7AA0qft6PMnv/ln6c54jKcqfs5KSHcHpYwDle9qG8s8CQ4BWfaQQsLD0ljHt1i4h7Ram+JQ4SoU00kYGrUDCjVuotUYp1T+foUU7yhYq/NnsakxrTrAZlycjt0fxAbynKjdL+jc2/CY9/9/U9wZ9jWYJw0jKKVsRNCpOats+G2WCChhszaGokMDhQkYrXR3iKH6BJFFfLFwhvgvDgVRpeCuVFM8YaKvS6zPy2JQ6B1QGJ7LjHKtUZZFwX8IxOkD0jo3KtmfQwCqisM6IxUZsyRkZRQK7xA0MRmtybtJrSNnfWdEXaz85DoaNGwnUsQVVb0v0T8hb7YLCoOUbG34A0FZp4/upm5XC64l39DzxE8rGV/jg7udCrpz1s14cHjjP/0jf84EKI/coLUOdnRqTdJ4uGASnv/XT2D3dlXUAO+kqXGZQwDWGUWm9V2Mplt8RmoNB+FnWhrFE6quA6calkbxG0Dh2hmTIjVPEmvMinyUs1eyL5f5s//q3yNv+A54BM8/YASGyrWBq3OdP3b0Sc//RFz4Y8DEz7sQaiaFAbATmrnn9gBRaDiOva8M2I68z7sVlbLWihGt9037J/e4IjZaYZMOTadRAIccRnu4+db+J4tVogKMWEvp7k9A6JwFIeomOINFWu5GWrv/DDugh/qnOz+13exHXrGdvBP7tiLGsrJ7VEVL7ZTQGy7Hrs//T6na4h2/lqeIJfpUPDzpZgUtDWO7ekEQoR7W2QqPBAuXGrhOze7MTYs07EipopFiHWigspWTPGGirXMno2fB34wtytqpGR+NjD1497xnXrFfdwr4aPA+E8C4zoFQO4MaXJy58Cszwbm+QWDQzQs34JTw6Uap+XlR+SKyyAwNLOhPULe2CNS3Vn5LXeIEBWCT6TpPQVzo5jiDRVrmZXNWIoErt1CsroGZzNe68tfDT7Ub0QSOMQOyOUFuXNi516HP/4+y28gMcJmwzM/D7VsTnDrWsjAKtx5YJdGm8EVwr05IlV4+KSFn6FKh7IBhcUM6IPgG+GZWvlmFW/4jpvgFNy1DlFjttQpxJ+vwXQLNxLrNaNxDcL7riH6VRHgp0rnrrgxfk7OyMm3fpvnyjhSNHJm3udhpCeVxWQDLv93iONsVsv/9q37BMamRjMOt8TvEh0tKvsJovBMgw4RZ5k1mMKXGxUB0n/g8oSvT+8Sy82IjTf/wwWLd9wbui0W4UmxWFIpquvEyhqbXmk6v5KpF23IkgTziOI/t1uYds5qG0tdGdUCprGuQ2ewYVJc9TB0ciZ7JjhQeGGuX8i1nsNdV260/AvNv04RIgJuIphbTNuH6JkWbZNcdLSc9bgrjegZDYqaylt0hXZBLK1iX4FBLKt+Oe0HxRu+tOnNYrlGfFDk2H9crNA5NXaFGr7Fpv1rPXeCXYJZxRA188p+mWtl/KzU3MB4DdwTdktY+/ju48L+E7K6o4wyuEJ4IeTXBQEjxLsPW34JZV+h2BAbzdHpOPiccbhlfWEXBCaoTK/h4SEOC2pEg0X5rt/W7mpilGsa585D7sxLWFYuKle8YQsSHdHudDmc7hdg1px2t1iuFbUmS8Iu/cINzt1HBbVNLKtUFmELrCYy+YLfwLwuGOKRfChEiGVj51JPg4hnOCMDwzYL9x8yWJ9eLLh349vR8ORM6VXgSa/2HiUWlbX4zTjPZTNCB2QGQxxiZJrr4MkW4mTsToxKilUkMsXujUigrdgbNqdTwJEklcm+LUU3eUnVzOVCXgGsGecLIPHwTxa3aHe9IUxUm/SGLocbg74am1hthhv+6NXqTKLGAg7RvHSLYf46R/wui8aG+79iL2mO7PzcbqFZkO0yTSjsJncLq/xtIeTFZplbgVxhUXk9YUwFC7XgO1JpbvQdk9c9lNxo3udhed3DwEXC71u+Bk5cIF5YbKpQi/lMdguPZXVjjkaxISHDwSGaFdDNGzZIimH7uV+kn7VCPWWxdspSHGOHk9+UfLbOykaY2I6lqnM5Xr9LbIPe0GwXa8xCzhXr+li4IcxCY/CM+GJiYoYOHTps2LDhw4dXVOnEcrjVQSgulhnEKisufcV8tCclBYEjqQeSLaW6N74bg+kwc0B25g3BKzn3HEM/wvDVnEkQPMvzy/XG3QL/ERQk5nQNyWQBo3rRhpa/w7JK1A9gEaI5gsenQv71Fh7NZCdsNn4ENqyCF55docx+nWaxWGbMmNG/f/8BAwaUVFQyFg/MlIWcAkSkquu8fS8ObPo/Ljcs+lvFJGddB06K6lqxUvd631sb9IYmbBC7Dp42rY22rY3BOa2qOrGkAv4lKytr6tSp5AfBIa5cudJsNrurbDiRWmnFem2VVlmOvtYiHj65GjiS9UCCmZD8QPCGVwKG2xhlvz2Cg/54oZAaEcTT9QxcYZMs047My1e+GpLFoks4INYTvxzkajFyEN5nwS3yhowgNp0Q2sK12y08nMHCAhCDQAKkeF/7JsKQ99P27NkTFBQka0LExsbimqky17NPeu2iYBSJLET6P1ZqJi2CKNIRuxPrMOWG990b2o0O8ekz5/lcy8rI2pURrjNZQonKUmP7+++/R44cCX5w8ODB48ePz8+XLjC7S6i2iyVl4tNypzKl76PVGW/0G0dJMWS12V2D4f5awIi6NdshFqN5YQK7IF/h/YeMgsHA8k0c83gxPYz14MncL8JyumCwyZLuUAgY3dfvtNwhXrouhav43pAsNjJNvP+4hYerqmENcXTuAgtJxHK9wu/wilZSUjJx4kRZHgeu0OLiYpb/mlnDrRodYlM5MsTszBvW/rWRcmqU20bejfc7Nrx06dLatWuFqzeF/JvWjfHmbclicbmoNZ44cQJc4ZAhQyAkjIqKej6fgitWKHzisipZj092P/g3hMX4sSphV8QV3gj82bYhDn0NE/nkLFtJe0UkQdDgiFulkXVOtKK1+a69NX5XdvdQBC12xxv8oWu9Rrbcf4mi++IlamrLCG10iE+KW3g4HRsiBM+O8lJGnCasqBYUh+ijVaiRr8hQX6DfvHlzSEgI+cHg4OCMjAyPvYeJGsKtiVa+yWSaN28eMqUXq92nMqvnrjFtZBElrLpa+3vqDeGkhIeHjxo1Sl3wxJx+wJpx2LLzkDvrMpYFVWb4PYSEc+bM0Wi8FeYNZvHJM/FphWhW4DXNW+m4uZmsVkiQaciUL389xLgpnmTtHLHpHPycKLFYI1hMolO1+FqWrd2ciGMqXRGKSEEo9lVKWt5oFnKuQlSIInxRTGoK0uftaaKqpRMm1WaB1ex5PRQeq80K4U2z5jp+gaS+zBEprtMXHz9+DGGgHBIuWLDAbG7YrydUE5xkk5drc9euXRDfwAtjYmLwKyAqtrJaliYbXzvdRtvwhocOHRrO7Mr167a0A86U/c60g/bUA3CvL6v7/fffwRtu27atydcb3XjSwRsqjMfNmX7xpjw/hpTuGsoy2eC8r4eY1sdyAuoIiXs1YY/4sBTPajnzgyji/tLQWcPKbeRtM/1wlhkc4vW+o93qljeancfP05uUWRGtseliS2cBcXiZM2breDBSrlX84Ysi9At5VE2Wz//FixfBl/Xv3x+c2tmzZxtvYJCqUfmvWO00mhtFP3Bdkw+Fl8MFLpbXcbQ8yjnUvQmB7NboDd0WC2Ivqq2wset0uunTp4cxGzRoEPhB164jNSu3aZdtIp+YmZk5evRog+FF9VS31S0+KMKVXaPEhi8yY9LurK6IqYbsNe/zMIoQNQvXE6KQg2li08HFMOpWPa5LuC8nQv+WgJa1f62H8DCnWwhr1KALvtXvF7HO2PLY5OBpqmmiNDNkzVuTbXE7WygyBZebupbxO2hZCMwixNednb07ZrVDVA6u0LBim37Girq/46hkERQUNH/+fPBuXr4s8GjEfw5ZsId327Jly0CPZgv8KOqsAtVk4Csw25p0hA5B1Nkw+9bYWjCy2Tq8odPpvnXfuueYY+9xx8U8d5lOePAYwo34+PghQ4ZACgz3I0eOvHXrliNhtzkqrfZ/a+rmrrNvSbbHpJvTD5o1dvFp6YuuELudzxtUK6japq/9B4+v9hxBEybgmCBYg/vyqYsZeAUDLkd0up1JIQuXrlPExBTvNHy4raXIpcfDZ9BkCzlEiEYLg39rGeM/ux4cth0HOOaG5fVwsyfsFupMLXSIcB3euu8BRTSIJmVYxfv6QbTTtpSqmcuqfl+kmb2Czn9JZRPFCp3etf+kY3u6I3GP68gZAiHU1NR4ZtYQHlqcFh6nw4ZUYUKUcVNmtnEVRhneYHK0PW9oP3TKnLwHlqwzcY8zcZ9t15GS8qpfxv0CfpCiwmXLlhnMZlf+dWfCHvvfCeAKDXNW162OtMXudMTtwur7/ccv7mNiZ7DSINx5oKxa71ZjuNbn59xuobndwmhi5ILfwLKxc6kvwQhjMM5CYsGcK5gXV5rglHKKwNKqV0pbikovfzOUXCH83ZyuIRCQPhkx4xVqV4ItbT+GsQxwQ2AgRPa2VGRKKKniTr9Yhcgblenl+BnfE2+Yf9MahSF5zZSl6smLtNPCaVITlbKftwo1XLk4whSZivF7ZKr76PmnT58OHz68X79+4AchADp37hz/Pq0uRrxmZSlIbZPvQM3KGrcKsblXTOF8dRvzhsL9R8YkcIJ77NtS9ZvirfG7LPEZGzduJFcIISF24h1CSUnJ2bNnITaEla373+qaWStNf8eZYtItafvhCOANHXUv7BerzLjD/6NTkK3Z7vb/lVJjxkyDY8gVE+YTrpCIGBC2EpWGw6Rl1ZSwkOISnFXXKwPaHedzLv93CMSknNyBzb1UTPrrVbI2W+peKiAyh8h0mVsqMoXwmgor+sEK9tkrDUhYq7SYG1rxMxUWaqPSqmaFa6cthdiQLZ4U8YmXvM216wh8L8atSdbwbaYNmFND5gFBD4WEkFk3aLYg2wBDgKpNTeFYsePP6o/mDbG6yUvMa6Mxlle/3L71z3tD19FzjviMuu2p+nnrtHNXG7enWeIycvLuDBgw4ODBgzUVtcL9hytXrqTWEuwndbHpNfPX6f5cB64QQkVEXz8oQk+neWEqVE2RtkEBjj1vZb/+mclwhbl+IdRKrpy4ENsmbDVjRTwiFX50n8/FaQHs6GmZ6B1ruVpeT5TkyjhyqXsYeGRkToR8uVtIVvcQ1azwFh/QbTRCtmGNTDNL/R/4FM6Mw+4WNYZRt6DcKFBPs5x1mVVGZS2RmUymRYsWwQVrZiAnU/g2cIh166PROUameUFclVXS7JD+rw2aSYsMM1aYNyfAdpuddTM0NFQOCfmZdzggF+HEa9VN1ygwfqyBr0Y/c7lqymLdrBVcecLYpryhNWmvNS7DsC5KO2dl9eyVdWu322LT61L2wcmtWbChsLAQIsSBkuVfv2eMTbdFp1tjdppidsA9bEmsvK0RnxndLwhSqqS2oFEp+jRcmTOW5mFXV4oK/UKKhk2HXYd6x9QfhJv7Qh66vwdFbFORFE5eK/9S7fbU3C9CyRWCW8z+DCuJVfPXvEr6b4/PwDSf9X+QGDEixbW/hfwOLhuLPpiSAS45iJExVHnfHWJGRoY8XpKZmWljnRNEpEZIy+b5OO7abeJk084Ih7S6Zlq4IXwz/Fgdv/PevXuNnw3bLUblerG0+kVZiM2FwaDKVDVzGUSm4BPZRIDRZWlT3tCevA+8W+2qyJqZK9Szl5vWRZtid2oTM8Ab/vrrr7IfHDduHGwasPhsOw6YYtMd29PBLQrX76DGVkkVa24a0eU1ealZuHqkWQFg15v2rw1EPoigP2ybDLz1wy+W2J28BcH4CuHedfgsqw9qeBuBpJBrX3/tTL9ueyYrHWZLgEd4oF2+5RU+oQ4SCJLcs0la9a5jLRaZciIIEW8abCJBRqJucgbxnbenT59OmDCBJo7hfvz48U+ePIEUmKaVsBR4Ltdrbw28IVUwqqctVWGFcWld+FYIFa1xO708W2fm6IUXqjUsXryY9LIpUzatjyEko/AyneV/2BtCjF11+aEtaodlS6Ju5oqaGeHGrUlwNT7JeQCnGJwgBIYhISGzZs2qj5zVGsimjdtT7dHpnATlWSW6wkoD7tVNKRDW2jlPiVGBHEqu56+/s6WQMNsvOPeLQQUBI2Ap21heSTs8esOkvSwU0jHsq5b1katFw5vyAbUrI7MYpwNErDnd2H2XoLpNCS0/okpti94BQS4Nq5hZ+ibcvNfCoxlcHISI1145Plbr30ORqS1btsjjJfBAHi+x7TxEu45Y1CTMw1VaTrFhzV8bwHPppy4zborHTtfuo40LFHA1Q5pMPeImiHiLiop++eUX8BUlFRr8Oh6UOpP3CfeKcK0+eLnppn/SG164cGHo0KHLly+H2BDCPeOGWNPGOCQCiEpbu3YtnGL4hCNHjiypqMK57vpgUkAlyZid1u07hNuFbMd2YLMPNupSbZOBMTwH6UnKX9Shf5+sdnVkbtdQol9lTWRk66qeuZz6gDKztDP9EO40kCCXVksMgOVvmiBa8+c6HI5m3F/ZEnW2KSa95UcsKjVvT2W1KqyE4geExKJFQBncbKuMXHKPNZrxhKjr3p+EGUJCTxDM7NmzPTsehG0C19YU8ejZs2fhqi87cwdLutuSDSsjjBtjabGJD582fnadi5Wna5qq+IeHh8vv5OTJk6LaSmw3DKdd7cuQaKvwhitWrABnt2nTpriBw9O6/XDw+2H3pi1yxGQYo3fczL4Hn23QoEE4XlLBq1QODzeHBJ/bd2BdP/sK/1WFkSfLOu8XKtZ3qARepfAbisbtO7Bn0hX1mxiuBedAKn790xGdTnSBVDREVAqcMYy7jTSJjEvzrYiHVE5bms0cNPhrzqj4Rahrz7GWH/H+Ywp4MSqJQFZER8KulmFu8DrX1PE5HIYcZg7R9M8qo78JK03OOBI8JtXvh8PBY0pSdjUKCYcNG3b69OkGL3A4OJlQzE6vieCkSZPotaNHj67dnkrzKo6odKYecdrLOyhBv4ax4XNokDNnzkCoRJMq/fr1S05ORpDDnQeimhXEdGan/aUj9rfkDV2qKiRZqkAcZnFx8cSJEyER3rx5c/ynvZM//Tbh0z6Jn34b90nv/PF/HDhwAD7hmDFjYAvCV6pZjlZp8BxLhKuUCvz1orrVdj69CE92es+F8UxhXmN9z12hKytfjrzA0TCMYahq4kIUbo/gpAxIWUjUrZVGvosQkXWV+a1d8eW//klumvCP8G7z/zvYdiG35Ue88xCv1WjO+oXDKql7hZaxdbkEUVWLJ4eCZdZREbXvVNpRtfdIbAf/mI494zqiWHbiR70iE9LkUbkFCxZYLM8F1xUqPMNR6Yj0eC6zDg4OBrcFFz482LVrl40h+ZEfMy4D8fzPbzo4qVIrZF9xn8zyhOnA34W/LoeE4BPPnz+PaxURNqpXKeO+eW/ocIDXNyPPEsK+Tpw4QSkwnNCkr36K/zgwrnPPpPY9Ez8JTPikd1y3vvBP4PXdxy9KH51Rm1WxiVEd38ld+07Y2dyVHCwwVvEypKUrLG6y0alim0zl+x0bPi7K+2owLxeixlPoRb+BRcOm0xaNQTdjqWFRoVaisDZgQI0/Gt5qx8AtPB06nQuqdA25yMRIr/UcjkOBLTUh/yZrDaVQixmL/TsOtJCchqbKnhmJ1oH5RCNWFd8VOz9melxH/5j2PZI6BsR38I9u3yOx2/dNTRzLoRz3hkfOyL+D6Mczs546dSoEiXAJU/6BnZMm8jmI7+wpe2mHhpv78FlwJuAcCGxHQ3uQKSNkSsMAieABXq0r8Ka8YdXhkzfCN1QdPe0+nQ2u0BKZWpm8a+zYsZ4EZ0mf9E7oFJDcvmdKu4DUjr1iOvWM/jjg/ozFuF1EpdWvUa0JsdNYvNdS7cB14gJWf6LTLcn7PJxdLdH+YFXbq6nNjJrJ6HS431tXeLM3DpwQbUxutzAIvh6ETbbGppNCMS1le/wu4dod3jhG4hAVJoMPi9xvH01itd4PmigrUkFIm+UXdL33z+LTkpb7WCYyxWcNWYXUsftoy9hQmPCOkdhh6/lK3xWRqQz/oNgOPZPb+ad9GJD8Yc/odj3iPuq1+9CRxiQ08tlQax4u23h1zMzqxX8Llwrolxs2bIBIkC558GK82VJrhPPPOgTpGNBUe99CnHuO0TQRnwqNSM27eocmVcAp/zL+F54+Eh8lFi50r7hCX783dFXX7PtheMJHvWI794zvHLCnR7Bu+VbYTKgND6EfnZr169eD+4vp6J/eqfeOjoFp7QISOgZAQH55zAzkBYhME27claJLoV7VjBWthLwCEtWFvV3wLLjixBgDgnnd7TUmfhzze9lIKSm7/u3o3C8HkdJTJvMv1/qOrncKLEeGNSfeLqxnT0Ki9kpRa/7HcCQ1huvfj0WORdZlJqqbG71Hv6Bl2bwXO5dNn5cmr7Fvfvh0C0GIVrdHMUE6aXXvwnYb93GvhM6BqR/2BFeY8mHPuE4BcLv55wqvTy5L2pXS7YdY8Jgdeyb9q0/JusiSkpJGXF5yZu2+fE0+/0Jugeh1iqyqmkqQhlWR6hnh5tXbYWVaI1IgswT3unnzZn4o6gfQabe8Klzk9XvDM2OnxncKSOjQM/HjQAj94jv1TOs3XC43gFGH5MS5TPavAckdAsAVpnTsFde5V1wH/wfT/rKx2qrTs2SuNRG8g09E3X8M5xHHJCJSUCaFkiCHdF4glvGqeVZjwwCTgEuvQO3lNLvQsUI4UG1uM1pCj4sK+ozCQiGrFYJngdu1gBGmtdH1oxosecQKDpF0MbpTzD7UJrf9H/2YKk3Bd6PzuofKlIsoMtV3zKuITDn2H+d10qg0CordpzJbGsC6eRxdYUC5eipPG9u8Q0zu2hfcH/jBtP8LgAgx4ePAmPb+hX+tZShLvSdPteH6rYRPAmPb94jrgEVGuEEYJDNdP99ssSfuob6zM2EPpH1urReYsDvvqp11vWpnr9ROWWqYtwbZ5KLSDhw4UFRU5OE0dVj7grVa9cJ+AHL62bC2qze/YILoNXvD6stXEzoHQMSX9HFgWodeyZ16gTeE24QJEygqhAhx+vTpT4sqLddvx3TsGds5ILF9QEqHgIT2/rj5fNyreksC37EjU2WyEIF0b2kiqtYuVqho+BTucRalPvozc2ScqjElFANGmLkcGtHWV7eoIWCwsca0mTOAIgzK3NpbiXXGm/1+wQRZEv+E29Wew+vWbOdgGlbP5qUZ+HSwaMp0SKCEbXqDqzXMnz0thQQZUmZMliHN/xzvb33/y8tCKDxqUjWMFDaVhg6JvdHr4IRPBq4BibI1wv0i5ABnnDeuNq5Htq//SMjVkjr2gkw5rr1/fEcMcepQLJutEFj/egutjNOjJkMeDU9I/LAHxJKs2ugfP/xXmjhuzOXFaosUG7qOnmPIagvKzHu6QrfgPn6RVqZq+jLUQpm2lGCMrsvX6uMSiwtrOHce4Fo1NN0PqEFuG8Jmc+7eJijBXrM3LE3OiOnQIxq8YTv/1PYBaZ0Co9v3gBgQCcsGDgwKCjqfexkHuZ+WirXOw/1GxrJiBPjB+I8C4z4JPDtuBkTIJByOqzO3wMMNmflondooWqykosvTuvodwE7zErg/2xqAJ9y6GuSwuXHPEZ+BLRq2jYval9RVMLK0CJZ79lX46+7My2K5HX9jaNWdmcfDZ2B2zGuFWDQsCBxh3BBLTtAmSYDyzgmjZXcXqRjFKZ7q1vIx7j4ED85TZvCG3UMudg0qn738VeJlWkJ4ErYhjQpcfvWYrZcNNk0uHh4WFjPVQDYU35Yd4vWFq8CvgY+DiC++I96OB491X8x3xO0S8q6T63eyCDG9x0BqtoArBNeZ9BFe9fFf9W+Mv2FBievAKT6sAqsuPkOsrGXsWw2l8iwOW/Y1AsxXzwiH2FA3awVt2A0A1apa7pfBpTaBJEFSL+YT3JmXnBlHxKeV6Bm9KvO9dm94a/FaiJNjOvVMgYivXU8ID6M7+cd2Cli2ftPOnTurNkQ74nBuVLS5ITQzHj69u0cQhdbgQ/f0CHIz7Udr6l6ajbXuOODhz0SxwioWMRapOruFrV2EHDaSW6s0kAikqKr2/BKEp/Abk3FFpHbqkpoZyxHcxPCJL4cRU2PsCRdM1cxl1b8vrpoV7jqTxSroxlYbHhaPm5vTLYTE3TMZai/3q8GIMolOp5iIpgKsyXvwvGE5oppfzM+MTar2/EMmFNy67D+UPgsJkGZ3D/FsX770AW/eo+gYG3fbkq0R2ERquQBpnRO3ENhRyowck1Sma7sRorO6Zo9/MF6bkLd19N/fd5g5bV/VzOVVU5fA+sepu7JadyXCzpP+/S08LaEdlhfBISa165nQOTD5P995jSccCZgmm7cmG9fFqCcvsq2L5ZhWj2Lr+vXrg4ODKX6sXRWJHBBMnswRmy6apCKYGUMTbOVj56rpVn4VJnMQV2lmhasmL4KEAMOgihqvXLCv2RuWJO3EQK9Tr+R2PeGW0B5PZcLHgVeXruXUm1Hp+IbqTKjnWazWzFqR9d9Bh/7z45l/9y8Km0ZgQHjrsma5qPWgcWefn7DpjoRdVPVvPHMKUTFXCq9PllEqr6LGfT5HxQS34Fa7+G/8AmBj8Vk3CuuVCNAxmhdvxoNMXQK3uiWb0P+qzKK9NQ78qReuz5ImOrJZgpnbLcy6PpaufzqBWHOI34VTPdgwUWMEDXlHa618uTIvX/1meA4LdWmgMP+rIUJewat4WF4rINgwq5+KcMG0LEKsc2EZS1WLV+kzI+7K5bVtl+rmQdjk834DD376/bUfx4olVZZlW2HlQzAB98bl27i6k0M4PGB0/MeBkEdjkbFdACTX4AQO9R/l5SKCS5vpGpojkjUL1mngIpq2FCu2cDFqMcEqKioaP348dRcu5ObRLACHwUKafJQje7CnV1WHfx1JDHUvggRgSdfhSNwDf6tmerh+1gregfC2079mb+iqrkn87Lu4zr1i2/vHt/NP6IS9kZ3dfoB9gKZfaRLACfs5omFUmlnLb/YaRURSd77/BZ0dJsW15kjcpeGZ7nPZDa9vPTXv7Kn7wKviCm4022h1SM1QViDQm7HrxPRYnXuPw15UMfkv3eQlhjkruVqu7/O2cBCmhQTbI6yGqt8X6cAnTg9nKx7CqFbnDdUL1qIoHTIgIDMNEalW/bGCTx+zjh6ewJidECIxNlx2xopVrBjaenN/6/7jSHXDEn9wiBf9Bl7pMbwegdACh8gESGXuMprUbrmAn9YlysRfKqYUXNlWBUgvfz2EUoqiYdNx5f+xglY+3sMVxD6mUOu6s3wjJNRUWEyEGAiu+g497y7/24t/2HuC/Brc4BqE6xEuImfyXtyJiypOnjw5ePBgGUuYlXkT40FSuYEVe+Ck6JDKxDgtrkeRdJUJq4cvMMbd4EjYrZm0CC58HXlDWOFv2huaTKb58+ev3Pg3BIMJHwXGtO8R274HpMD3pi0SVRrYhG07DxHkFT/eY6w7mDYn3P7+F0J75P93sDz15dxzjLZrW0NaC8w7mOy3c/dRPkPW6AkQALN8FuNh0n58XITnrtLkPnYONiL4LpFBaNYq3FgqXyYCgtPHYGXVM8LxtE5eopm8uGZGOBMGaXWRlH7x30QlnclUQBl/alDZtCXWKL4hWdh0GtzcWfl4rspqef0F7g2tXS/BEp+BIMRuIdhXYRqnBYEj3YWPWnxAOAnWyDRaUXxGYnuq0HIBUhMuQqZ/hH0VnOExCW0Ql037DdzU05bBwtDMXkHLHqkWkECQsVeY3BBw7PtqYEwHf+wpdwqAC//gwJ+fn1MWTJZ6arWVkXAQDDMnL7FD4FZeN3PmTBmOs3v37urtyInNK7m3Ct0e2ocQGCLvOk1SqJrZtjXqOpwXyr8JgYt6ymLb1iS2URm8NlJemzc8ffr08OEcSfP3338fDhmb1KlXxkffnvp3/3s/jJPeWrWZkTLgGMmBUwgMrDSqJy640D2YLl1sm9CbvHWfImRsuZQ2HFFU1UL84jpyRo6fZY45JIbUmYi+Acm00w8SX7G1wgQPIMwEbwhnBHYk65IttEX4OMzocDh27tzJWK20kGVDjqxjGbd+6WbaIZ32VuQNnUfOErg6rwtHWUOmXD7uT947pgI2Swmx6grb+637rJhieAFTSGuzuk0JNL+MwW/X4Itdg671HtUAYPCyDvFcNvU6wS3WD9tWVbfwcNWMh6rSKKERtcj10LYCxCfFdHrhwrSti4O1YQnfCsEElpumLrEu28qxGawAB7vRoU++T+vYK/GjwAujp4ouL5eDcLuQSA9h1zHOWw9eFW5wMV67ezc0NJRcx4ABA25m3aeQECE4iXu9nVsLV2V4WPIC+kJIuidOnDhy5Eh0mrAtZeU7dx4Si6vwe1GbX08XxWmoy/ptzq5vBqb2GHhz0WpRGhskjDgNmZSU4KhA+R8riKgO0jSaQ1y9evXF3BxkVI5MYUStWIarXbsdnpDZFfnfcTaW6G3tDgtDPyBL2okLDQMDhHfB2jVH8D6gKIPjpcjRvCkeM9nJS2xrY3JycoKDgzXltZDSWsIjKKxzX7jEckOfuJgg5oUPBd9TdXkdToZfuAQhIRy/alY4CjqrTE2d3H/Krvf+GZsMLCokweLKCQtIEp5wXhQECZmXuTptJVvWFTViVVviYtEu3wqf8RKbuYY4ET7ptb6jGxSaX7bOc/Qs8QiQW0QKn4Q9LRQgFUQ+yExkiPRA35biQ+H6HaIiB2/oiE4H3+c6fRHWPPKzTl/uPp3N4ahMuJUoMrP8gtS/LRJyvZdxi1dtPdp3ePKn3+76auDFAWM1ExeqZoTv2rVLDgmHDBlStXSzZQs//xAJCXnXGy9Iq5PYg5BosunmyfLly2WPdOPGDWJ+5a0ttbGp2OWlveH+b4fEMmxRHEMIXl61yXNsELX+5LN59SbJh8M1eWf20lGjRsFzBg4caGDcFTYE+l4TtS7njgOcSaV7iHVlFMI7KlS4Vx89T3MCtuj0xgzD5UaIIlElkhHt1gvm6Szg+N1Hz2E6PD28bNYy8L/03uABnogHpY6E3YhyIk1rH9LbvXv3wueiM7tnzx5UAikshujdFrXDfSZbILFdQysKDMvGziWUNfIyMJaaZz/PwZ5JVDpVYwncjvAg4isksSckZTCKjjZW3no0ciYx8aDqaRfU27vdb5xoqG3h9S8IkLLIcsDsjKVa4zJadkBctFqz8LBUnurB1cJazG6n4LC4sAdtcbRa5ht7+iEkEOqOajk4mMwIqN3nc62x6e7zOdRCQfiBxVY0fi7jTkcyJMOKbc/XcK9du5acmpr4SSBrTwewPnWPvV8HQYRBQxlwiUVHR4O3NcxZTVRDdmIhgPXZaE3CKYXlysBMXufw4K2Cq6Ejg02bNk1VidoVosYk3HuEIxivC319d/VW+BjgBBM7BiS26xnXoWdi1++pAQTRE8o5wUZ6q1AsKiX/daf/eEK65foP7ceeBm+05EEFpiGx6bjO7JDb1hCJAGxBmpnLOcTa6BYePnHEZdhZvV+4U9ggqdFoxZI6u0RKij0pQx22mcoRFO1M3AfR356jJ+U9B1wwbEE4goL9aGmOStJRgbcq3H3oyrkqv20yz9EiiC4h/SdoNytYGCW5OE2rSi2rF67P6R5KLVeifikePtMRt4spnCQTtR88ZojLGhazmDjdgG97Q6uz0vIrPYdnSR0VYid7EDYZ11VLzbHzUL28FIPdOJP3tkyAlLU+2WBPhYnjljBr06ISJnH2kRr1P1WohZX/4LGQfxNBfM/h9Yq2xrOuPc7/QMRjrLGSDJPgyWkEMdrVW5e/HkLn/+Z3o7EB9ah+VsRsNoeHh4OLiPn8exw2Y1FUQoeesR2xxbpy40byCaWVVXAeHIl7bKsiONphWwrELni1mt1YcoXFaXKLtS4i2RTvPBSu3hau3RUN9dARSFLnz58vD7yFhYXdvXuXd1N9mxl7OW94MHQswgPb+9O8DoMK+kM8uGHDBtHhcJ66QFkw1kqT94kabXH4Jo7t6B6WlJQE4SvbgUV7/C4qHwiZiBbM/3oYqfeWjvkfZsFlevzAJreZDSwjZv3AycZvpUJPK5V0xB3b0xFmoUJ+B23OvdmzZ1MNAmK64cOHV1XWcVrDSuwS0MCAtNXoXOmHqc2K3MiJe8Ra/CciIJJj3gsXLmAMhRVJDbb2qy0IQ4EHllbkQTTz11KCjBJLLG250XeMPWEXbRs2CangZFsuVlIIeIWXqLHNjBg+73Hybxb0QIeYzTYACBLhgz/9efYrBEV2244DOAcWiaNg1PRzph0UrS0CooOXUbH2FIlq4c1AmERJppn1r6rNbzlIdGt19vgMXBWssQaRh6jTy25lwYIFf8ekQdyd6xdy88dxnKkBciCtjV8COhshEMzLtmFC3QULYmW//ol1fIlk6Ny5c5Q4rly5Mr4Tm3ruHJjWvldau4D4DjiHlvxd2NKlSzEcefgEi+9pBy1bEuG0IxiepYls2qKOwYdNvPtRaXBnXUYyc9bvgssWgiE4ceD44G+RHwwJCQEXzEDdVnytzwWKl/OGKX59ITaEqHBHp97wqZI+CoRPeGPJOpHxyhDtLeViiO+NyYAwlVwhpDAlv/yv/kAPnhLuF+sRNYa7/X7FNKdbyIPgSazCUo0NlrJq15EzvAENG07DGSzqolBxgaio4B4S2Li4ODlIhgf30jNdR89i+EOsQVpWHSOkIVYEzY6YnZxyMoJPrdridoLXluPKxYsX47S52UFsurAxtk4dDPWCdbTxUPsYFuj1wFE8xmEZH51wy8Z4y/Y0qq6yMFzPeJDa9gyZ83Rm7peDsELqF5T3BQ7twa5Q/koCpDZr0l4KD2EF8u0kbX8LgTIuAZkvaDoFNuOb92CZaees0k5bZg2PgAtHQtGq394p09faotNlfCXnUIjbJerrTp8+PWLECFj5Cet2g4MDh/godLL3wmgVAlwe/jSBMwx9EWbcEAsfzbF9R50e4SV0JUJEsmF1HOTIsR2Y3/gwAFxHPPzYvgcitOmU6szoDXcdpSDJvDnBuCoC8f8qs6TDYyJ5MoSmRO0A382uVgQvwxekv/FY5qCFfO6ZigklwUtIUMVnezlvmO4fhGlyhwD8SOTg2/coTd0NboU6HuY1Ufqpy2r/2kjByBmwIRNo2L7g62GCx5iXPW0/4TxcB08Vj5hFIOGbfceIdXaO6qyoFourHAl7zOwybqBRXV5Bcj/GFZHV05bWzV1HW8rVrHueTfpns8Lh97yMTfAiA6bSvH8KOdG+E0iMEZlWs2BD1e+L6hb9TZ73QuZ1IiCqHy1S6zlrk741AvFqV0diw4px+pOQyLVeI+vWbIc4XZZGwhBgQ6xqOury1M1fj+S7NGett4tt38zpB3O7h+Z0x0FmPrrnF1T+agKkzsQ92NyMQj5wjBMhTXlOuMNXf4jALxMrtD2rWbQR8XpTl6gnL4JVVzljmWvfCZ5Evy1BR8eBUyiKsC25dsEG7ZQl+oUbzayUX55ZSP4L7s/9OgvzDL/g0hlLm2gv2ly7j8ITSMzr1ndjDLNWWNcjrf+FnJt0HEiwtm7den/hmnjMIxkHBIsNkzojAm/nf3+iEDI+Pl64dofGbeFWu2ST+0wWl6tVmSD0qfljlW7OSohs4FyRBzcs3Fg9I5wGTOEvDhw4EP5WZGSkWGvllyqOYNS+lKjhy3nD0yN+h2AQEmT4VEkf+lM1tO5ygfiskoK4KkJUTl5iXRMNP9Yk71ZtT81j4huwe5hi0z0THLhWqX/3dMwfsI7Z3FgY81k2HLFmsA84RxC+YbLsQWlDXsy8Kb5mBk7boCTr0s200QUPCobzcu/ePUfqPhtOQSK2BmHudE5sbom6vUysdUFkCiuArc4lNKNiXrSJ3tKmTZtkHjecQkFiRHaKHY7W5gisKfuIxSBToni56j/ctjbGzGaQHVJoY/o7jpCS2A3/fRHWFijxt70j/PWGqJQspvyHuQjbGHK6BFcv3NDyI9YYrHE7aSMhn4iN+MstnNtzFz2DLA8ORecfFhvKxU1Zij7xjxXitbtimQXHyN5GYGjg9KDhOFvCBrSWmBdvpnUCPiUoKGjDhg0Phk6j5aRZsbWpI+lmrcDmCduDi4bN0E5eDMGQfRu2SUNDQydOnIjwEregCt8c3zEgtqN/PJtXQcIqNo97cuiE6dOnUxpn3XmIuDMgAHKfzeY5IlyqBbf089bVsBOln7HcmbQPNvjaNVHwtmFH0cxeQXMEkIYi3aHRLpCOCmY/tS+bxr2cN1QfOhHH4sGYDj2Ys+95tNcgkQ3cYLy9NZl8CrxR8O6UnQkmy5UvB1N5++GQafWLw+a2MjZs+GxlY+fCCSVKek7TVMWKBWp080LedRYSp2N4yOAO9l1HcIBxdRQtpppp4drp4RTtX799u4LvDBrWHNDicSRlKJdTYv1iCQuBy6pnLwcfQRt1zYzlJKsmeJJB1Jg5tKq21SEk4OK89NXgLAajYX1VLGZXzV4hM9MQwzC4QkSfsp0D7uE6rJq5XCzWopevtYvvipnWbGc1U64cQCLRuqYvZl+Ka7AZE+AD69SYBqaLNXUtqR7CSn5coZm1Aq4O1WTuEOGmmYzTorboHWxwvuZtYBIfFVN1SIOzJUvApyCmetZyGwuy9u7di+1QUbz1wy808+PYcaipI13uOZwLHP53sHrKYt2kxbopS2vXx8DpevToEY6BPSpyn0E2ycM9w6IZ5ReEUzi18nFgQudeF/KuUBwaHh7Oq14RaeKNezz4YDAa5+6j8kAt3KhcWLN4E566SYv0M5dT6iM+KUESlgpGnEEQ4Jcva7w0woamcGI79Iz7qBd8nmy/EP3GWPet+zT3DrscAfrAVcFvnBmH4SXFY+ZQIpzzeagnnNXNSDfh4+mmL4dFTFNWOA2Ofos147DYrHMdOIGrkFUK4NqGj010A/pFG1W/45gd5R1UI3MfPY8oJL2Zla4l8q5KA2+ZIfWDnnp57qPnsJS2NZlWp5ptNdppS6nQJuRIXCZWp9x+dbcyKXHhweMrXw+TZ9SIqgubyNvTZT+In3FzAsLEpoczxgr8guAxfFjkO8ASap34Dplu8d8QGxKHI0aI3bCtVLcpvuVHrFDZcNtmqGy28LC+VmN4uYNYHGJRuftsLuzcdP7hSkaHOBVXL46KLt7E5ffePGmQkH+Dkk01W/l8/c8Ipzkxl0RaURA4ErUiJLCwl+Ncuk5o4ky/gXe/H4cfbcrS6ilLbOvjEMJ1KtORuMfMMHBwWWV9NnD3J99BKkkjaql+3xet3Xbw4EGq9EESyRkP0w7irkDMoSVVcPHaY9K5v568GM6YeSNqjRpXR1KWo2fcNpADIfCe2iwqE/VgW3BmWjKL4rz3qHBTzLVREEgPhGV35ZthgwYNIp9tWh8DMYj+z3WO2HRwNJDSomfbc4xm7OHJhjXbPZp3DlhYcBZ0bIwMTis8oXZ7qvRnBPBo4AqpOcNvsBbhUt/OoA9rYqrZSoIvVSNFQ+6Ll0S7FMHZXNQzxdaHHNaprMj3VWlwn88hDwvpNnxbGHj/vkg3exXk74hhLJEGYLTs5BarOCy89diT0mu9RxEjNPUNsv2C7/00wRaL7JB0/nHabHNCzZzVFIDgdTgtHNYrbSHYQCfCx3fLNPPWUN0AL2amIgD3zrT9LT9iUSnRW8hCWqi3Z3oZWIwRRwZcB0/XsACHzj/dcLoDnNH0Zdg5fKnB+VfYRClvq52zCmMXCLKmLoPY0ByBV5BMmYXkaV2QWLcp4MSTCfNw4bH9RvPLfEr8NVOXmBgtiMyCAX+owH8EA8kHX/j0p31r04pWbnZfzIPwYvPmzRkZKBFF6E5Ey53J8khF9WJlLURUFO7gSZu6xL4pkbqCxvnrIdCGv4WuYPsOsegZx88xfF7LzswrTObpay9/NZiikui/d589e5YKK4SsptYHntyb9yCggtNBkcu9gRMbfDHX7uB1uzmB0MKIZV+wznMVUsOrbkOMDsKZWeHGDTH67amq4zm4j/2dQHPHEO3XLNrIoNop7qzLbs8IubyaowurpbVbZYPY8N69e5MmTaLdHpJ62h7haHQcbGHTBAIEhsQPVmFoXa3kx0U3vh1NRAwI52QbybW+o+mcU0hITWTt3NU0liOXq9D1sw9rho3nHZVUfTZlEU0lElE2nqjPQx2vwv11u9DMZBKo0g/n1pm63217OcoPSPrqzz8r8iAlDMSJkxcbZqzgGPi3gD3U1aDji0g1LNtSxYJTWP81SzbRkJKoN1DNlOK+y18PaeowsBljC6Vr0LWeI/R/rMTkA9zWdKwbUqBn35ZSvWBt0eBpcCgcNusaemXI76GhoZytupJxnZjMzuR99U3t4jKPSrALK1r3ijSzcPQLTlftrJXmmB02iZyYyEfgta7DCA5ndfCqV9Glabk3PHfuXNbEP8AVwoe89MXg+/fvC9lX5aF3cvYI1wK3rdKUzViaJyE5sZspLzIIAVP2w+fJ/2oIyQA9m7SwvhPHYDSGTfEQb9LFrPpzLcShY8eORXgguL8VEeAltXNWWTYnYJidfhihrQ3bXry7BCE0tfJ1JgIQIGVQ5nU2N51eu2gTUlwsWEcu1XVIumyq6mgi8i2Vt320OiMsRJ4MMpxdbrfQ/J7DbeviiETTIpH7u89kgzeULzxaUmpWFoAfnbuP4WlRG8R30cp+/ZPhz4P5nuEXdO2bYe7MSy13iNduy/UHrjcNaZ1vMG+9HoGusJ5VbEye08CwJQ2hOnrDOas5rvgNo52uX78OmemFHFz5tq1JNX+u001dZli40bI1iRw9QdncJy5msjK0d3gN5F0JuxB/0y0ULn841dZ1MdUzl8N1WrdmOy0/a0SKfunm8l/mXZKkeK5+NdSwYhuCjiEKJlJhpyBczKOcD5YuVsmkOHTDhg1wnbIZHpP7+HnNnFVwg0RHPv82qZKL/dWnlZjwqcz1Qc9b84Ymk2nRokUkiMxq1Yh3ffLzLObOjUhGXVIOMRox9aN/jNvpOnqWZpbh/FbOXdUoDYHw8Gafnwkd8nDQlPqUPP0gfkNroimN3XP0hAyguXXxvkUKP+mvYBx66RobDqnfHNiACqKLEXFtcW/ZsiUoKEg+yIXcXErAZQIIBP3E7qQkCAfCaV6tVINaKK3D3DWGW/3Hkdo6hj/s/F9mtP4EB8EGKGNyxRJqhd66PhbpOaXLj1qZNTOQmsl1JgsHJHTmd9Ibut3Co2HTZSkYwsRd8h/6SgKkl66TNhmmzEzFzbX3BKSWjkOnbPEZlu1psB9jr89jDJaInWALR/rl3AKqyWDfj21RKik8NK2N5hTNb4z7C96JPKg6ePBgw/ZUymf51E0Ef0y5qnnHfgLGFY2c/fxxwsPDzy1KotAbTqwlfCtCSvB6TKEwhWSLIPu+9/24vC/C8roiBvbpiBmwRG/fLcaI72EJft4aA0eAwXuA6w7cmYD+mmTj+/Xrl52dzVlFHpe59p8k0gdMfbYmGZdsNv31d92f65BxmdEFiSqD+JY18yAkHDZsmCwJeOunX7nURrcQoaHyt+tkpjWS0fJAWpGy/9Z3Y1AYt0vwzd4/NzqmY9+JO+w4EE7n9xyGIyjJe4RLBTaWJkMMXzx/DY2XUDP+fN5l3Jl3HICzTzEzTg1n5ZPUN55oT6h2lY1QNTRmR/rWsO3okneTPiH3p0yRC9nwZXkAjZnGIbE33WraJ09HzaLqBHEXwnrN7zEMtlxcgnEZlDvAZ9m3b5+6HMczKR6pL1Sx+gv8Btl3iJHJ4hTfVbPaHw+cRP1lxvCIEcqVgOHC3Yctd7InLvLmMmkNEnk4uYDYdFqNmPE9fCKymdkhQ4bQbGh1OeYZtYv/1hGq5vdFmqn8S4G8xHngBC97vRnzlCGG9b9q1aoag9GZvJ+G/emzWKXaqGiohSSMqNIagQ3pOKNGjSJXmOU3sGjETNfxC+RSiYPLte8EkUVqfpmX+8UgjIG6h0LyR44PLnbnzkP22AxbVBq8AdkjY8W/2pSUlCQHK/A+IXZJSUmB0wJbO6cojk53bE+vW7KJegYIE14RgXMEla8hxXmRN7z85/J9fYem+vU9HjrOcv8h7XKegsg1NTXOczk5TMws2y/4/k8TG+6koouxEJI7fzpyZjaD0cCihCXV4Jla3YMh09I7907siBp7x/oOr16xjU+2RKSdP39ePjtwX3D+NhLz/YXk1ZCq4DkCz5i8V7QKEC2bjpzZ/8PwhM++TfX7/uTISfC2nUZnSWWVzDYGu/Tly5flk4s8GTlXxCdIxCDef1yP1TRZaPikGZ7xt2vl05bSCFom61+hT/wizDB3LRJBSqUJCMkv5OaB08eUBILiwmL9oo1IZUYQIqmKj5+XZvLcgvgOm67m5o+okJXFsmakRPQLudF7tEvTQqouwWIFZ4dywMwnYpAYlW7eFA/XpHnxZl7UZ9zOFy5ckC+W/v37IzC43OA+k13NNiSsWkjAEcOqSD4UVNvympf56s2jwyfCsk/s8t3xYRNrr9+WQ7mFCxfK7wQcWX6+JJ4hzSmLcP/wiZ0AqrHpVyb+b2f3H+Fi3Plxn9L5a/jxzeYFCxbQQeKTk7JZQRb79duSqb5PzQ2kMrl6m8ZAb/44llFp4FX/ZOg0LrfAliiPB1nn5Nm8VYf6Dkv57LuMwLC///5bHoeV3zNEiPRaWcxLM3OZTsInGWatwOu00vgGveGhoNEo9dIxgDRSsTUeE0NvLiQkxJOrpmTsXKziM3hXbURSw6hPsKTspZkTy7KttNvgGOlv8z2fpbqYA+ci/uNAprbVI6a9f3r3H4tnLqtI2jVmzBiaPaTxEvWcVda/E7Bn/+caWFsQPFP91cw60YYDJ8APwhuGgyR8HBgPx+kRdPzMOXlW748//sAxuxv3sJfNakCOpL3ePz9SPGhww6k0thJgjfavDXmMU0QeyIXTXjF2bs2McPPKKFpY8KFqotNkecLaSkZ8W3DLuCGWkE/Yd5oVjg1WKqca3eI7bxXqG9+Opl4KwYnh7JVO+LPl+bKm2hqLhEBWhmG2roionraUIm50cP9bbdmcgPXuuJ2yejhdNTWs4+nMOAwpJDlEFKVYsRWTdyRANIkt/TYq9x5O6/pj3Me9ojvQFdQj7b/9Kw4ev3v3LmRy8vQueuSmDWI6+9bkE/1GIa1/R2Ih6JnW/ceKfYdPnz5NoSUcCtbVpUETqep1s88YfOWtQiQMZ7EFJvslBriyKicswLZ+t5Dsz5B60rJ0qxwG4hTZykjLykiEJf6+MO4jJIiN7dAztoN/dKee4FvkeRj4Wxs2bKCohQqFWP8pNxBsE4sM0xi5P8n4vSFveDjkFxTKau+f3A4JGpI79treESdP9h465fX51fPXYUkVE+Ggyj/XNP5nlYYyiPLx82RkHMcViuKdlX/DiYDTkdqpNworsz/HSMN6LlyxCc7I9vg4bSxOENsZ8w2c9+q5awQIbSqMQk4BNZ3h/tafK7Yj2N0/qT1qdyHkvQODvHcKWL8sqrCwEMNpOGU1BkfsTqpxYETp1TR1jKRTBc9vDa3kmoUbKLRhdeswKugUBk+idiShZ2r+WEXF08TExHpKoUojF0VAVnoTUzKo4YOPOlOr5ZJ6I3b34bUABDbQto1r9fMwe+qBFjrEfAYKicvQzV6pnVoPl4HHVAqsWx2J+1NEipxIcRXgGhfXnkUuuFocnMAWn1G4/5CEQVpgBX8uj2dMWYkf9tjRHgU/k9vjiETcR702bdqEs3GR23w5jlNdhUEJI/SHK3FHx0CaN4NrauHKvyFYI2da/df6PAYNhtPoPIlJnuvAKSq7Z+VfAf8FHnNbwj5qA0Aw/jD4d5tMeQ3B3YY4GU19a8iUGPY+kzr1SmYKU0gV2NEf3nZ0dLT4pMSavIeHOxEp+LeIQ7e02nUyUztzOXaxp4cjhRXkQAbnm/KGEG+DN0zqHAjekDwLee7bKzY1UaE1X+05nIZJLn85CCLnxqvn5j34PBCh5HweevGzgcc++SF31FTDpasYhIaMQcGtDj3J85LsVhzzhkkBwRdyrlccR4JYEqxAgoaIFNdhVLxDqcart4jJGf5p//fD4DyCG01mUjV0KBSw/zhwz/dDRbWNjScb3WeysMTLgKYNZp/lNWFxYW+BJJNaAXEhZCI0akKUBNRKfvDTRFhSlVMWVU1dQmVBCDQQihWRdiHr+rx58/CDOCSRXwIVljEqswqDQ2N8CWjIO2TwdV/qMYTK3BCzYCP+v4Ptx8614FCuw4gnM26M9Tz/PPpm4Djt/LUUB02cOHHz5s0NFpjRbKthwrNl1bhLPTPyAi48aNHXAmkc+pT2eKnCRUTrPxaDRP/dy+OIetmnAPPA0TgWlyR82IOmieFQ8CNcQSk/DoHj6DJzby9ee7rn4HP//gm2k+t9eAPAtfsYpHGjR4+u53z6FrwB1mqvfDOsbkUENoKT9iBSeFuKYfm2KglznjnwF3AsCZ3QgyOhw/8FJHbqBW/76qxFkJa50g8jgwOVCxN2seKgCcnQWBvAfT4HmRYv5DHND5P7dWgTeveGO/0HwnsidgY8v+1xfwD3VJq08wUXLe26cLmWjpvnpfx88RJ8qms/jk3u1Gs7nHEmunpl1qKkLt9B+JbQjo1zdwyEv4hD0J16wS6R9O9v4SWxsbEjRoyw51+HLYjFzMmY3sKOCoHbwzIztfMj05L/8x2sgEQmY5jUzh++Szi58e38o9v1SPX7ATv3z4zC9dsyJQmqIz3zwhqCWqMUT6lN/3iK7Dp6DjZh2GAJYk3j8fd/mkCQXYgK4VJkxXhcXtY1MViLSdgtbVFunG1gnUo2ml3OQkKb+B6b62IeeMBM1q8jPF3+10OamrV4UXsmcTdcqLUrthF0iYfn08I5hBAc4szlfDiqKfk9nYntVWxylKZF4dYitt0d3X7Eld+ByxnT+k9qj3nu6bHTfD9OYfhG8H3R7b6Rj4P0Chhm+u/44qfs3/9H8k9wgyt337/6ahespxeeOFEP9gBXeHsZL+nkfhFaMWE+nF6sTroFaxwSiJmXblExmBes4fyQXzEY7MT+1ocYjcZ3wLf9YMl65CGPkLQMY3eKD56xfqaBcYwywZk7DxgPk4HRLb+eVe3dG54aPgk/OTipD3HDgRNNJK/WB09ecCzidiXtHvcFL8AuQ3xGyqd9YtloDsRxiZ0DsSjZCdW24KQnMxeG3wSE6B1hi+iR/O8+cEbOnDnDCRTqTJQMcrEUF+QdDlv0DiSOjUpL/FdvOI+J7XvSmU2lGLO9/3b4drv0xVVWZXXtPsqKuBhmuiDALq167i26uZ+F8LDun4aePCrO+2owzfBQKRqiwjvfj62S0jHCD3KsBkQoSzdzaQS5mY6snBpOVIEBr1E028X321x7juWw3YVOLNwK/Ed4YmB9allsx9yihuH26fzLKEKuzTZlKTUPm3S1tXbeOZFcIW5XLeqi7PyyPzqpD3vQmqf1j2TMHXueHT3V9+PcXrERQoc4xrslx5gJ7Dh469yLJdF4tcZ0wF7CqRGTIGCcMGGCzLk/ZcoUuFTvh/yOrrBbKASGsuanyKTfMEjckIBrFTLlyYuLR80m3XpwuHDVJ7ZnB2/vXx2RKIN+UMz+2l1OcQixocaGKlG1LoR8ULnw9VFzeveGlruFFDNjXRPiOPCM7f13ffytYWPsi8EHVDeFLfdh8O/PP2F/6FjaW1LaI8dZXAesSsSxHDyhA+dMpG80vhPyyB7sPcQSv8ttrO8WuQ+fpUYztkSlKJ2VFZJ3fTUASdPa9aDVQHl3Am41AYf6j0QG9opqUp9hys47WQDYoCuPkWClnvN9qf75CY0no/8g0TtYWARcLxw4sXraMswypOkuStBohNO0dDN+wBgpfldZJcKeckRyEZ2PUxDfe6uNTqPRPbqBQ7waOEJ8Uur7EYhXybh0s+f5x0bKZM7FoJ++nFA4TcIb60wEZeWzUnBfZRKrW7LqjgaPwYYnBBMQ0P2fP63/2A+/gST06v+W+X6cqgMnollsmPx/9TUr5KmmGwYx/qnt8MoCb4AUDB17rlq1ilwhhIQXM2+IT4odqQdw22YcQpUTFogPntZ728InJNOonb+WCqz3BkzY8/G3sUxmD53MR1joP97/ZwR1sr4zNqkvX8Oy2MMSjATfMCdxkz3lZ3E7MvyD41j1AU7Enn/1zfk8NPvzUKeHs3/eno6cmecXDBFyVvcQY8yOBlFX7hWMijtgFkzeCqsb7OCxrNeRyOJQON1JTGMAzkvB6JlICF6tq09jHz6hnokzeb+US55lzNXJOWETYrH+CC/3p50NDhjHOMdv/rFErKgRcq7QhoN8uedyeebo6R2MTCOU0f2Lpn+Yuatm4QaCZ2YxDld4cKPPaOOGGMOc1cSAomaZskwMBY/r1mxHMcLdSH2G4g9UqpcuNlxPxWrFFfLl/dtCXnlg93DDKphvkntnz55Vnb4KK7NudRShqen8E0UQkTJo56zChUrcKl6LmA5GE1eq4ThkTq3UEtDc1bnLiB4muX3PHe17Yab8fxyb8WRDlO/HcVfXpHb7AV6V0IldnpCitWNJIcRuDKcB12Ya3ToGUvcjYcgv4Arj4uKqY3dgUmIw3ug9KosBDGHnRvnfIjyl+fn548ePB4+pTthJIGLLsq1lY/6HZ/6zgRBmMb2UnjEd/Pf1CDati6aNBKVRjp3HXhOcomrzW8D8vghvaCt8XJK089qStUW/L2RV/GD4kJf9h7pv3WvyNY+L8v87JIuBsa8FjnJ7gPLhUPEsEkxl1VnafCAHp8QZd4aOAZDnQoSPkXMH/3S/H6rCN9sj0rDza+dnAv5njtlBITSNNApZ+VSggX2GAk/0gO16JLTHHQwe7/xqoPPQGc4zzjYclGCm9kJhsdPkJsAd9o7hm2MKIUKJ6i1fnNrDpx5vjr00Y2FxcobxbmHVX+thR8ntGkq89iiEFDjcuCneEZWuX7RRzaaMtRL6lPRta2Yst21NgqXmPpPNwnsnT5OLyvEyU7Eq1Ts6dtKSfFmnu/btaJKOIc4LiGhu9h3j1lQ7tdVPolNuLFxVuDZCc+ZCoxcS/iMnJ4ftyikQ49D55/h2hiWEL8iwdDOVs19UCqyQ9EXxpiLRrhbwUAn62pTPf4xjwBq4oJLa94xph9dUUvuA8imLXupQ1xeujGVxH4SWkCPHMCcL0WL8x4FwYUKwAglc/ZXbwT8lIOj2/ftmBlbD0sGmOGylMniJYcU215EzlZWGuXPnyqDLlStXEkJTv3xrLrKUB9H05I1+47MG/HIt7Ley3xcaNycgtVdsOoJp8Dqtfms4MF9nUcrHzctmaQU4RNxFm9ZprJyzEvwm0kx9HpY9ZFJGz2A4lUdDfzk69FfCLVJlEBwihm/M98EZT/P7HuNkVqBN6Nwr/j99KtdGyhwE2ESW1/HB09RpcrEhfOHmPWQPD98GLuPsv/snd+qV8HEgJw7q6J/y2Xd1aQfQwd24J4/fIbinrJbpDeiwdwz+wmAWjTY2Sc66e2+xuFZ19MzRgWMSPmKbLZPOgQj66Cc/0JKCM4lFwz4jR40adT7rBuPFSKmehnV6KkXzAeSpyNZJSgYiUxxE5jTIvEjHit2j2oxB8YaelYjSgsCRWIXoFsJJQ7oEnewRlvQZtvV4Dae9/4HvhtacZcNqHvDjiRMn0lgBIduJYaVmWjjccPR42lLLliS4nj0pir14sWoHrjc5MCSHaGhJsqw6cDyt6w+kU0TrP75Dz9P/7p/vP+yl0PWCxXp+zDSq5VEJL/nffRI+7o1hIOtz7ugYSIANCFzgOYmf9rk6a1HGl/0TPgnM+OKnE1+HMI2U4IeDpzii0x88eCALJYPt27cPQkjMf9dFX/UfLlfDHw2aWjt7JTJRTcLpAPPq7XyeB7aKx0Xut1jb8Xkyz26/N/A3TlPYNeTuT782KZpTZ7zcc3hml4E7O/dhxQV/vGFpwJ+WVzLzhnyHaY/+MaN7v5Kx/zv67bCkjwLhFKd36q1ZEwE5LPGjUV/JLdGuCdfuENmGFSJzu0N8Wgrn7n7QxMyuQYwhMehwv5EpXfqmdul74IdhNogKGVbGtfuojaFqHAl7sBsFKw/zFC26xXIJlEdKeNq35zLub46GNRfdAcsF8R/3QtbITlRI7pH6SR9Uhe8WcqH3MKKZGDNmDOuvpVuXbZX5F3DodcpS/YzlnB4uVeKtqjLRgCePEJHZzOi2uxUf2ODiv36noOdIzNe6B+d2D93xUZ/YzgFUMccWIqN5x6/mo8DsyARPKDVOyp/Hbdi8Ldkwdy2fAWfchTRbQtNBgod6nBdDmi8tqQNLBQ2VWNPCcRTDleunhv0GUUVSl+9OjPgt5/MwuAbB1xg2Jbzsoc76D97xcZ+kTr32B4ZVLNm4+78DEjsHIgixYyB1aZL/z5+pgPjHd+5FoqDbO/hDnrsdruVP+uT/d7BuVQSY3F0JDg6+kXmPT8Em7b0aMAKZ1thIFWSQyJk/FcsLFGJbl2zBxRyRipQrb9deZk5ZpUFMP8rXsimI3xY2WaX+O/7Iv38kODtE1HEf9qC2FNUgkjtxV0hdjthOAUd6Dqr6Y4Xp77gcRkMAN+0yNuui0zu2p1MTGc+OipW99LVmEp6H1ZZ/E5yvds4qgqHAVlMybi6rcgsoEIoAVyNKv9+4J4O0EavJ2ET0SzdjRrNwo2vvcawqooqCGR643pYMnunhEx4Pdg5MaseL1qmoNuMfy/BM+z/pm91r2MiRI3+UVpX6SCaJplr/ToCLEK+96eHI4b4lGQVCI1O50CXspp4VQ8knCoozfN4h5hZc6TEMFk/GJ99SPJjA2OohDkrmOBX/7R0Rc0ec9fJkFEQ9RAFr35ZqXrSpauYyLF/MWWXZEEeyt+7DZ5vJ1ql0yKJCrGI3FLZ9RdPMW0Nj7Lcgk7O9XK6T+9VgZMz1C67bEAOf5dgPI2NZFZJOC+FvGNrGnzoBCazGxTqWSAJ9euhEwmDTMMmpU6eIQMy8FTnYC3qPpPkLuIfQtXbFNkicdbNWyNy3EBvaiI/qrdvLsTZAWpr/zdBs4v7uEmyN3+X1aebCR6ldMPPFTjHWYrEVBT8imgmv/4CkjlimJVnV2HY9CodMJeUA2FVY8Bz2THK1wo27ZkZQjiqOiXsEVkC0JewiFkmkVHKLt/r+QnUfSOQhtBblEmONDbGaahMkLA5Wl8Xnl+lc+07gXjSNc0FDyulI2081bPeTZ2/t1O8KCKUqJxUNUtlSo7pMEguZkz8KXLRokRyMTJgwwZC0G2kCJHIgAk4SxB+VG+894OVwSC5QGoKnyVypslpJk5toEJ+4cLrrAER9de6V9FEvwtlRaRtX6YfYS02A67wXV5SFkCcoKAiHUx8VkRoanX8zS2K4BF1chuvQaR8qUAYOsqEQnsTzXK8jN9Tq4FJFCNEXYbXLt73EC+tMJA4FF6Mtbie4qqI5yynDi5UcIkvp/AkNglOADCYMt/h2+GPSiPFEVPHzzz8/vVVGw8VYWNicADkcTi4ztvbrvX92xGfQhQyhCZVfkdl/C8JrXK9ARvmWvKHIYDSXvhhM3v16nzFeGYCrj5yO79QLFQLZKEsqg4OyeeeA+PasSd2Rp4TwnJMBg2v+2kDb7PXeo3K/QFTd02Ez6//iqUyZd8jJRMvcuQWkH4g8Qil7LjIKA/j+isf+r/FbsbrFwqfEzAHRk5BXADdsyzLef5lYqWpWOCIhEM30lsj+NMfOxnTA4mZSx17yEA64wlQJ2RDPTtHixYspDMFrr9bI6ikZXDoVFaDSKUZ27T/J9WT4pxYIlMDR1xAV3i8SNXrF8TVl+38YhuMGH/WSzz9tTvQ4iakawZJevXo1hDzjx4+vH/CoqrZlHKLpMZLWw4XKxDlt0ek++CxbPcIGieyZZuZryk50izaSNyzwH+G7dAFc4FRLvdn7Z+HqbTO7MA9/NxTOTxIT/yC8NJYmWbaHkw7/x2dhkz5EbxjXA1NjXLFaHeqUstEvWKgPQ3+ncT3M/74aooE4mphvInEjqVm4DkITw7It5D0brOdW6w0xVV23neX8COUv+XnO80+4unRtLEU9cKYotG7H4KDt/bE69sUP7FTiCd33yXc3eo7krMIRKXd/+jW3ayi42mvw/T2r5F+PW7Cl7pWpDMWHTyE7Jo8Av7n93ViIJcGBwqvMDTE9sjOlJzuT9wl3HjjSDzIelyWk7UciU3CP6j/lKPv9dmq2Z8ZOY7sCRs3UVuIVGSkZgdMFF+f6uVshJCTVHrGolJAHLDxMpTl5LBQ+v24MJu4E5fzr3WbuejWzPS2J51Wd+vMPt50d8EtJZhEiwzn0jJ25laYeG5taA+sHm3tE8MWEW5G+VKtrLhBD1Z16DDaN6Blej+aEUGe6/PVgGuXULFzn46usafsp1rk9YILodFrid8Fnudv3l/0ffUcELlQr3OkfBNfvduYN6RSld+yNk3ztesR8Gogr1um0J+4hMhvweiVj5kD2TRgJOPiz3+YTnSjNC8iyzjzoOX7+H1kJLeS+Vs1Zicky+3hV/1vV6F9vLl3HCTCki5wUVLFR9dm3EOwcOngma8y0czQx2iVYN3ulIxFlAx8PmYaSuIzqBmn9z+dw/hiL2xa9g4bqbDsOiFwQNuXZr3/mSepI9wZMAKf5XHHOzACGGFoidqnCqGeIWRkuW8NYteFB3ZJNSANxv8hlfRvVtX3fD41mMKDU/+dPThBjw469+RhAO/8dH/VGNNI3AzzdOtcVi8ugzRZ2XdfxC16OjiWChsheuLkU3LV3exqXStJFaZ0C688/00FPkub04ZuCsCijd1iT6fb+41a2qct6GLBcxVuFzQRiVgZxJe4GpKVisP/X18crkS6Qy18NdvtGYqZZsRWiHLiuHw6dRqUqw4pt2Uya9dy/f7oQPO5a+Hrdxdy7y/+OY0i4JCn/o+mJBMj//tMHP9qZbMIYofDR/1aRfAr1YEtGzCSuQ9KQcu49biVqyKh0BNacz/mnVkLLlQBKR/1BCo1ZXYNq10XbCh8fDRqb4tc38bPvDnw3DNtMHXuktOcTcpj6YS8lIG3AiOvXWXdYW0PzFZe6hz0aMpWIBXUrIzIlsHHdyggM6NIOihok9xduF9I6Q3x/boHw4DGcvvwew/jIWpeg2hXbbFGNY0P7wZPEYYlltYdlnAtoskQBzSST+PzA9HCB0Yq8HaaGVIaHSGjPgeLy/AztH3SPnWW/H+SXOHcekqMPPBXswnueIIOFKnqxTIflQlKOxuE8o+L1mrLry9YxzqTG558GBJJYHQObgR16Jnb5rslALK/Azr4aTiXNKmXuo81QQiCLUFE5B3sRBhY5CKyvq99l3HuUinRwWVXOXu7LS55NWURcwk9ZQxLe4JPQKQxdNxAiFffFyzweOnQSXGHcR71SOvYizA0WW1m9O+k/36Z1+yHV7/uj349QLdsMyS9VMInbFFwhXcUYFW5J4jybBrP4qNh1+ZpY8U8OCLyCSpTJfONbpLOG032uy4CULn0JKxfLsE68PceudkQXtufzPVf/WCIf4OHgKQxSF5T3xSDKKVx7T3Blny7BmjmrbKwa7YhKE67iGCkEj3ZpSxGLnmknLcJpDcY1Wxj0GxWzRbPHDIlKTS4DNijXyUxGZG2ksQHNJD5BRfkyRYuc/6r2bWSUjDuyJ01n7+jIuYKogChPmyZ8FAinlPcf7XZZ4JwcIsEnvSu3qThdjZQsq2RFacWetxtzlhHMuNH5h1Ad+wMdA+FBHATynQNjPwpoOjoo5+kebzQzDEN8RvN/vlIHO5bEr4GQQ6GsTnx9CUoB03LC8PDLQWJZZbPPfxA2OYsRJpXNCuepXu+f6Qg3eo0SMjlTrF2tSen6fcInveNZKE2rFyf2OiCrHnkAcAUp//n24leDCKoM3vBO/19lCUzz0i0105fjbl1pEvWtoozzwau8uC5lDxKsfxaUCguFDTUndcR+E0Y9TEM6tnMAphgM1I4d+s6BD4fPqN+44nYSKTEcRL8+RmT4L8qd4V7z219EeEt6mI7dR8U6kzP9EAnCOeJ2Xe81iorEcKKNy7eRSpxnEc21/2S9XpLRKJbXgr/TzkBYE4SEXHaKQfYQajNrJa7FcmPLlFhf1nb2GEiIf0Jfyu0mmnxKkVjUdvQYyF9QoaKQkEJdnEeOTrcn7nn+yDjMQABDbCuzTLnMaDM4FK/XlBWu3UZsBXT+abhNvtHXEcdGx9K+6NfkUZxOm9TiZzzkaaQzIdY1F5XX2HlDGb+satrD8JevycxRaRQxYHgIW35zdu/H8VlM3656OaLcaiNSSIIVrrVnv/4Jn4ujVh8XnfomDJbodhb9JHYMSGKNUyazHpj0EVIwJCA9V4/EDj0zu8BFHXTlm2G2DXEYFW5JrJ67BgcZZy5jA7L61kCd96reEOPqX/889ikSCsmzO3hhdwhkg8YB1BhloOsecL6O/vuHi34Da1dyAl7BIRAkHb6tO/3Hs6/OiuEekwbWLFznOnJGJonEpnBsOuQjjpidsLEQsy7DGAbfD/4N/5WFS7aU/chFXmcCt0i/xKmVExeioqJKK8FH6AlmyBXLpi4hPhhUrV68mYux2t4G7//xQeMYqDBAzsiofk8sPlhJZJvKsZBf+LnKuYJXF6sY8kbKtmSvKAS3vo7RwBm5Pm8FZs1YrVesqSL4qfNEHEBJn0wDkypBbQgNBiv8+LCJLziOI/0gl/6Iqsc/QQLYXNvCiQAAig0hZ6xgcX1V3Wv8gLe+/4XwZ5e+Hiw8fPLiJ4PbyuqOGZt+SyKFihSdXP48zLIhDq4p9ymczCkMmpj9WVDGR32wr9Ieu0wMUIwAbIh+qOqKTIDYngo48u8fr/UcUbtiKxbx12zHYSqUG0WgNWrzQnjoEN4Fbyi6hL3fBCMJDSMpI7gcBDsJjFgw4V+9M3oEpXb94eCAny90RSEF7Hh8Huo6z4mvVdOXkhYwliQYLQ0pL4PTLJ+wAJ9x9yGEgbJAMI3swI+XGW0nCQBZlm01R6bYJdkEHISM22WLz6C9GmKosWPH9u/f//LlyxAlObanU9FQohvhxMWu9MNUz347hNC3lm3gWHTWdqc+Jo09EbADT2nnwAd/R8tFehq8k0uHGAjfuOvl0DoHBrmqOs6rzEZxkPlVsaaiOpc71e8HLAt2rj//LFMOTJXKYRg8du51c9GaF7VEzmU7UBGF8yRh039bsszx3mTpEL6ZSisHYMOXxSCHQlOsiC0yx45DcH1Rs/HZL/NeGKgaqOcLEYk9/bDw4DGRrhN/ElFA2SJTKycvodwZPOyJzwdmfN4/8ZPA5M++ozGe+sKrRIGz65PvTOHb4OQYFv1NkgnE9+NIpMGw1kIm8sGrHyLxs29xJXUIoDoLYVbhx+gO/il+fesv0pURhMtBRrneowgAJeTfBHeGTq1LcCWrU9z9aQIK4HYJKhzMhVwh0HPtPkoaNKTcWDFhPn278CXdHzCR/KBpfWzNoo22lVGYVrO2CRUZM3NyCDQbHh6OifCDUt2M5cRDxxXLpi5BNdu8Agyp3havgVNbTZVWZHaTcG10+eENS1TYgjff5+puzuT91BynG3VR+Ehy4zqUHqkMIR5kgCEe8Cr24oBo2p9xsP18FJj8f/7UHoXFnCpNB8ElndC5V9KnfezlFS86ypNSYkiSy7tspuKQD9FpHbaSK6q57DreNK8X23AvaBI1PCH4ELxuouTQT1xkThPdn3ir8NnE+XSVIel/6n6KNsonzCd2JeIi0M1aUbs+Gi7M/DEzWJCI0TS1nhBXh9So/qld+tat2V7DilQysUXNrJXijXsYGLaaovZr8IYJXVBLIf7/EGuNkPR2ATs6YNYMC6hRD65k9B80Pwe+T71gLf3yPrg/v6Dc7qH53wyF3Ll49B+M5znoep/RDb6ny9dkaNLVb4aR/hl8GfrlWy1bEjVzVqmnLGbh99Kq2SuQBoPKNxFpskRUaGgobkQVBufOQ9Q8UU3m7O2ufSd42+E1Qb18sWtzlkGChij0D3tQZzmJxYnJrEoFe+zZkZKwd7maj50wFAJdadZYL+BeN0S2lUwCBcVP9MgVXFYtPC76ZxeZIAhut1t0uZ0+MLTAk+Fpb/kdWkqeJXfnMFiaC0qWeilJHXvFdsSL/Oq85nqyZoedzU1xDk22JSMEotk0UKVjX5mRk4YwMpvX21hwHTyd+0UoKWQ98ajdN87a0w9kEUC6a6j4uOha71GUJt/qO1YkdtFlW/N74NWXyRzro7DJmilYbtL/ue7q6BmxbL6b5lIoQkxs57+9o39a1x/qVkRgTkZCWlOW6qcucx+/yD5yrdsmvDve8EjI2Fg2WJLWnhMXprSntkmPg30Gi54AVJv90c+zyBte/mqIk0lSmNP2ExYpt2uodsVWzcINFKiDsxMblv4hSHSfyVJNWwIZNwSPKDkw5n/2LclVc1ZpmTyFzLVZPSPcvhUraxezbsiTbQMHDnzy5AkutUo4TrZxa5J5ZZQtKg1BA6XVnFi8ovqtDfPqt6fu79IP8i+IEFG/pQNnSUIKyI96pX89wCgRhbpzrxJ0g2QPCHXoHb1hdWKCXGFA0Rj8pHpWkrf46LNaiW7UP/I2NCfO7goIJahN4ke9sPtHjVE2fHbg474ywfCLQv70Q0SwRLSmhHMQ7j9qtnSIy4+ze6m4Q6x6zXzDZRMX5El03/b43d7d8rxVsrqTOXpHVlfOEE4zuBA5Xv7vEIIDo1cdPLVeHmvK0vshk3CArwNHStA4M/mBYwPHCI8rXHuOWTYn2NbF2aJ3YCqGArYm0dKKajivwRuqD53Az4xELByVTg04yDvOdxl4pcdwe9Iez4X+IPh3ovy6+tVQF1N9vffjeCLLhSfXRSaT6C38CIG0l5g/ZBISYHQLudX3F4gWTeHbiFeOKP9QgGbqEtivzIs20QypzKKxfz/jd0GBFOb7iPKvwsgK2NXYgSUEbO1bUk8uGjk774uwC10GJnWkOSdUC4NcI6Xr99fnhgseWFnXgZM0qY0hoSRn7l0ivY5dV6R9qjaJTyvwcd37zv7vawBld+XPWpT86bcSJTtu6mmde1/49wBwAVXLNjV7BPfFS/XCRtIMpfvEhebcv4gtLxlvKMukvN5NwWTO9x9GIsh5/kPFWi/1k8cjZ5Cs4O3+48unLM5hcLcbvUexOkDJNQTr4L/CxftwwG9yuansl//lBwyHoHLXx99issywSolsO4n/JHB7xx6q7Sk84GWJi3C/CLdqtbGVNE9epzcEOzVyEnGrUZ+UwHT7PvmOIJcQVD+buKB+Eygtvx44iraga31+hi9JvyYqk7VE4JfVs1ci+NMPo0UvPBaPi+CA8H3AvXYOamZWz1lVw3hPOcGcNFuCbCIsr5w5c+b48eOfPq1nJHc7HGK1BXUVVCaOqmHSmqyMbRSrrG/n1N/pPx4HCtlIz/n/DDjy7x8Pffr9zRmLRH3jfiLFGnSNyXhDUe9t8lRvBT/IRPJqZEUUl9WleLqXCdrrrv8y+4hf/yOf/nj23/2zGOQLVuOTkTObf+3TUiur6nIUFFFqpuzxoXRYy7E1EtoGV6P1NeOi4EKTxT/V89c+/4RHoZMpeHwQNvmS/1BiBTdsS4Z/utV/HBICdMd0++4PvyAwgzHdFg6YmMsQPPCqs//+Kb5TTyK2QQliNsh8dvAEjh+CYFBtFko0GPbWucXW19j74HUdqODPcIqTWas04OKvs259PzaTdYcp1rve52fb6YvcH53MgviOXB5ycGl1ECWhf+wedn/ARJpFwR7/msY85qUT/iSps7s//UpDP9XTlsnMw7BTERU7fk/Tl9FAXtXDJhGnAngJqtdUoAeRmK+0ouWNO0ThwWNM9r8cBOcHywJs8gmWFPz+uetEI1egaAAeu0lxGV4jDLPWhplymQ6PA2FvqRY/l9JPfklzn8mERcvaqbjYiIT8ao9hzX+tboG+KUKGskkBxkHQ7IqqteOuzGiHuDYARPevPU2x268FjqJO5qWvBj8/4X7lq6FUg7rdf1xmV649DVGheuF65PjqjoSbsGjLJi0AP1gxdu51kqhGyS0cVrn8xaA7Q6cm/AelTkjMI2vMNGzaUCtPZXI5WvV46Aev8Vg1ufm3Fq+9vXht2ZGT7NQ7qmYuR9GoLwdlsfYTnDXdwnUiq5EXjf6DeT1sVxnWbn/682yOu4Zffh5GbayKOSsbrNETF+A5F9jgtyPjECnNE18uKfXUVzGmIZyQVqRX0WSPcpEFWUMwjDJzztcy3VuQ2TSn7qOlRt4Qp9m7BnHQZSO7cd8iUXhRrIEP9p3w8kwb48vDnAsdItMYM75e5Fqbd3Nu33YGqxUWYR5RuHdHzAMR3ItNd2M9SoeHzRF8UoinzNHp4v3HzbzK4uKZMnOFEBhis/UNkLDVbYonHgfsZM4Mb3gBG+B6pH9CirwvBoHve/LrXOO2ZF5M7IrDDtrp4TUzlj8bPB0eZzH+PXSUXYJvBf5cOe5PWKuV4Ztv/7X61qwl2qTdnKaMKL61pla+PD544+vv2LmbfcdQYwQHV/yCbvcbJ94udF+/k0sM7F2DL385uHZ1JA114zfxOZJ6YW7y86wGFcPQ3ylHhm9IuHbbxtp2qCE3dQnF7XIXhSmHLLOxBLNJ0TIyQy2KyUFWwoRZ2VRv9VsgRi1nQEvM+ruHkjRoTnf8XF6KWftOECGKnU04UCNFuHbH22cxc1QNDlwzGlFVrcOopMmiZ9naavUp8L8f9BtlIayiHUyoWPPmpOYX/Ols6izLPhHnN85lNxdUirjwiuo5h3Bcr8z82vtJcLyb344hhG/+l0M8hbEgbshkqTECPyR1BHtsRv7XQ7giBeTXE//SL9wAaR8JbHGmAr+gBwN/q4LLcEY4onBiMwQuxcNqNaxciJdYq2dR+uBt/BGtrnTc3GxJCTObRYv2XUc0y7fAWYawCH5/rfeoawEj2D4czIBRuBE9GDDRIzC8yCQXcI+y3H+YnZ1NUZJh7loaJqExOx4kTluqmbPSzAB64tPSF18eWNa9dZ+jQLGAyOYB3rAwzf1BWKCB8wDekFHVIrdHHbzb56OG5P18yl0iR8LMy6sujcYmDXhp+WBDea1dYf9vUXj4bOYyPjb6JYZIbHAg+Nm4P334ah/L5FRU4bVGptrSDzb/QjXPlOtv4BzfQGpZl5ABqw6uL/iApZMWyL93pB7I5rRSQRSOXOk5/BrTwCOg9eORM/Xz1l75ZliWND4LUfPlHkPKfv6D6wX+bzUyrSTsIfcn0KwhdYRUZsEtKN6Qm2l72uVvhtKZzeoekvfFIMPGmKcjZhL1P24+rHR43m/gwU/6JncMSIRb515HQsY+ZiqI90Mm0VdVEDxx2LBhAwYMoNnvmiWb1JMW0WyJp7Rm3YoIws03+8YcdS7xmRERyzIhINwevVmMHraMmC4Eba1UNEQOj8Z1bwNBeamLIs8ail4ReTiSrON7coUebyqjqPB4tcisafuzWfiDuzWqX+D1f+Pb0T68UkIdsnkBqvaixGOzIEq9TZZt4MxDsKu9GTzArX7jIDaET3Tp8zBw36aiktw/Fu36ekBMhx7JnXrt+qjP6U/7ga+83nsURYhwBs73GZ4//g++XFmhEOLlez+Mq/htISTONQzXYV4dBR8cm5+w9sAPPijCHLnChBeXoQ3kKB+8zT8mPCl+GDaZ9ltiDSoaNPVar1Hk5jK7DDzxab/YjkwKlum3khZofMeAk2Hjsz8bSG50a0IySS6cz7wOy864NUnDkIa0O1HKXDUr3LI5AfnED5xqPlgg6eFKA+5mhG/AZFn75lqxrmPneXOJDcOzGk1oQY/hXgMNak1yGlHqV3orGjohBmQ5PsYXjNwQo11NreLXWhhCVmkypW4yG5wPImaX5glcYX9N3GON4j1lgkahlmGz/DHVNdRKpi0Z72Fj07yRErZl1xHK1XDSod+YlK7fU/9ze/seNLId095//7++xzkxWKh+sESDL309hPQ2aMVe/npI2cjZuilLq39fTIJl4BOtWxLhU7uOnGHVTy0XoWQtlLcpfdc2vCGv1a7YCmGgzKtBEHkcePx3P1Qsa89gOp16Ig1Gu56MBgNnwlM79brYBSMpki7r16/f6NGjGcV/au2KrQRw101CQhrwhnWrIpDoISpNuHbbp/dUba7XppAkN0X9m/KGmhVbUc+MYSqpf4JF0kFTvVyTjOEVyRpY1g+fCBmVL+R5OWitq57elR4gb6jiDVtuN78dg9rzrLVKGzb86DrbPBcp7HYWiWrIxgQbcCnmNAPedoG/8FyEkCZXGET1m4I3FA6cCFfT6c8GxDLRuximP57QjrHRfNSL2JpP/+cnWqWZEiSbcRQGPRo0VTdjObGfEJwD3KJpfSyJnCD/Htavq3n1E+Jcddto5X3wz/zZW4XXAkchWwYLwvFBt9CUjsj/A19J0v8h83AyGxdNZrTD4CVxHuBf32f+FSPPlkCEeDHrBi078+rthlkraqaFa+asgm9F1h0VfZx+N7vreUTIj5Qb8Rt9MzW3wtDJhC7CgVC83rBIr1sV4SXiyzgiUxkScZ5tW7J3htcqUz1HHpWu4SNYlDy55VY+6a/srrx/QtOiiPramuTL8uaDobEoXEPhocsrDKBR8nTvEQdgF5VTbAj3rjezKbuPnsv6T1BS50AUSu3gn9I+IFki+kYKazYbmtihZ/Z/2EXKGn3woCBgpOaPFVgY3ZZcu2RT1czlOPXwv9XGDbHIIQDZGHxMmmJgSuXoCuE6sjgUb9hMsfnmd2OoN5/TLWTPv/qyGDAgrVMgsSpxkivGLpfAwJyJnXqRiiO5wvHjx5eVldkT95glEkOZc5hLykWkOhL3+PJesJdCI6IVBk7IXs7Uy95ML+XSN0NgebGoMJgkrpDC58TFxuvV4ZCx1tKcMnpGLhPa4AOI9Yz/rHSIqUqxSrAq3rDlpmdgFJ4jdyXq5iBVQ9RXE6+spW8KNTPl0ZTtPohG1di40jcTSOF6KW+soXe636jo9j2i23E1N7rukiW+WyaS1+PQv3/MlGLDO/3H122I8Sxkg5dHMTyGrMQc+dAZNs5g4MBJcOvIs2lsK4jXD/7JP261q6cty2Kg6ySJNFvmPfVUL4ONCyP5j3qFb9hEY3YbNmzgfsAtOM/n1lfWZPo/InqBSOpZpU9vxmDBhjKiDqs5MgAWZdHrFxQV8m8SdIM4kQjGBYmzl91bU22WKACIVBnuXRleOFGQF4CNndRn+qyhrHi0Jjc/X552u5C+IMQ5QGTUFQuIT0fN8uW1tugdRNJORIe4Q8emN8/8WudmA1E0lKLFLQ0eV+nexElwOd0pXfoysnp+xfFsjDxj+16kFJjQKSCrS1D+fweXTPwTYUOUqUSlsepNMmHLcYnG7MA5bgObqCmr5gBycoh6U1tZGB/84+/AsudoXsDweCbPmtYZZXpS/58/0WCkyF9Sx94J7ZBIMu7HIcOHD+cacg2qZkaUlEveI9OHyGCU52Mu74mDUxDuPBAInsIFzDA8dNlfc3hVG5mMagdd+ZQOn8AJmeT1arSxy8lzN3Yd9aZZrnfyS4iq7+DQwTlKY/8u0dVK6BjanF3tMYxG2QghD/vWzb5jfPI1B09DYEihPTgOEpASmyUTgl2t0sGBDThBX8ZYXt4IIZvq1DmmGd8juWMvTp4kcfojyeOHXOQkuoP/1QHjYQu3RdZDyvl9bLpw4ZLr8rX6ASrEeGk5P6MEnGwT/ZPW4g3BHqzZCnFffEeus05SKvB9gBMkqQqkBmKC1mlf/eRwNFmDEK7eoq1YHunF6mFkquAjaEtr5iAVhlBhkGyjqH/NHF/F4+diHcovOK97KNHfQnRcMW2Jl4/DZKMlTsNUSky8TzXozLxcWFbNHSKsxToFadjywJB/WT//gT2Ergisw5tf0KX/DhbtzaNe4LuTNXz4Nwjr8OrN5t4b05snShGU8dHzadE34E/urt/G+sj8+iI6PiKe4Zfeh1ieiungf2/tNnfeVUdMBn0iXr1hxVDBY+IQ4YSQkUB2RTqo1IpUm9vQ2mgV3vDq7MWEpyFOMOKC5uLC7ThXfkI7lBOQVZOayE8EHF6mvgoCvtJ4k8vr5MbzZnYzag2zVHdTE1rl9QZW9/v/miW1krFC/3lYbtdQxw4v+a/7+Hk+nsxuVhJ+0em9HFRt4l08qntSsu9U4sFXNc3yLVytm82SY7LcLcR5Oqv5V5ZVEt4Qc2Sm34BxvVe510ZWbRMrTAQaleWw3bbXv7FdmxeegI3jAOJdZ2plvbl0Krv64EpM+CgwtkPPS38scqbsJ5EyKt2QW2z8cSAjRpSrkVHJGThhl6FW8YYvZwXL1rHYMMBTZD1J2qx4bNiOCTT7fd9Mwnv0PDEpwbdF0mWs1nbEt7ABdmZKT2rkhYhfrem17W+QU1DCBffkEJEdoKs3sgZRtO84gH1kVgClywlR/l6yMpHDrZFEvhrfeSXriSv2yua+kEdfFrX+c7rjtHLVoo3Nv9AtkDqK3AHDdbjnWLMvxFkAyDQJ+iqDpd4ACeCtJetQ37wjhIGBVJKi2lS9Ss+HyLYZ3e6bG9P+4sqosenEhEIFnMakD0XlFM/ynjLrRrrdguINXzJT3hLD+H8CEhgFdKr03XDJalbFIN7NA983xyNS/EyG19jYWoQ9DVEpOoNPb0XvrG/Oymvx9Q3PW1L2kDfk1xhDsUG06P3C2M5prnE8mXTlvaI0LOw9M4ZXzpuEpXeT4stew+7lFnK/HJT7RSixPZNkxdPhM315rX3nIa5jQxEiBPgxO31YIg5Jb15CHcJ3+gYo2Z/EpuBF194/tV2ArNeYKskE4uN2jIemU8DjP8Ix5aeric13YSG7IVqDsU5o+DYsU4W+RSb5d8cbOqtr4hgxYlLnQPKGaR77FYmvY/OrQ8/zY6c3ezRbfAYRh5hZ5wFhUFHprtM+9VJw/qTc0GBEj8o3r2lvrpi2hBIucoWZXXDA5pFX4jxdDYa3UVxviJM15BV4eSasuUo24gr3z4ycPFkRyXtdW3XY5ExWMaRxcniQ//UQn+LKi/m0mcl9MFiTgqm5XQojfa1YWSsN57GlqH39Eyn2J8WkUyYDOYi4XhZCSGpPrFwBhlVRKMKxNdkayedqUAvwaUmjKIQ7QdZ75BeO3aF4w5bYwaDRRBq+46PeVC7kETvrdsV/6I90+R8FVh853fwqzL4iN79kfAOqj/r4Vipr6x0iF3XUvy7JHri06qNCJkWW2y20JjLZS1RScEsuWoM3p3q8d1koCF1ZvYbk8XgN265Q17weU89bQ/QN2X44V058NoI3VvbGVvSMcmSrpN+A2aUv8+/qWkanVM7HlhkX0Zv4aEeCx8YyFkKKDbnsJ+tbwo/x7TBA2RcQZmfQLhyTlzw7jtZ4gF4xVqCy0mMOGseLSN32AF6txRuqDx4jb5jYgUOvqaaLO1WHXsSSv+PrAT4dq85IkhTUy5PLiM0PivJQy4xQGzk2JOpD7etxLkiT1z2Ux4YM0JvXPcwrA6P7+HlK8+1ShoItvOeqMPhzhZ5n9BDD3i/C8FBlUhheX5e59hzLYfB4mswjDEDt+pjmX2m1yqTlFBvCN+g+n+vDCrRQBw+plXAdslbeG/hoFwOGYmzYCSdPUjxw1wS1iWNSyA8mL6D+CW+esOa4q5G2gcFGb5VfOOgNTcgvp3jDFtuxgWPgu4kmDHZ7TJZ3dO6Nk0OdeiGrdseeN/uN83UF7z9JbQca76W5FMEHlR+R1b8FqtrI8hTgZYoqXkNucuwckVPIdUPwhpebSLsciXto/VEBGzMUb0VDDFopgCWkJGQrReUunSKE8vrMUEtEfjSuS3F96YQFPpWA0g7KXBs4nwd7804fBEXNbmn5qXjdA3583dRe7hMXwctnfNQnviOiNXAitj22LtEPtutByjAnQn8h4glOHcLCQwQ2NMpR1NQBL5N8N6TM1W2rf9LqvKGjtm7Xt4MJahPNWDTimK5CPCspnvy0X27X0GaIrOWI6cFjnBJlUSGnIPatoyfV7My0M/NKNuahBtH8qkUQ7cptxPVNjBXYTvELeho2xcv7N5lYTzxVlirHgbwsb9681s5ayfV6GnhvUCLD12l3+o/HoL4rpxdBlvJvfcJgc9KNiDRZMQqWZfM0f06BN8Rk0agy3WtHjxaPR8rRrC5BOz9BBeC49pw1Kp5dd/EfB6b2GGjZc9QirUBSAURgQ8r+BvuxxS0DrdEVFrFueJmqLX7RH7Sqd1N97Mzxn3+P+xhFNeM/CeT6tp17Hf70R/Id2qWbfTqQze6I2SkLzFN4D7/xlW8SvEmFgfO/svllfFzzqg2y0gnzSe0gl3Ft0id69vtCb0v1GRI0SBmWNYqhJm8XenlmjQ0rhnIQQcOtRoviwl6n42BcxdhI6cYJXbI/D/WF2ku4cY9m14ju0M7gKWJVtQ+VI9Qvo8o1OpdKo6B9nWQ2bovlcs9hpA567rMBOz/uAwlZPNNKpVvG1wMebI11JOy20QiDJPACH8Sdd7XhxeLC91lUzknkKHqwuBVv+HrMXPjoWfKuC6HjT3b56Rwp9XTF+lpW95Ar3wwTXT6daPf5HDZWyas21A5rRhXA08DFIHEDkxh9WMJnA17NkFG9K+fLY3OvWIRyHj/v5SrKuoqt8LgMaogTWsht9PIGeK39YQmfDGUTykrR8PVaXWw6TaTIjIewGi3ehLoam8kMqSWh82Tgl3D5evMvRPoGninzQQD164RM6SOSCN3FZPDCmLZl2Kl/9b8ye/H91ZurT7GyYIWaoIVUv6YgFxaky+xREHSxK6USrw4KY1ndsK1K8XzQat8ZeK5siXAcR9m6hxHTpONUpm/Zbg1BAWR9JfhqnT7CsHE5mhhaRc2JiAlWamq5myGyBgoxYOXBpZX7BYqiiDVegJCQ1LNxGpLXYOFhshfctRN5ajU0ocwdIvYfFdz1aw8Oy2SWclSzYZR/5VOX+PJSa9xOTDZj0wlFD2G+wwdqL5vZyQls5Po1eJzXN1xEuX8mIwzN8wsmzd4HDYs2rjNZ5ghM7TmwIQK5NZ/rn9gxiwI/iORjZbyL8uZF1t47bwj2MPh34gEkQiEk3ewWov1ro48vt2UcJsCXTDqEMGxf8hRk08K5FFyCCJ5SIb0NPFC3PAM1xaSTLAx8Cj6F0jX4Ydhkb39bgGVnk6STKdN3HT3n5ZlGNytga+sjCLh4dGbFfb12u97nZ4zlGV057dD3+v3qywtdR85Yo4iekgpwKY7t6c2OeuI+J/VPsFdbWIxL0fx6Yn7X5WskdE5ygNl+nNy/tiF1oz39IAWD9OZpNTaeP0EZaGR7EmQABtyb3Yo3fP1mikgh8qs8Py5JAwvxbtBEX8Oxm1i1sbEcmRixINp3n8n29c9XmbigKG8uY9riaun+XDrhz5zuGNtCSEifBR5XzFru5akqtdwQl6nkvY9aV7D194wpNJJDBM9oUhrKr99Kf5lLRUNpSg9bYV6IJr2lOIwCK13uQsC9T1syEW4yKUfMS+BBzeuJuYrGz4VFSLT+pDSPckOBIxvl+ETNwGqFaVT3dKY26J+IdjfB/lGzm7V6BAbAaF4BRvGGLckuLdZLXw1GWYYuQeRB4Hape5jX7NLLy92CI2YnIlSkUV/InW3R6b72UqhZRmg+mSyrpWI3hf0nUOKfx7KSPITyBpl37PcSGmZeplE8Qrra2D1SlnktbhIPI7snoSunQtbwBsy8MT6TeHlZwTevO/oR+4Hmc15RW0PIeaukDYCqtld9qF9rTPUjAMRk/vB1KJfVGPKZwgm7mnD4mpi9i8c3UK+FoEGWP8VCDRv5F+49aFh9tEvMY2w0nlajug2PhH7Qyt9f+ZQleQyuDEkKKTKDE9FviPHx5e5zufKGzLmVIlOblfr22J89SodUoWsZhWqdiaqfJM5LPhF+IxaVPf9cx74TbDw+VZ5vtcfv8vLRXJJIHtNQRvjr/SLUhlZc1xswd/51KhpmscovsXtVzVvb/JYMX2hMBhtoS5epiB2Hmx+pYhhsBhUA/1IpkVe+8hCAPiIpl4nWEsMmgl5ZstKINwTCQHmaC3mhmENvNH/C0YXEBKriBDaiza14wze2Ci/kgR8kMArp1MCDwgG+JsuQkkhZJ2fDRumG3Ud9fbnBhlUbxqrPYV/wfVtfOhGwpO4DP4jXEisXUmf5au9R3sOQ2HR6z/UD/15x1xYmkscGBznXDqzIaqVo+Kbsqv9w7g2JwcEv6IHXsu/z39Te43YpMOT07L7QN1jt1BzjHFkIrTeJhldt1z4Mm0wdZMyRWXgIPz4KbfhBJKVG8t0EOXQ3Aj/o3TwwZHT/nGMY3qRbULzhG7Rb/cbRNBv28thsL+xsbt8GS3CXSz9MLIEy6SaEXd5ZAp/3xdi0rZaAh7V8blRjeNmPUDFrOXVOKMjF5nK3kMcjZnh5qq6GlTixykl0cmbIUHK9kjW4JBa8MtbtYcC0OmU8+U3Z46HTcphsA4WHuV1D8/872JcamcAG5+VxDkZKlC42V3NEp1JOuPpqGUz6iqwwwsMnNFxYT1PGioZ12xpMyjsOnKRgkN42ld0bK2qozTIckoMuwBUa2jbQtQ14Q93qSD4DwKY4KLaqmLrY1xVQcMsmob3IIcID5zmfeynqWmkoRcv02hnD/ktugBBEUFRIChv0WXQR3tTXbtyVItnUeuW/Ro08MggDMU2WKENQF0Ul2hRv+KZMu2gjgWxwY2ZgL9ie3RcvNf/K0nLCz3NJAEbDIXrF0jdeezYOn2J0h0x/TvsqH6Fo/NwsthOzqdAwUnq52ufnhlUdIyEZHFIrHP14I7U1u5uL4TGsK0+b4Mc2XrP+oC0sQ13uF2HIHdItlO/MXYMvfzXYbfKtXmt3YFMiQpKdY9NRtth0XxmtDSZWMTRy4RGqJNa+nNPJlvigKEemK8p15YaXaPToORbAsmsmJoMAX97JGlCxoJp7akLAKmQNb7RocyqTJL0oqqJdTbN8S/P7sVuwevB6oS52ZJrbF9hsLQv/yw310Hq4f4Wv+GZvjhMisUbqpTz9dV6DXOp0Fm7DEfWFGlyBl643emMyHTJ3iOAKNW2+SvNBm3iXRaP/AG9I8BSuutk9rDY6zddk+fh5YmOXRTgRs/LAt16KIPIaNktLsYsC91UvkRHYj52DIALnT6TqNdya4sizJu2VMZKcPn63t/Fqu4srneKKrOYTUZo6xWe9QbPbLzGAHgmKEvareNQfPpUOdx8j1l65NWFL3evDTlxH3rB+CL2ovMXhP6TDHPEqiZTRsLz4pAFTIUmt0fCMnN031D8R+fthMo286w1RgtmueMO3si0fPZ/TLYRrOXYPzWQ1xAehv/v6+tJyKh0SDJv39Q6e9PXlegdv10K2IlM52H3tpehWRWCtkC6hrlyk/OEgL2QNoslMnUes2jCVtSbJGgxmefiElbEZs6Fe4bt+s1YYNIn7EfYlwreZ7z/MpwV84ZItsl5+k/DYzdLSIA0MJSUysBnua1voDR+FTSF2YcIz0CBAI/y/cO8B0iRLJRqSFXKfbKgDY2UCjSoGqWGbMRtjNbjbPprhg7byRm98O5qKvjIzINz7jpWxJuwmrkACfNlY1uwLehbNJhDCpgHpoc8jH0UjZ5MfJ+ZknIjyCyqbt8rLU0vK5dCV3icWDYtKvVUP+ByrVFEqxxVpVvLkN2uVs5dzQRtpWhQconCn+QogJCIUZ9F8HvUlfMpO1EaZBFuKEMtb8M7hb5GoCy/Bdw+hCNHQsH9iP3jSwpJ6JDphfA0oE3r3YcO1Z6pPlahmXaZr6/2TNuYN1Yv/phwzhwFfCYytnr3c19Vw6TpsekTCIe/Sbq+9Wq+mquVSFeiAyphahcrHCs7lrwfn+fFyJ11FsCghffbyJrOuIPU/6ylznbyoNO8aVdRKlhkYiYFdwV2/YbOk7Uc2NtYNI2wDfJumbcnNx4Y2N2uepNEIAOUoQma+D3mJCwkRGMxL0lmuaYGIY+mE+RAJ5jD0OOJeGeK1oE8DjBekw7Tk+GwyI2RsxN+FsuNMRo15w2quPFFa7XIIijd8i1ZWCVEViXwT+wvcLkGe4luA7ra72ZQbZKAcWI+CsN5QzU0sSjNNv9XHhpAs+MLu+6SECkw0w0DvHBaiV8oj1+5jNqboQmBdvE/0QtaAuB/WzOEENgSCfS2DCoq9eBVpdTJiNK8L39uKJszz5bXO5L0ysIFSE+8V4UZmdMsjADwKK6ttwbjRtd6jaOaE0fBwpcYnvzacP8kt4OgLD7IG4ULDprnBxcMCInkqN2ARqVz3bny/H7Sh9/pw+DQKD4kJhpjmvCoRe1+OGUfkaWVSW0YW3+Iy36IChBRwunNWOmSD9M2zxVgOnsTd+POwLIk2GXx6Yf8JXgJDt0AijVSvsW5JhBXpOnLGW3nRjQuROoxybKiQNbwVKwgYgb2IbiGYJrP5qJt9fWN+PXGBOMwR0sBu4HREH5hfuTo2FYhJmdP4ciURXURS7peDsrvSWCHXM4DfiI8b7KCw9XqMKvAUSqyrX+Ruh4OmnuphhmWM28nqVLzhW89TUvexIfOBckcP1iW4SF839gt5JLLMm8vUsfXqbry5Kl6+qU9OkX9faC5BqF4bSQRQtBBRqrx7aMn0xd6ScY0nuwSSnUSkibe81KRsWjsECBKRhJpL89QpRcO3YYWDpmRyWrZQ5GRj0ZZbrWl+Cd24S9wHtPCIq00s9aEICGmpxOPL+3gvKaH3kMFdJQnvYGIMedSoCVlUygeTJaZry/OKtRZn/fonRgksINa+M7iutuQNYSO91mM4J/hiFJWYL38e4qv8U3EZ7yZHcUwp7oHbU0Wrb6zC1TbOLE3zUrQg9M1EZOWzlxNHCGFrsiieTT3g5WrJLSBPTeV2IvLyPrFARUxZMYOK2UrR8K1YxZQlJAbACoiYdeZ0CbalHfAhQqshokO71EiBe3fW5eZfiB0zKQ+oNApldWK5/iXe8eMioiDjHMN+SKwJ94aG4H/38fMWSdtPpgRt3KVU6xus/0qGcjW8O4D/D9rW21X9sQL25AtMX4lKhxB5aRf5xnjodNqikFCamOZkIljh6m2fXm50y7si7+Ei5tn84l7Kg8FTiDSJtmWCvDZCePE8Zd8JyE1skjwegmxidnhPndQmTrFJ4SGpRCn2Vky/JgrrHoiix68S82W/oGezlvnyWhv18bYlk9YShP/uw2d9WXhyfYZVSBh9lsvXza9k/LzcrpxETnaF+d8M9Rx5FkwWBuqqJwpBYtq4BsPU2CepNPI3QBhDxP9r3O/QNtzGvCFsVpSeEHCP4WyCbn43xsdXu46dpz1ZZsNG77PjoK9/vdKAtwoDlksqTTQd/OIizs0+YxjHdRhRNkAocfvb0V6f6YjbJQOAkAAqMs3uje9LtNg4AM3zpla84Vsy64GTyHTQNZR6ylSMuzdwgk/bccYRatRSmwKjsO3Nz0Q57W7kayg3sD3YwBeez8Ij1/v8nC1hdWkUCvx46YT5DfKSgltyBckSweXJnI3ITQw2STzeIzfSvFPV6g/a3Du+/cMvEPlTkIVkRKyGaD90yqcXl1UiuJQz7Kfy8DAiVSxX+/RyjQ3VRGlvLDdiIwVWZ1XTEyA1eiwUMkiN3E1+PHKml2caTIS45qg0hs51eq1pqhgpvLw/s/DQYVTGk9+SCU+KYW/jw+bMFeJu92UYUs40uxkfPSsXrClZxtKhD2pTosqKzYpKaTYUHqh8onC3HDxJHbzsrnywFd4tpFaNtCftiXvYHszfEvlE4cZdj4+NoQBT8uMqz4j4gbVndCve8J+08qmLKVXhCD7WZX46Zo6v4WH6YSTZZ2Q2BCNwRKW7z+X69GJGssTyBRYeUqcPlkgTyQKEoqhv1YWznsBVBJeQ1utk661CIgQllh1KVYQ8b3BIlYEDayhTLmKEY3bFG749u/zVYIIxs0yZsyt5BZA29qS5BRT+8+I1K4x4bZQ1NthxkclGat9VmUS1T1OY2r828pq1X9BF1jwBb3i3kYaBSgMhQn1Gwi4KBLp6dJNFqwNnUqlWyBt3WEB0v1vF6rbnDeuSd0s82JKX6RJ86ctBPu2xqNZ0A9krSXJe5nGIThd8LH9oTMSPwL0hzidBeFjj9bnP5q8hMBC1IElurQmyhvPyyKAsAOBdMpSaJ+VGz7H5tsu93hbt0bDpXFDUA7BStXC9D68shm+WyMw5kWpUGgSMzb9QZxHuPySoDce1lBtFHxbsg9DJPDZkc3jgu+FBo/kTEn22RKTIyi2op9aI9B8yYsIYegrV6t81UFfb84buGkNetzASuKkXu/ELql4T5dPrHYIMZKEuCnlGEUItX8zMpJalZi4vbzfBfv4g9Hc+vyWpkl/5eqj3N5W4x8ZwuTTYbyEKPF3jaqDb7ubYV0YNzwpJ1e9Y7ab1W9WijWw/DibiaCJMfThkqg9OTU+pKLlCQmI7EnY3/0KDGdORSqZLx8dDVc2qZgsPn2SyHJnoQmgRgk9sIKRhscr0ThQZYGC4JdGzm+x0uOtdYSXr4JXVYRDwzmUkH7TFN/1wxHRMVbpgl5YERuArv91vnK/J8uGzWJij7GBrMo3rufb7Vnl0i0gYU1ROito8ab3zwGX1UkC5/PWQ7G4hJD6J8LSuod5F8qwOzhQv0SiRkIv7+TzEYCFaTZYmq3ikoFe84Vs1x9nsTD9C2PD6Nfx46avBzcdqTqedg//rmaUhU/E+fNlghbgZybmhXp8H+8uqF7+odmsSB9YwohPcmLuGNtI/Ee4UylwSEhcyw9Z4viWcP5Hg1uVGPpmqegcpQtqkN7RmHKask7ZowtnAj97pXp7fM58UU1pqp5EA2qIj0ty+5dpijUVmTKgHuDxHwS9cvU3s/7yA7YfSQqoF67y/n22chtYszVB7l37WmaXiUTVnh4eMyajgrt+u2R25X4RlSpgVylFQQu9S87LxSO0lzXtwvqyIlOZ5HxwCZ4upMnGYC6y65vSY7v04Ppt5bUIaEkq3UWLO5088hQq2JTcQTYYtGf5cWS0R1WB3m2iP38VV90Ebfd83eo/K6s5JpCk8hAdPf5vv48st8bsoQeZUbqxo4j5/ybeLwSXv0px/vxxplxrNpWhWbGUESsFU4szpgqVDZyNxCYoYzucSsIbeDJWxG8t4k6EECtNCUZmos4w3pYPy1u1x2BQE8ZGUKAu+YNszro1uPrU4n0veR975YD9utomHCwuXHCOMIYwXbsPaF6BzwDWzpETStOqKcuQ3ezekuVZpPNc/vR+kTarwgFhYHDKwht8Ykdc7ySvcVr2h6n+rCH0NHocXR7qGXPnvEB9JulxZ+fXaAAS+j0hxJuwRfeyRVeq5EARiUBni4TlRiKKRsz1FGrNZI8Wr9qnrwCm7xK9JPUcvYwBcpEVTD6xhhSRRZVR809u3yv+tIj9I97j8ugSX+AJseFxEiFd5AA5yZ+vO5hGvwsMiDAYl8D9nw7Y6mnp+6bi5fGDGj9NMZD8nPuE+lSnrn8gdxcZEIVUGGchVP42ns7yTX2tb9YbiszKEfXUJIolb3APZuqyNSPHp5YZa+euXWmlM9vvBU59eXuviXRQZ/4xwML3nU673+ZnwaFlS9RoyF2/RgmCNRPVxPjXIykneBZTNrJhdJHEsMgYRTJ0Ue+vmyjhCaTIxcSB9Q5fgW71H+5CVWGS8oZwpI59Ns4xYBhfNfnAgAVXu6prAEtQZL30zJE8ayCNYLizCBjQNVjsiWyPTPNc/thM9tmGX3S7ANi+T6FBRCLJmq1vxhq3LngydkS21zLIpFe0aWhg0yceXo2xxdLpcp+OqZvtO+HY1CJw3ATOIapyrh5UKC9Qk7dVPSnIY+p/r5LFcvmTmUm9Rroam8WweIlbWuAwvb1jv5OhC+ZKAe4Ws4R8xRu2VJSUlORK7l/ikuPlCC4M6y5kydcyEZl9oIil3PSk48pq1xjt9gzl2J6uqB+fIQi5+QU8a9k/A6xHjp+f6R9KaRv0TKk97ov2172zXrg17Q0dMRh4NYGJ5OJS+cgT0Xb/jy8uFB495PZvgDhHcJXlNZr2YzsEALjUYFZYZuWes4TU88479MhySuGlhXVrTD3h5G9lXsJss5ylRmLN4Z9ZR1XKaaxIMwmJlDWJuFPsn7PaP4yDmIpANNfHAG1q372i+dHgq03MEk3JVd1ZzzK8usf7bJ68EC0/tnXDk/sCJqB3ECA0lIq9g58mLns+xJu+xeqx/coiNwY8qI4lMYHGcGI4rDKLeqHjD1md2x6Wvh1B4SCEYfevqWSt88oZutyNmJ+k6miMQhQ9bJfKeZ+X79NdNDAJWpmuwQOHGYDEV05fJKigE9YK8XnxS6rVoSJcEct5JpUzh2t3n3q7IBBtVvG/DZ+arW0CDrNhrsbLfFmazrQ7bKd1CLnRHpYdnvy/0wY8WkgeEJWeTKteuPT4wv6rMOPgkZwZl1e4yvev5qYEnpQQt5Iw1jCO5Ec21WKEmNEWj9S9W1vdPkFMWlhytOsJOqHDNv8O6jB+06XdfOXUJa9py9Si6Xes53Ed6K+HCJRaOpRN9Fm8x+06IDYtDZeLKYXcecFgsS13v/TheHhwkDNDNPmOaiHB32gn+yvCGVMcUq56bQrW6WG6uqpdngU27WkEa/mNm2b6DmCuxS9Y9jEY+fAK91plIIdbKSLAJ7GXZntZ8B6/GVr/1Shuw09TYOT2bOB8cNF4LXTgpcp5fsBFSYM/49Ew2kQqbJc4kHEZIaijjV8dyc5W5PhStMAga2zv8nbZtbyjk32S92jCaVoachap1xqTdvrzcrdVZ6nvKqTK9jXdhpuet1o6rk00ISLDYMkwuagyE+CGALtWVvJM1aHW4LUdJVUu2LpFF4nljDOyNLwaDAq755+xxEXhAAtVT7I+bX/cQ0VDb7EutselyaCZrFouq5ihjDe569DWV85DzvHFb+VrvUbgTd6mPDbF/4kEi5zYaKTgllCvOJrMykfvytQYHUjPxUmrXVBLk0ODJA6Z4w1Zn9wZOrBdLYaAq1Of0ZUyKQrOMw3ZJps4mFVBcB0/79GKEvGghYRE9BvXgN669xxm/ZrA8ypr35SD9qggv3vzeA/q7VE3H2k1chuOAN2lTCAOpUePZ3VPIGv5Ru95r5AUP8kouTdGICMtrDfDwWeLBxgAtOt3GEgLh0rVmNm9UaCpvoCZK2atnPBe9I1uai6fZZLgvfq5/QmUZegPy+vcUTcY5KII3VjA/SHhv7TsOYGjz3tD4d7ysmU2cRdndEFLglVHViz+6foePKksEX5wxweIbokptYOQiKh61gbeq0FdOXoyjMl24Cgr1UrwOKriOnpVkKFKIGh7ZZ71O1EjXAC8awo9VZkHpoPyjVjT6DyIoymQtCwKWVs5Z2bw3vHxNHpannAD3YF+YX8uNnLtBhhYgELo+x34YOpkgNRQcUF/R2ZBfx5G4R0baypOg7qMNOXgsjnp2hmIVlYPe+VykzXtDsc6Y/9/BxCFITTRaAZXz1/r0crdgjdkpN9esEdLiyL/u08stbmkuRSUFbtV3f5oAybsn1Cv/a+8a5PbEPfAXrdIYAOG/ns/TEXddZsQiujyxjwhYBWn4D5t+TRRqcnbhUBuqET8Mmdz8K6uqZTwDd4vw7cfs9OGFNj4NQuwJ9x9iDitnr09KKW0nfEUWiw2v9Wk4f1Kh9kTVEI7C9lx1SChR1YNbUagPp63cbkHxhq3dSib8WQ9kYSOZsEYLeo308eXuU1lUNKxX8NmW3EhGtsnQErfrWmJPYITAKogN874cTLIt6JdZs/v+IG9XiMlslsalKVXhCctza86tN3LqMA+NKkGvsHj9wybkFWQx7BQfN2LhWP4Xg32h6XdEpRGZoFVSc0cZHF1Nc3u/kzV51fWS8xiy8TwGMmIaRiCM4UUmmGGKbYBddZ24IKsD8Qn9qPRG/F24+0rkXYzY2CCqzeiI33V7F7yh+0w2DaVDeHiJ6ToSqsAn1IKI+GfaLfnUutRUaTCt+YK/rtF76KWUOXceymNocD4kw27qeWu8JVqlsBDlgQT+d3d6E0TVMFdYWk2K8jxCVMgaWoERTRERc9AkHISKzrNZzSfLe44RWwzFhnbWX25AN+3VrC4+Mkyt3lIt7sESpdv1Pj8TETIyrrOFl+0X3ADX5XRaYtMRSSZRcJN6n/tUZsOg11S/6RLMu0LvsrgVb9g27FbfMVK2wpD3bE6geNQfPr7ckbSXsgarxHkJa9R94qIvr2WyFQYcYGLgLN3SzUT3RLwmJEnhlazBfT7HLnEsyi4YPLu3ahGbe2FNPawbwoNK8IUK0vCft0dDp3E23y9C5UFM7dJNzceVWfmynq08ttzYK3lNRioMvIqHfV4dT5zdoj4ymQQn5PUPDvpBaMOk5P5jjqdhTtAiqfd5TvdjOoxENdUSsWsl/omGysuKN2zVplm+Jc8vmPiLZNHYnG4hog9CtyIjxOYuKapeUtYWtcNXQmy1ibmqGlimT4dMJ5AX183oEpzbNdSrpo/jwEk+rBqXIbPXPE/W4CSG1wrGXAJ/gqgiFLKG1mGqBWtlKl/SLEap4uHTm39lUSmut1hOwU8rwZm8t/kXas3IEiJ3lpmAlGi0kGgyqU1QgxveTCMGOde+EzLAkFMdb0tx7mrIHWd1o7f1nP4sM77D8yfvoDcUq6pzvuBTeryV1hVLyN5FSJ43u8MiVQwxfdiaTKMCQsEtn8JDk5tv18Xq6wEjGNl1MLuhW7zf/1evryJ0BaXJMreYl8qRwYTxoMoqgXgwWRZrbIonag1mP3w6SyKXZiKOiEDM7zHMh3zEQbI8nrzTSHjerNqUlu2L5Uaak8NM9plRyL7CxuFZSOgXIq9/2yEPrJjewENC0qclKYLI1OdEk8243qg3KIk4i25B8YZtyZ6O/oOiQioaEikxZNC+Fh+Pn+dgF4nMo0nKVW/5CxfNOX6RNRmRo4Egh0jWMH2xl5dUqBDwxaLC+llRr11FvZlPAhDmiwSq6pQWSitxh+7sz0OJOIvSZPrem68Awiaafri+oSzB74UHj5t5GeQZjE+T0a9y2sFno/6g0rlcNIfHiGQw10MIXScumCPrJ6NpNr9R/8RlF3g1hsCGBGDQO96TL/ODd+nDaBeul/H3xEiMQtpfD/WRiEHILaC2Bq7O6HQ2Q8oEpHzcGLWmRwN+Qy/sQSFxqaf3MMEcmy4N5NVXjrxMI9hdpFYqPijiWAe4BtQWxQu1HgOHQmkphYcE9LvRhGp2g/VmstC+i9++RMSPZG7Nan5VW1gvhc0mlVnvDZhQz6bDhuJh/d/p34A+znXgFLLGRfMWCmTo8CP8snGOXGlCjhysRdawCNQgVunen6/ynfKGYlFpfSOFZQ2kFqDfGOvTy+toYilFHtQjMgXx7kOfXo7T8sFyKR3lJbsE3xzgjdNQb6D9WS4Y0SXh5ZkGC80DYOsQUWaMLKdWGUFpTabWEJyFIIe05JDdyweRbnvCbrlw7Ihh99HpYml5My8zudm+aMBW77HzEI2yVnI9q2tmQ2JXoc4E7s8u0zTQiMHzRWrIkR+XYT9QxQafyhmMwSko3rCt2sMhU1FFDwdIw3KI7bJL8L2fJvj4ctf+k56yFVaGAnP6htRxHz2X5xcs8yGzSnbwI6/jyay1ZyPZRlYtgj/n8kqtqDbI5ULmENl2bVW8Yeuym9+OJkJfjqxiibOtEYm017jy5EUpdeVAK0T+Z15uZpXKI3pqU/HIWdKUtCTj1y30So9hngPF7lOZ1LyW6f6xY9NII9RuF595sLoSnfB7RgvyrnlDU+re3K6h1FbjBZQuA+Hmi4KPyEQXZZIlTzJO0WZv9rVl81ZlSoSGnArUL8gwZ+XzUBj3mWxC3lLthhWz09wXvamyVJqQ4ZUJyfP+CeRHCtCwteUkE+YRmU2mlDLDj6oZ4c2vt4JbxJ9kjeLNNAR47T/uQ0CKTAqwMAoCRhDXrITywZ346YQGg8nWZKZPKzUJMWWOy2iM5aqqwR1Xmvvkk38Wt+IN27I5HFd7DMvpFkI5Czwg2M2zKYt88oZwgLhdsnIFjQrAAmpe1UwUH4RNIcAXCTbiWF63UNuGuOenO50Zh0mzEa8E1sLGtKXkufzILdTDrblAT43wtEzxPq3NzJuTZIqEHKbgDsvgzk+/Nv9KrU6ez0MqIyYIYYtKaz471WFWa9wQg3oYDP4tt3HgsdtDYky4+5DYGeqBjWwi3hNjiPurLLdCD2DJqd+70c8P3r2PVD4rnGEdMF/O6RJEeUT+N0PdDp9aY+4LedTnlYVTIKX1DopuaPlfD6GqJa3ITPYenLuPNiIodhuNcjeZs3iRqK7tuX3YbGd0YVwIhfMPK+rJrc+EG3eJdTibNFJwIgXZQ0Rb827NFo28lhLIhnd7vRBcNrI6O3jDR2GTM2VUjaTTcq13A2JXVLxgI6eeyFZ3I4YIHLc3ysR00iC8WfGG78LSJFp2meaLHti9anI+bwyWRdKO4KT44FRCMxSwQv7NHEmUR54ShT/KGn9lnlNNpOYsY76QczgizeltIA/1nYnpmnHkwL6N/T6Tkie3RrvyzdC87qGEf+aE2H5BzkNnmn2ha/9JliYny1JNGLhdvdlMwdHudh09C/s900oLvuA3UMJdB9VuTfKsBrLFnEJAaw69jkh5rn/C4NwVBrHKjAk4pcnv3+jnB+/kpyoM/g0pbbpzXiPGAhukWrjOx5e7dh+F7ZS052l8CmO3F5Jx6iOS5MYi1Q3hwd2fJiB6C9ZZtcUz9rRIdUkbQ8Mim9Nxb54awkAcPtF4kDVUu53KQF6rLB2OmIlZyBdhKKLNJoXhx6r5a5rPRbKvYDlva31dD4vIJ5ufdC6fvIjIt7Ol2SeKTIWHTzwjA5qwwn1d4mdqNPHidLgFeewEuf5ZL0VlEh2C4g3fBTNGJiMp8Rcc90dgl3uhv/v6+rsPKXzDtnIkJ4J9cbJcOmE+/kW/EPqjhHWoHPM/rgSvMstyTo4DJ7m+OGO9fl62sd6qTKTR40ldo/id1mna8M0UFcry2RC4PRw8pflXVqhlrl8GPESAgTWueXavq4EjKB8nuT5Ye/Bj6YQ/G+zrZ7L4EF5EKpEKg2dsvJJ1Fj5womJDfqQlr34f+eLeTW8oWqyXvxosg10wausalPt5qK96eE4nypVIbEs2VkC0Re94wXzS7f7jsX/dlVN48dx8S6LA6n1Y+5NAgmaWgFsZ6FoeF/VO5aSWRFdYTxmrOVqF07C11mdyCghFwCVt2Vxm7peDmp9pcwuwGGxMGMczn3XXvkhRwJy6D5LxPMbYhH+oK1YqsU6940CDomHsToKymhnSkFayZ/8ETcVmWiBBpnH4ShM6xPdSZOKDd/WDVUxcQIyHbFgqiOI13dooH1+OMjqwXcem86wW23Cpwu0mOsuPi2j0JVOGfHcLgaQJhUDJiyF6S4/6duVqsxQFyPAdo7dAAFGvsF1XmTiVLA3naWsVv9NKzenM+SIMU1dSjmUFE9gghZwrzb7UsfsoZbJWCRqNusYvxPwXjZzNoP5B1LUj8ZOrPYeLKo8B9goVwWa59ArbfV37G+pMmG2yOjPWpjk/iOn9JEh6Z72h+0Iedpb9QggKS8v0bv/xvr6+qpqiQtqouczjXu/a844dh6ijxwmHu4fldQ2998M4Jjxv5IwgsMKsbqHgFmHKaI0S5LDxgBSZ1SmRlBiYbiRS17gcStGw9dr94N9oPl32hrDqdKsjfVmrnLmDDYZS9fAFlRnhwWNJro9v8wScMCze5CmT4jpxgXARdEw6rHD3QYNj1ZgbKMcjv3oZ/lJUvOG7ZQ/6TUDlbyb+TZsnjtP7sFfzzT7jiDzizojaMyCjEbVexjbL564kwC1BHHAMpnto6fBZvBADDhGldqrFapNj/3EaFJVjQ1yg1257c8esfwJHKNNhbAj5S7lR8YWt2SrnrKQJuSyGr6Isoejn2c2/sqhMpkAnPCCyr6cdbOrpdREpNPRCRepMBq2FB6gNX6ZzElTL5caVFoW6Y3xH35psi81okLm7hHqlHa45ZcK1arEq3vBdM93KbaSxDU4Qdk7wibBiKqYt9fX1dx7K6AQqvqB6lDdn+ih0MnX0wOdelLAONcu38LHiMiP27Cpq4LEjZqdM4SXPSHkn2a4yc7kyqnBXGhX15FZu1j3HcNNltWMazYR98Qpkr82a3UEjIpwxhPlExMHYvSNkb/b+mcWGwTQZTbHhk+EzcL8sLHbUsZLf/cfyEAH3hpDcnLrQ4EDVFs6e7Sn6qH5/qTPfZW8o6mvzvggjP0hknLBGr3wzVLT6xlDESA8lbbMU6vdZY9Off6KsEISu0A837Uvdw1zHzvE+HfODuAlfvU00EJzkldi2Id70aiSYy0jYMTCE4yjqya3cDLU4FUq1PJmDumuQ+OBJ84lI2kFzRLLsvAjuKhY985JWn7jICzJfhNEGDBEi7L7Y5VOxvVOHpUNr8h453qR5KkSJ6Rt2EdUmvsZIhA8faMUai+IN3017OuYP0hcl+XmaFTFt3+Fr8fHERUnhM7VeXLQhA537xAWZbZuuBPC5SC0nICkIbrmMDgRWG44nM0hNfQgQne61aOiGZKeihte2C4tJGAgriYq1brv343gpZOOY/5wuwaaIlOZX2plsWUKWclukb7iQ9/wzS8bNzeuKxR+JQxP3+IKAETzPpTRCpSGCawIt0AJuLLljRQULd5FKEj9h7T547Xu8577j3tB59Gw2p8BEVhti+HjoO/CwrFLOZ3GN0qo62KArV7MyQmZzQtitX0hOt5BH9CdqbBzRyvrCKAzEezKpsiyUkH3Vy9/Vss6J1OzjC10JDVu9FU9dRAMhhLNhGMCgst8WNv/Kuw/tHsQKFBs25ugHe1JCSjtYoGTFGXKIhqWbkYGGKtQqk+vIGTMRa0uRJrJnNsK0amysNVddT6gOK033XldjPnjnP+GNb0dnc9mKYIJhw024ec9Xf5q815MNG2H9UQ1migtDJ8utPbxnhBGaFVtZri2wiqGRtl8HU0+WWygcSPGcejK7qp6xDgzKAHEiL41SNGwDZozeQeVpEo0iGPad73/xJcumqSTq13Eiwuh0seF0XO3WJFhgmYRb6MKZNOGB69h5LphTYRCu3eH0SBJ6EXffyFRPNWSkaSCoQ5lRUoNiW+/7nX+8+95Qu+TvHI+ZZWL6qpyz0seXC5euy+xeMiZGyK8fI83/egjH1rCDY7Pv8zDs7pFVmnmfrkTL6zisWE6AW6wNmby5OZqOoto2KVQo6sltwopKM0k0yqOrBv5R1Omb33cT9sjLjMMDIcVuOA96vc/PRHBN6w35NLsEF4+YxSUiGFrQfTqbMzBBHsPuYbE1Hv2s0uFQwP0ivjhRqluFZcf32959bwjZ7qUvBhPwhRhYc78YdMl/mK/CN1Y7m8/DfdvGdmys6SRyEgfX5WsUDPIby1zg5pFI25BqAdbohTx0f8yfynzX1mQvhKA4N0pj81yxjDG8KmQNbcSu9R4liybKMt/WhiMiXg12UKJsoOXBHqe6cwvkJ9iPncv9cpBclqE6NSw2x/YdDMhlYoU/gyNhFwe0wgKL4g1lsbyiwR9TGYhKnU8oY6fOqLTpPngfPuTj4TNIq4RWUk4XdFuO1AM+vtx18KSDaXKTLyN+JExmIXOJSIGjIYMTU5THtKVr6MMwDxFbixtzkMJi54ETSGgYkSIzzcGtPoRskG65ea2wWMXUk3WwWBWyhrZiJePmUTKbKaHxL3UPK5+93Ac/ereR6DvcPEdHSsfPI3REDiPLofYg8ndV1DDmtzK8Z7gF+QiEYbA3WuoWJ3pPnHSyUjUGg8pyo8vhULzhu2/W9AN8O5XQ0ThR74voLSXLj4ogNrRKOj7U+CNHVjpursxYQ1xesEArPEiPUWGqEjdte8pe4vLkJK9MPrTxYADft6t5dkylHFTLMyhepq2Ybt32PEkuEdwWPS4MmtT8K6uq5WoywbnQl0VL+AdU3WHCZywk5KVJP8bfpbNjiFdUjv2TPcc4EQ7bd6l02Lh/UmPGJ9OsZ1ktr8bolML0++ENBUEo6DUSxVKY1CwsI8YYHNq8HI9kjrhdstIjB8dEpYl2+70fx+fxSSzO1JDnF2xO3dfgxVobuDOKKG2s7EichrB1i7XekK6V6P5waJSGBMAVKurJbWixXb2NtIOfc7ZB0pu//N/BKDzS7DLbnk6brk3ugcAiYSBB8Ho035Ldtd4hwnpDvFedE1vDCMZ6ZpOGT+RpPPSGHrVpRnNdyZMPLiGvxXF4q0P57j54Tz5nxdyVWRI7cSZhVruGqhdt8DVZPnyW2BbkEWMkJdxzjLbrbA+oLTz2JJijzFfILaCg0ioRhSEmNi7Dy7XkZIK2dx7InT5csopIXpuy/K+HkA4EARgopXWfymz2hU5GrGnz2HRhtZA08/U+P1N2TBK1BJAoGoljf247Fpph+3SdvuiITSeqRCnpThEuNgQtavRCvVaymorawuMi5Vt7j7yhcLuQVM346mSscNcbcqa/yG7cl4t91Bq2RKRoZi3PlKR5sqXR1ML+E56LTEXXsXOeoSXRxzq8iuRZnYzwxiChwJhPtCvesC3Z0+EzSaqMEDaEQlUv/rv5VZp9heTDeBrBSAlR5ORWYabcmaEKNc4mD3TskADVTBLembyPqEbqOUGeF+nWmsXK2noVFAoPlTGn98obokPrOwYhWt1ogJS5ML8g1+GzPr1Yq+MyKRGcqx1+fDhoCpF3ybz/cCseP9frnk+oGiL1JDIIt1dlAliXKlkLRUXrVWmgtC3TLdtyiUl6ElcI+cSnI2c1/8rScs6DHVG/6ToSduvXRdMcHk2e0Cj0rb5jPf6kSbhRaJdIEvHlLF9uzBoL6TC2kg2iTHZNW6/So3vfvGHljGU0NSUPTmEvZewfPr7cmryHEVaDK0ymBXf/+1+yJZhhHgPWwNI3bEt+/rX22Aw5qKSCDqxyIa/Ayyqs4VTs3CHCklXIGtqaOU9epBERWVkbE+evBjcfG7oFCxEMs7oKSsIzSPadoAlZMoswRIhdkLizer6HskWdy7nrCB/sw6I2E8nbmuw815AWrBplT1gTWYOlRth3C4uVBfY+ekN7+kHwhjkslJPw0pDnhon6Op9y7fzrJAzA9VIiUlB6hVghvhyUxbIhDDYvX3suVKiRx5xhx6b1yiRDNV4ylEoGhZVm6fFmsCjLtK0tNXsuY9XMlgQUEevaPcSLSOzznjT9EDWUqQFCqyX/62E0eYJo2W6hBGAQn5R4FlggTabWHC62KKbDF51ONcd6q7BiqlFYjNLJCFdg0AWbAmV9/7yhaHXjjOfnYVThZokMlhF94eNkL7dTC4WWqWH2Kl6F/HIQFXTAyeZ72/+Few8Qs03UD1FIKIJQsrR9DDHbUADA7mK8m3x0lIeHFmWxtj17Evo7Ds91x2lianrAerPsbV423n3hEpdplPhZSyb+SRwNWQxrzYbuQ5+Omtlgjd28R6AFKjjKiUgDpSe9EZdWUTkhWNngil5UW5Uk+b30hqL4aPj03K6hMuUMrdTb/cb5+HL30fM0TwJr7tnoP2iXJgUMmp9/MmiqF294MY+Ainwsn3F5InUNG6Vymj3CQwPjd6ioz5Tx3qUs1zZYlvljFVVOZFJ08IzV66J9WKNFNLJJKhSwVG72HZPTpV55CmJMWMC6iCTPFzn2naBiNO3WcI+A1qS9DUD7WjN6w0ojDuRR6bDcKBoU8Nb76g1du48RIIZQhxDW0eyU+3yuT68vKZf37Yf9JxB+goQpCHVY8edqr3/Uxjsw9QLKSNYEjq8Rh6vGhslLmY7NFRjRFZZUKWu0LZpjx6FsPy5EQZPFF7sGVfz+lw9r1G1lWyYqzW9LNqzYRnQ4ed1DiQkClllBQyyEUGeSebM5GxgCFZNdJzPrUYRWZz1EgUnRsscqpX/y/npD+Oav9RoJMR0u0C5BLKzDLbds4gJfK0LxGZDwgke7/HkYKYhnMcUyCg/dJy4+F08KBLeuZ3hlybJ4u1CiX692y9EhyY1WMJY68pVau7JG26Rpa3K6BMvMSZSO+Khha0/cQ0LesFqKhk0nYQmasmeEiUGl4+Y1WGJnsmGB1WMMGTTHEbuTSd9Je63OzDmu6VZWjeFhlTLj9B57Q1wV89YQwoZSj4tMUyL3q8GNZRWbSpYvXoIFV71wHcdasxp5JmP/R7nIuudmSzRamhsl/mGewsTsxCyYUfwjFJb1SZx2N5MrM3K+aw4EU4qGbdVufT9WIl3nuci1gJE+ZTBHz1q3JFJd5UqPYdSHyWOz8FQ6FBvC+x2Je6hNZ5Yk92g0AF2eHpeW4BaFelVuFadpKNO5lJL0e+4NxUfFiOZniS11VIj0UB+Z7NPLTWZwZ+rf/mJj+ZwljDCx90O8zaLef0wYQ0phaAN37jyElexKk0BoryrmiM1ud5me882pTbR8FbKGtmtPJs0nP0ggGwoSIWZsPoO5dpuEorTTlnI6HKJVZ1XIB2FTGi+wbSlErWSVSNqRdK7gFoNnYVnQravx8IZ8/gQfK/a+e0NRfBA2OZsjBINkPZP7QRN9LQntOwFPluUvWISIW3f5nBVeYsncAgR/RTQob7uPn8ciDmOBFWne3uJEtE09UwPTh6owKgu07VpdZIq8QkhSEW710yMvyl9qHNGINLz343jSEiByMOrG6J/rnzCd2xRJsgK3Xmf6YYTuE9MwJihmjBMlKSiugqI3Kd+R4g1FS3wGIWyospPbLYxGnbwreT6/dd9/eB2Lj2EE+6KFDr7VlrDLa9YjKzI7GNkc7ttXbzOmYkZWXGXGeFBrkwQDmHOkB+o6ZYG25V33KcuUOUM1ixCDns1a5tOOG7PTumo7kYAQiWGWHyKub343tuFStiJtF+G3WGxIgSFqMWPpWYtlaLObCLs4bw3dVGaXknYo3hDNar30zRDOmilzfPkFl80K9+nlWh2nmePVcQRPwHq1Pa9iwRrKJKAsjznbotP56izVYoRI88jlUsVQDg9xJ69QFmibthu9RslUcuQN7w/wKQVxHDxVPn6ezDCSRcmyX1DphD8bZB5MP541oBl+iz1wbE8Xi6vqCZDKayEwxB8lEhB8rFICQ8UbSlYxbQkCIL4YRKSEVDq88s0wX8B95tR9NC5KMy2E0bnkP9SRsEcQGr/cEbcL64ZR6VaJGxHJGlR1zBVKClCl1fi43MC1HB+XcwJOhf2/jVvRqFnyIsnuhist94tQ0do8TsB9+dq1niOy/Zi2BDE1MM8oFpU12NaT91BVWua4hgXm3H0MKTUZBSxssbjXMi29epoGCBLNClZB8YZytnvpOmYf3TndIe3emO0m7m7ek84IpxFUEuGjys69/hOQb72R5BPjepCXKc0JCNlXsIlcxhMZ2sMpSJQDQ3SIKrPTojCLtG2rXrmNSLBJOoq1hsMcXtk6GqUUGUdpKrk+/+gS/PS5/gmXpqBZzwjOaejOvSotKgbg51GhSh5zgqXlVrJkxRt62t2fJkhFbl7ZgZSkZMi0Zl94L2xStqQSyVBguFKf/fonImAPn27gc6/dtsvaFFGcukasUGHJpj4vRrp/tlI1DZRtK4wuizKh3MY33Zwr2ZJiFGH1YeP0hVWzePxcvjIZeJsAYZq/1jdIO/Yft0g6tAROROmeuAyxrBZXUVF5PZ+rTJT5jEH6FbpMxRs2MsPGGJlGGJFc3UOIh67BMLw3o2Utq6wQgU3dwo00puKZB7mPn7dLLHUcGRuRytWpqs2ELuT5MoaEZfVrl4gblA28rZtbuPzfITSnxHfcrqGPm91xn5TIw6PEcQ3R5TX/4c7Eek0xwWLF3Tc6XdZxtLG9FpIerliLWGupDE3hYZldVCNQwan0TxRv2NjqjFe/Gpol01b78WS5cv7aFy3vExfpmZ7MYJe/HCxjCT3FRZ0p+2WxcD6Hn36Q/5vZjU1k0rQlD1gkRYUMlS1WKQ3ld8EYCeZAkqBgIJvgZqm9DNuSiSlOBi3AsnwQNAkyYplvxn0mm2t8R/EGHWTN1th05MF+7NE7ZuuKxOORvKsSdfKUL0Xxhl7s6YS5RNdKdEmElbkaOOLFlaA8SZ1Z1sm71fcXGtdDRYvUvfypJouMuKawERW+My/xvV0QWB+ZtZIflNqi0vQzwg0zVlg2xInFWt4NVPbwtm9V89bKMvCS0mywF9o3DyvoMwqn8brWz7HAY8PyLSg2L+k9WVL2OmLTiXhY3oldJy6g7AkEhhgJ6uyRaVV/rNDMW41d5qJKBnE14DasmOINvQR6Z7JJxIfqMlz1sXuI+0iThNhFI2fT8AlpoVCR+9GIGejvGPILK4NllfjUknIeGEbgqICNTSs3aLOUVjHklwmybPXkRbrJS6qmLtFOWapbuF58VIH/VKcs3DZv9oOnc7uH5jFhAIr1wMfp1m5v6vnO4+dxNfpx6THcpLuHXg8Ywck+zjF6kaelsoYUDp/QpktS9Dob5sgVBuPKyKopi1XsBovKuCIS0+SyaniC8qUo3tCLCXWmG31GZzIwF/lEcoiVUxY39ZIbvUeTTi6v7LDH6smLZZEzTJazruLBcwuIWcQagRyxRAUm1ui5I3YLwv0i2K6dGYerpyyBJQveEG6ayYvBMzrT9qM3rFIWbtu3skpsJX+OXIe0fcKt/PdFTcaSC9Z58mZTefruT7+aI3EV4fQxLK3MfFppMnUNZsrxGaLFiujCUq1r3wnVtKVVv+MWq5uyFBZVzbRw+CXnu1Y6yoo39Go1y7dRbTtPopDD6uEXYW61xov3zL9JRRxi8aR0Bta6bUOcWeruge8zRaeJLsG58xCmzxE8R4bl60zZX3+sWjaHV6rVz1sD7g8WLmzgtHxrIDycsVy8cV8p8bwbdrf/eK61LbWJrwf+7P2pj4uIcY5Gm2XqbP2sFRYmdQJeTzSYuAItqUGxQRT8/f3HjjoXo4OrgAS5flFNXULrSj9zuViuR4akWgXH6i0qdzrfd28oamsufzkYA0O/EFp8WSwR1izf8vxzdRFJeQwHS6ianC4IyrnZaxRPhKPSzBLLv3DpOp+Uikqnajc8wX38fH2SXlEtlhtcR89idjx1CTlBCgxVkxfBvftMplihd1mVZLnNW/mURSSvTIEhpRTik+Lnn4n9E6Zils1bLlyftm7NdvKA6BP3H5ehhXJ4iN1kkwXpPyqNsMwg1aCqC91gddG969h5hPoXKzNO3jJFQfhAOQslv/yPyU2EEYSQUR8G3/rhl+efWTphPrH/U3OQiHAKB0+mqJAzsDPQgzV+Fz2QGZY4rYhsahPkLLDb00qtYYGhZtIieeE6IPGpMIpGxRu2ebMn7pYUt2WZlFBjzI7nn3n929FYyP4iLLMrkWYyYP+P4y2s9Cxzp5NisgxXQB6QM0wNSoWiOs60g7ChokP8fVEV22hln+hM3ou9FLUylqdkyk2Ydf9xmiehMg0lNeAcn5cDvz/gN5yv8gu6QFxejCm2dmMMQb1oKsAcmSK7P5l1jnheRb0HuSYTcjRvT9VOC1ezhVszPZxKh7BwYSk7otIQf6M0Ut6J0mGexPzKuQ67hZVOblw6dJ+4gLjXbiFUN6R7WG/aaUuZPnIKCT/JhRdrJKlBYftOrFDhISrNospqi0qDl+AqYq05eVHBjRNrPi5TvhPFGzZpt78dTRyFcCO8a173sGe/zm9YYjTQeDIGkn4hJIoCG7j4uMiZuAen7iSgA/k+qySdzBOcmHplW7PZbCiHbdxoi8+A3buGrVRKmWnVQpDoTNwnPjOKdco4yrtgN74dLSFbcaOFhXTnOTWe4vFzwQNe6h4GN0hBslk5+8o3w+TuHO64UvMEIf2sOIPAfhmVXV4HsaEjYRfPjqctVU/muyyuq2lL8ZmwDauVerTiDZs21V/rUcKiS/AFP64IDi4v/7+DwQPWh5DpB6iqKDOAwYZ/jSlUCHkF1C0hhA2EdSQCyYXkI1KsrNxDxzl37tzQoUNLyp5hWfDoOQTW/I6FQnKLsHbVrL/sOnoWC4tWZYjqXTDYWXFdSaPHuQxw04Ap/XERiX3T/Ds9B9bks7H/4+AtCcJFj2GNEV8D+ETx/mOTybR48eLSZ6W4Zo6cgVVE+yvWo5k3rJkWrpuyFCvXxWpRU6t8I4o3bNqelhL/KyGx/3971+IVZZ2G/5Z1hkHMSmqt0+bMwHC2TiIwsJhm7dl2s1oW8LJkZnbkMiLghWCQ69yY4dJqmxhrJ3OFEpHM1FIxMREyJRCc4TbDwMDM7Pv+3m8Gai2xDXOH9zlzvvPBMKfp6+l5L7/3gotTItHvGykyTxN6QxZt6qHcIvqSkdorz28Qzp7bLdgpSsCk6sLpfbiV9Tisoe00UHbr1q1xAsXFxTid4dQXjg26Xjz+E8HyOl1/Kt7YX88T49qdXAoRGhgsNEiTbGj4qyhg8MxYKDqK/ScYRwPBqMaw7XHURF/rKdqREtREGhg8IZYmI+v22o4cOfLcc88BqaxWK/Z6tnfe3LQjWF4j+YbpWTczcv1Xv8Nmp2E3/xdhNfwpXFm9Ptg71RootbkQ93LwDzqSU8W8a22bWE9BVYcDgaPniYOHgzOu4TVSWj2oKxnK0bvfNlPsfLnjOlGWsGrVKjGpYWCivBbPlFMyB0QlxHdpSOLx8lqMaOyc7Q4R+L5oD44IoRJCUMMbr00PSz8LoXSgxvB4IL3Y9fxGMIckhViyurPKnaUf2VE6prdgKqYMX8c/OxUk1cqVK6nXc8K0jypsqMiGCvsnq9+TdgDwTlpWw5/GuPWf2I4SmYDHedIybyy1wTZ4gWCnlDSvQWQPg+/6OzoheKHzk+HcksH0HIfI1Ays140Vm3HHRWUt8DU+Pj7I3fb2dmyiau+yv7WbTgApUh54azcK5U0nbY9ihAbOqNbM9A1B7L7+Qyq95fnwY4gzpGYVMbRGEEw7VvOe7/MvRdal9taWncGc8q112SP55aLE1dbY2BgbGwt0giuwq6OjA+urr4+4dXvJPaTjFOAkDpHD/ncu6Wc1vKP19vpOLlvdInpRWkWw3CJurq/Lgne9Zy8ceyRBakym5M4jSSefXDX9+aFhmsvgfNvoENYYwt4BEaoMbMqjzHdDQ0PcDKSmpkpDlk6fc+6sHNyg6//7djG4eIB25v337FjG/y86V6+n2ixsvFuaDNcTjyf7PbjvuGvtZppzAyYW6SeOlc/E/BE46al6BzMwupL+1EwQNXL0sC41Pcu5x+gqqxmqqJlpYiH+QNWDwOLqDY9xX//GHMfmAiCV70oPjluH1ySXXrMazgJ9G3XSrJHfSht5UPJUq/0THmf9weOBPtPWQKQMsfO0mLZfhnBmHHzATXl2suEiA4ihCljyggp4d7Sqnmy4VqvV60WIPeal0cQ03xAnL9FKgGsDfifX1oQU+rOKqJr6xFJp+zaYVW/zp37H0Ke/e1aagSiWdFMcffWl1/1fXvQYsKRmOGMHMKovVWpYguuttKyRzbuwYqGyvqSkhKRw7dq13d3dkzjG5jpupgUuYWvKDT/d9436J/hQjtVwljh/CbffUZ0XrQYVofFIVZ09t4RG15AUUkdK3xsFwY96DzVj8Vexmcq7HCKigRsMgdMyHVt2ucvQPUxMTATKdnV1TX9w3OcfEIuiRKMexjLf3MBfMkILk0dbsG5BzEmi/CAYVIeuxF5ajb8Xx3eimEGKo/2d16YONeFxXJEF8yfBOmphZcHEgtEd0+NEr+YTnyYlJUn2VfqH+XB3KIlgj9gw0Tfk8zCpfgpTU1Osht9DR+LfWiO1dIRCTuJx4QNefWmz1LonMjtUMuadMdJ9subAeFnNcF4Z9tWB/FGJAyVu1mU7Nmyn+Us93Td/5P8VHy6SB3+QKRuycuhrfQwLa6SJcCIn0/VCxsXla6WiLkE2qm24vBKH/k9Y3gULOppbBozqT5dGe0i8EtlAeAvcQ3v1vrHbjUnHZdxOJJVvjkfDhUBKx+v1Op1OVsPvYbjURjooRcQki48mnn36RYyOIxOoM49qsGdWI1I9zWCOHpM7ZMbTs/oCzQAgiBOi6x6XojDmbeyxfC2tij8ukjAggqeeWEUOY9vSZFqPR6GJXSxN9hixv3M4q4iKUoOnIhQ196dmDmYX40bGivpf5V9nfHy8p6cHXCqOlEMUTtfJJ589LqbLUWsKjcWmoUwze1EurHh55ucgEMbymm1FxNTe1OniBtJEadhX22l+xvMWnc9vPBYYxEAjP1oEr6iSn6Z+AceopB8wVoHF1SB51Mk+EJjNReb2ZlrmoE4Pf/CrqCF4oyCFIIihdNbHavhDXHvlzcCsEckxxJLspcmggJjkFoXZ8PpmY3bwI0ePHh2w7neX1w7l7g1a72CiB9UwI48a7H3tHfyE5y36MrZTbzslDSn3QllCsZJbS2/R0mSXyzVsfRfrCnNLqVuJ1DA4BxN+HN9Z5SqzTczYl8JgNfxFMwgft4kee2nGHKphpPbQw7HvP7z8k8Xx1JsMV1cdDiuk9pIVK1Y0t53EoTWFJkrr9IpAhkq9sFd06x7yDf32QX7C8xYjpbZjj0qZweaH4g9HxjU+FPvB4mdaluAeKOBVi1hY5rvcSe2bH7edxFEghSbHel1/SqCaOpCHgeuIKGWd+te/7833h6A4tKu+WA1vg6/iX6GNUceWJOxf9HuTXGVUqI1haoNCbVNEAYlptR5RlopmLBYLNgyU2uyv5wNTe0WwTFWHcDNSUIElh2zD5zc8R1uAV6CDdQoNMMocoamUK6vkKnNE9PsPPtPySAK4hxcT/xps3ywsLKTuppuv5aKVTcu0B2oV0EncXEDDDf3nL825i+D1Ts6DQkVWw9tgsKAc4pemJfFWRRSQ1RCmMijwWqFQmhdpquTKQ48lpKSkEGWpEwAwXFWH3N1Z+YMwefjN3TR0ZGoWa8UZIe0cjh5+MNYYHmVeqKkKU5mAUXIlWtlwoJmyNiKmJVJrslYHS6m1Wu1Ihdirk1PSm5bZF6i+BhM7mJ4zWmjAqQ2V9f45nuwPUhhKRyWshncJ++CJx5Prw2NMizXAV3OY2rpAXaeIsUbEGNGY42vbtm1B1kKkDNeGhgaQPBC+kR17b6Vl0Yy5/oxct97iLqvFNQBOFz/a+YzRc+2mMDWooWlhtFUWVSOLssrU1XI1mlu5CvRx/6Oxcd9HfX29aGSy3dqyk6r6MVjeoHPml9OUQ9/n5/nBshrOLc78aaNxUbQBTLdMWbsgyrZAXSuPhivIolGuskREW5TxM1mbmJgIcc3kPxppkg3QdzS7eChH7xJeIRD3jkvrGSGPtvQ3gTmGMDW4gbWyKOBVDTBKpoIbw4JlEH8Atfbs2ROMOeLj41999dWpA4ep6dO9q2pwu34wd6+ryEQFW56DH/FTZTWcc9QpE8wRGmAnsBZEEFgraaJCY5apK2XLDDKlXq8H1iYlJel0OofDgR+b8HlPnPYY97lKpUFeHkP9VOMRfzdPG5738PrqnoiDqAKcQSAVMaouPAauQCr4Ed4CypmUUqiRkpJy4ACe1EEY7G1uhYhYjDUUQzP3WsdtB3xnLszF1/R4PF7c6DgfuwBYDW+D3kNHjGHITqscdRD8QVvAhkO8jJY8TGVSqA3Ln83Pz3e5bhf/9vb7Tp+bOn1uZoU2Yz6j73CzOTwa7CsxCohEVhZ5pdDAvU0ehX+gUIOVbWpq+sHHce1n5zXfZ1/imcntFjr+IjrY19fndrvn7bgQVsPb4EqxAY/8FFGghmC90SXEFI+KbDhQ2RIWBXK5X6nlZ8WYJS7uKUPv7zcqEkGyr3ADBANlrBG/NMiVlXLlpV2l9/i7+QTGx8fnyWkJq+Fd4MT6rVVyFXCXpJC4i0GNPBpfsqhqBaqhKTyanxVjlji7WQdKV62Itgou1YhMNOggcQxeFjkGHPA3Jzdl3ssvBiI4yWO+WA1/DOfy9CB24B6i9ol0ITqGlOsR7qFFju9aIp/iZ8WYJc5n7wb7apGpyQ2kSJncQ7jCC340K5BXX2TvvmffCqJjHqPJanjHSBl8Q5UUIwsRpBuss5GpzGFqg0zZ8MwaflaMWaK7qgZr+OUqKcgQxtUqzlKEOGLqEE/nwlSdBttcf5kpAdZBVsM7Y+Lrq0hchcosx1whmW6JvuIe1BAimqYX1/GzYszWC+v+FisNFVK1FsUZeCgneAUvIBumXxZpJrq/nVMddDgcdrvd6XSyGrIazgofJP0ZuStOAGuCpyiCxFZFtHmhBljbVf0OPyjG7LFfk2xUREGwTMloSh0Gz5exuFWhboh7Ye6+AMifV4B1kNXwLnD57QqgJiZ6FqBXSLWyFC+DeTcp1O8sS+CnxLgrtKa9AeQpVyipZssWDJPDYyxytUl0Lt+o4WZ2VsP7Dwe1L4IgGsLAaKuqZZjuscqwn9SEzcvKnsYP+REx7gqjFy4aIqLMizQofDKp2LBajrVc5oXRECZ/8ELKXPiD7AmyGv6vcF36ep86yahQVcqwtd78QAzcgDiCGp59K4+fD+NnoKvUYgpX0+garKeRKU0PaMAlBPt6YPka/yDX6rMa3seC+NFf1hkjsEMAGGxaFG1d8lTf++wVMn4+7Ec+Ofj0mqowsKxYt2CK0JgXaz7PyPJPePjhsBre75i81PlVUcXZrALWQcYvhf6mY1/l689s0XVX2qYGbvEDYTVkMBgMVkMGg8FgNWQwGAxWw9CB0+n0er38HBgMVsP5Di7jYjBYDRkMxr0DT1hgNWQwGAxWQwaDwWA1ZDBCDzQ/xu1286NgNWQwGAxWQwaDwbjv8R8dx2V3uHSPzQAAAABJRU5ErkJggg==;movable=0;resizable=0;rotatable=0;deletable=0;editable=0;connectable=0;" vertex="1" parent="1">
          <mxGeometry x="430" y="478.45000000000005" width="222.45" height="160" as="geometry" />
        </mxCell>
        <mxCell id="_XqpVjVCsElwEC0yUfst-10" value="" style="group;movable=0;resizable=0;rotatable=0;deletable=0;editable=0;connectable=0;" vertex="1" connectable="0" parent="1">
          <mxGeometry x="130" y="480" width="167.3" height="158.45100000000002" as="geometry" />
        </mxCell>
        <mxCell id="_XqpVjVCsElwEC0yUfst-6" value="" style="shape=image;verticalLabelPosition=bottom;labelBackgroundColor=default;verticalAlign=top;aspect=fixed;imageAspect=0;image=data:image/jpeg,/9j/4RF9RXhpZgAATU0AKgAAAAgADAEAAAMAAAABAQAAAAEBAAMAAAABAQAAAAECAAMAAAADAAAAngEGAAMAAAABAAIAAAESAAMAAAABAAEAAAEVAAMAAAABAAMAAAEaAAUAAAABAAAApAEbAAUAAAABAAAArAEoAAMAAAABAAIAAAExAAIAAAAhAAAAtAEyAAIAAAAUAAAA1YdpAAQAAAABAAAA7AAAASQACAAIAAgACvyAAAAnEAAK/IAAACcQQWRvYmUgUGhvdG9zaG9wIDI0LjAgKE1hY2ludG9zaCkAMjAyMjoxMTowNSAyMjoyNjo1NgAAAAAABJAAAAcAAAAEMDIzMaABAAMAAAAB//8AAKACAAQAAAABAAAAyqADAAQAAAABAAAAtAAAAAAAAAAGAQMAAwAAAAEABgAAARoABQAAAAEAAAFyARsABQAAAAEAAAF6ASgAAwAAAAEAAgAAAgEABAAAAAEAAAGCAgIABAAAAAEAAA/zAAAAAAAAAEgAAAABAAAASAAAAAH/2P/tAAxBZG9iZV9DTQAC/+4ADkFkb2JlAGSAAAAAAf/bAIQADAgICAkIDAkJDBELCgsRFQ8MDA8VGBMTFRMTGBEMDAwMDAwRDAwMDAwMDAwMDAwMDAwMDAwMDAwMDAwMDAwMDAENCwsNDg0QDg4QFA4ODhQUDg4ODhQRDAwMDAwREQwMDAwMDBEMDAwMDAwMDAwMDAwMDAwMDAwMDAwMDAwMDAwM/8AAEQgAjwCgAwEiAAIRAQMRAf/dAAQACv/EAT8AAAEFAQEBAQEBAAAAAAAAAAMAAQIEBQYHCAkKCwEAAQUBAQEBAQEAAAAAAAAAAQACAwQFBgcICQoLEAABBAEDAgQCBQcGCAUDDDMBAAIRAwQhEjEFQVFhEyJxgTIGFJGhsUIjJBVSwWIzNHKC0UMHJZJT8OHxY3M1FqKygyZEk1RkRcKjdDYX0lXiZfKzhMPTdePzRieUpIW0lcTU5PSltcXV5fVWZnaGlqa2xtbm9jdHV2d3h5ent8fX5/cRAAICAQIEBAMEBQYHBwYFNQEAAhEDITESBEFRYXEiEwUygZEUobFCI8FS0fAzJGLhcoKSQ1MVY3M08SUGFqKygwcmNcLSRJNUoxdkRVU2dGXi8rOEw9N14/NGlKSFtJXE1OT0pbXF1eX1VmZ2hpamtsbW5vYnN0dXZ3eHl6e3x//aAAwDAQACEQMRAD8A3Ohn/IvTu/6li86/4Co9/ir4+A+4f3Kp0Wf2H0z/AMJYp+RopV0TCTBKep0VAjgfcP7lGAew+4KaY8Jtroa6sIHbT4afkS+Z+8pymQTLZglop6pkrWsNEymZUSQ3nRLiVTE8KKk4iP7gT+RRPCdp3Rr2YkAnv95UdrfD8SppkgoFHtHh+VMWj/WVLsooswFMHAT/AL1CP9dVN3Kj3SWHcrECFGB4Kai7skxkP//Q6Hov/InTD/3RxR91FSuql0X/AJE6Z/4RxT99FSupNWW5XTHhOmKay49ixITJymQSVJoTpFBCwEugmNJk8LJ6p1/H6e4NqPqWn6QEafernUL/AEcZ7uABJPkdFlYXRqS37bktL7T7iHRt18tu76P8tRZMvC2OXwCZ1GjlWfWvqjml1TTjActACsdO+tfq2mvLZOmtjYBBmJs3fmf1VqZeNhwxvpMa+zTjRc11fpLca43sJDf3QRB/kv0+io45dRTYnyseE6PZMsZYwPYdzXagjuE65/6r9S9Wp+K4g2FxdUNfBg2c/Q9q6ExJjhWokkW504mM66I+yZOeEyczdmDuVDupu5UDylbEdypRcpJnIrX/0ei6J/yJ0z/whif+eKldVPon/InTP/CGJ/54qV1Jqy+YqTFOeEyBZceg1WKaAnSTUlaExLWw5wBA1IPdOTog5LBZQ9ndwIa790wfemlMN3nh1VnWMrKwG+1nqil/8lgAt3t/tLUyuo4VFjcI31OuIDXY/rtY5sCA1zSPbub71Q+qHTWYn2q17N1rbIe6RqHDR3Kt5vQun5V4dc0NLJfUGEBxfxB/NVWdcRdPl46DT8FZtWOamZDn6V+47uP3ePmuY6hmttvFAt3h8jbBAAAJ7rZ+sNb8m6uun9GKWQ0afSWI7pvVW+oM605FbGbmPLgYMxt27t30U2FcQ2ZZg8J0Lk9G6i7Gza7GOLX0WkPcOSDDYXo4JLQZ5E/evKsCp7s3Ja0SXFoaNNYex3/fV6lWIrYDyGiVchv9HNz1f1XPCZIkQolwKkYxancqB5SJEqJ5Kbaw7lc8KJJSTJy1/9Lo+if8idL/APCGJ/54qV1Ueif8idL/APCGH/54qV2U6mCUTZXTJJJtLgpN3Tpk0hJYngqp1G708N+u0vIYHdmk+7cf81WncFVcysXUOqdAD9CT/wB9TZfKnH84afQni39qPqeCxl1dZ8orZa5/9X3qV2T08WWC7MsZYXcNc8Bs9mtDCsv6vb8Pr2ZhPcDRlY5sA7mxr66W/wDgbl0F5c5jQHuYBoAwwBGngVSmPUXYwmoi3l3OsyM8XvyKr9hkupdLfBN1rLFdJjTSDrzooZP2avJc8NDduvtAb/1Aa1YX1h6ibD6VZEDU/CIShEkghdkyRAN21umCMw28h7hp816X2HwH5F550HH+05mPVrDzL45ga6L0Hd4cK3HQOVzHz/is76JUFIkkKJTrW7sXcpkz3Hd8lHcUlpDNMUpSKIKx/9Poui/8idL/APCGH/54qVxUui/8idM/8I4g+YoqVxPGzBKWpZJk0hMSECF4ZJa89vFDsuppqsuusbVVU0vse8gBrB/hHT+Z+auXy/8AGT9XKbSypuTltEQ9lbW1mQHe0ZDq7f8AOrTSE12eqdoDMxqqV+Pk2Fpc8MoLva46+6DAd/Z3Kp9XPrfh9abm2V0X00YTWusfYWvh1xcz6LP0jv5v/BtVzK6kzEyTRtFlNwgHtud7mOH9hr1VyzN1s2+XwX6idi08bpFuP1L7bf6boBZWWAAQTv8A+qVjqDnCl7K3FjmH6TTB1935vxVKjOvtxb3AD0q7YYZj2hjbHf8AVI2JaMvdc0zW9mxruPd4KuW8Nnk8mvLM+pMOHuJnVU+g9CZ1rq/2XJudVWGPse+A4lrBOz3rruu0MftZWyGD6TxrtH9X6Tlz/RK8zpfWqct7C/H3OY92h2tcPc/YPenQlWi2UeJ2umfVejpF9t/rutZSYZYQGnaWts7f11oMyce5rTRYGucJ2ubp/ZJ+khZ3Ua7eh5AaWjIfuZXVOpkta3/wNJwZ69NIn08ShkyDo2NE+OQg97Y8mASN3WiYzBUSSgY2ZXfa8NcCXDftOji2du8Md7tm5WHaaHlTxNi2nkjwmmDuVDuneRPyUe6LGQyB1TlQSRDGRo//1Og6If8AIfTP/CWL/wCeKVdlUein/IfTP/CeN/54pVxPGzUJOqkznAAnvHtHiR7tv+YHOSlO1wY4PdqyuXu+DQX/APVD/MSOzLEmw+ff4yOuudlM6FWP0dAbblwebXe9lLoH0aa/d+56v/Frh3bQCeNJaPHXajdQyrMzNvy7Xbrcix73u+Ljthbv1G+rb+t9UbkXN29O6eW25dp4JB3V47P3n3fRUcjQtngLOj231Q+rt3ReiXnJd+s9Tay6zHLdprYBY1lbn7nep/O7/osWdkuyDbi4wdFeGW1s/OJawPbXP+eum+sfUXVVyz+dsAa0cnTVjF5l17rVlV+zFtPqh257xwNDLPxVQD3JaN3i9uOvm9LlNyWVtwqLNHkveNpBO5rav3v5C3sDHGPgU0N0LYMny7LzfoX1pvwuotvz5yKXaOJ5b/VXpWDn4fUWttxLWXCwbgAdp8NWfmpmbHKJ0ivxZRIartq2sIsPqO7OiP71mdd6tjdJpYbC39YO2sjktgu3xrtVzrPVun9Exhbn2De8TXQ102uPh6bJaxeVdb6tf1XOsy7oBcYZW36LW9tn7qdiwk7oy5RH5XrmBuUx1rLATZG1w5bHu8VZqoz3PdkHIeY9r2n84BcNgdVycZ7Gh/6KdZErvumsdlYVWRRZvrugbO4f+cE7Li4Y2OizHm4iQezz/wBZMrM6f1TGzcYOaG1k12zo/cZfXt/Mraw+xi6/pvUquqYdWdX/AIRga8TMPH0m9lmfWLpn2zo9zC0uvpHqUAaahzXWN/7a3rI+oXUNtuR08nR9fq1N8HtP6T/oKTERKALDmjU9eot7JwkqPdTcRuO36P5vwgKB5T2A7qJUSU6i5EII0f/V3ujf8h9M/wDCeN/54pVtU+jOH7E6YPDDxv8AzxSrchSR2aR3PmuSACSYjuqHWsr7J0XqGUD/ADND9ZjV0V7J/f8Af9FXHatIA3Eg6ePkuQ/xk9UDMLH6UxwrGU85GSG6na0foePzLXf9Qkdiy4gXzto9omCRIn8f+/L1f/F3lYT/AKqNxmBrcnHutfYNBueS81Wfy3+nsY168qfYHEHaGaDQcT3XT/VHqP2XDyYdEPDvkq+aPFAhvYKEhbu/Wvqrq67bmul1Z3VuB4IH+Dd/5Fea2OLnueTJeS7nXVaPWes3dReRO2ps7WjSVlIYYcMaVnlc9DYXk+KPjZuZiu34uRZQ796p7mH/AKBaq6SkYgSElt91zzZbY6x7vpOc4uJ+LnIaSSSrJUu0/wAXXUyzLs6a8z6o9XFDjoLWfTazd/pG/uri1a6fm3YGXTmUGLaDuZ8UJCxSYS4ZAvsN1Z3jawaESSNNs+7dP8hebYmZTg/XAXY5H2UZTmAAgNLX/o3jT2+n/wBBdjhfWXB6rgPup3V5LAS9jiQI78/T9q8xefe50wdx18CDuUWGJEjYoM/MTExGiCR2fXuIHh/eUlk/Vrqw6n0ptr3A3Ufo7vEQG7Hu/wCM3LVIIMHQjkJ7UlfEVHhRd2UpTO7Jy0HV/9bb6Kf8i9N/8J4v/nilW5VLox/yL03/AMJ4v/nilXJKmiNA0jufNZ9rKmPtfoytrnu1jRoL3a/JeL9U6lk9Tzrc7K1tudMA6NafoMb/ACG/mr1zrQe/pOdXRoXYt7fHU1vC8Ye8lo/qtDvi2WNTCz4Tos5/kkzJurDm1uLQ/kBQcVd6N0u7qufVg0ibLJPyaC7/AL6mM100ZKZP8UyCrUkkkipSSSSClKzhYpy7vRB2na90xP0Gl8ct+kqy2/qrTuzLLiPbVWQf7Y2O/wCiiBarc2jItxHO9MlpIgtnidFXJn5mVpfWDHbj9TtDRDXgOaJnlZiRFJt0eg9Vv6X1CvIrMsJDLWE+1zTp7/6v0l6eyyuyttlbt1bgCHHU6iV5ACYjsV6X9W3ud0LCBM72Hd/1shrE0haXVTOPCYuKYklIBjAo2//X2Ojn/IvTdf8AtHjf+eKVaJ81T6R/yL03/wAJ43/nilWlYGzRlufNfaxx2WDdW/2vbMS06Pb/AJq8l+tPQrejdRuqaHPxHu3490EAsdJYx2nstrXq79pY4P8AokEO7ad9VXzrentqb+0W4wo0az7UGObJ+iW+t7fU/cQ4L6suKVB8i6d0fqXUXfqmLZewHa54a7YCf37foNXf/Vb6tP6M0X3OY7MfAc9pE1VzD21fnPsc391bzAwU1+iQceD6Jb9CP+D1c3/MTa7tOeyMcQHXojNkPCK01fG72FlljS0tLXOBDhBBB4c0/RQdVqdeFY6z1EVGa/Xs2n+2swqGe7ZibiD3CySSSalSSSSSlLpPqi0/rToO39GCY0k7vaubXYfVVlf7KcayN5t/TAmIgfoEY7okaCuvdMszseu6loF1DYiNXajn85cnYy0PIe0teOWxEfJeiNBJ0O0+MT+CqdQx+hZDWszbKWOBO1xcGOkxuj3NTjFUSK1eGrY5xDA0+9waDHdeodNxfsfTqKSfdWxjS3ggw3f7fzfd9NYnSul/V/EzBbjZdd2Qf5gPsZYWnvtqZ/O7v+gugBkwdCOSfFMMStMtUhPmo6pAiT5J0qKJEVo//9n/7Rk4UGhvdG9zaG9wIDMuMAA4QklNBAQAAAAAAA8cAVoAAxslRxwCAAACAAAAOEJJTQQlAAAAAAAQzc/6fajHvgkFcHaurwXDTjhCSU0EOgAAAAAA5QAAABAAAAABAAAAAAALcHJpbnRPdXRwdXQAAAAFAAAAAFBzdFNib29sAQAAAABJbnRlZW51bQAAAABJbnRlAAAAAENscm0AAAAPcHJpbnRTaXh0ZWVuQml0Ym9vbAAAAAALcHJpbnRlck5hbWVURVhUAAAAAQAAAAAAD3ByaW50UHJvb2ZTZXR1cE9iamMAAAAMAFAAcgBvAG8AZgAgAFMAZQB0AHUAcAAAAAAACnByb29mU2V0dXAAAAABAAAAAEJsdG5lbnVtAAAADGJ1aWx0aW5Qcm9vZgAAAAlwcm9vZkNNWUsAOEJJTQQ7AAAAAAItAAAAEAAAAAEAAAAAABJwcmludE91dHB1dE9wdGlvbnMAAAAXAAAAAENwdG5ib29sAAAAAABDbGJyYm9vbAAAAAAAUmdzTWJvb2wAAAAAAENybkNib29sAAAAAABDbnRDYm9vbAAAAAAATGJsc2Jvb2wAAAAAAE5ndHZib29sAAAAAABFbWxEYm9vbAAAAAAASW50cmJvb2wAAAAAAEJja2dPYmpjAAAAAQAAAAAAAFJHQkMAAAADAAAAAFJkICBkb3ViQG/gAAAAAAAAAAAAR3JuIGRvdWJAb+AAAAAAAAAAAABCbCAgZG91YkBv4AAAAAAAAAAAAEJyZFRVbnRGI1JsdAAAAAAAAAAAAAAAAEJsZCBVbnRGI1JsdAAAAAAAAAAAAAAAAFJzbHRVbnRGI1B4bEBSAAAAAAAAAAAACnZlY3RvckRhdGFib29sAQAAAABQZ1BzZW51bQAAAABQZ1BzAAAAAFBnUEMAAAAATGVmdFVudEYjUmx0AAAAAAAAAAAAAAAAVG9wIFVudEYjUmx0AAAAAAAAAAAAAAAAU2NsIFVudEYjUHJjQFkAAAAAAAAAAAAQY3JvcFdoZW5QcmludGluZ2Jvb2wAAAAADmNyb3BSZWN0Qm90dG9tbG9uZwAAAAAAAAAMY3JvcFJlY3RMZWZ0bG9uZwAAAAAAAAANY3JvcFJlY3RSaWdodGxvbmcAAAAAAAAAC2Nyb3BSZWN0VG9wbG9uZwAAAAAAOEJJTQPtAAAAAAAQAEgAAAABAAEASAAAAAEAAThCSU0EJgAAAAAADgAAAAAAAAAAAAA/gAAAOEJJTQQNAAAAAAAEAAAAHjhCSU0EGQAAAAAABAAAAB44QklNA/MAAAAAAAkAAAAAAAAAAAEAOEJJTScQAAAAAAAKAAEAAAAAAAAAAThCSU0D9QAAAAAASAAvZmYAAQBsZmYABgAAAAAAAQAvZmYAAQChmZoABgAAAAAAAQAyAAAAAQBaAAAABgAAAAAAAQA1AAAAAQAtAAAABgAAAAAAAThCSU0D+AAAAAAAcAAA/////////////////////////////wPoAAAAAP////////////////////////////8D6AAAAAD/////////////////////////////A+gAAAAA/////////////////////////////wPoAAA4QklNBAgAAAAAABAAAAABAAACQAAAAkAAAAAAOEJJTQREAAAAAAAQAAAAAgAAAkAAAAJAAAAAADhCSU0EHgAAAAAABAAAAAA4QklNBBoAAAAAA1MAAAAGAAAAAAAAAAAAAAC0AAAAygAAAA8AZQB6AGcAaQBmAC0AZgByAGEAbQBlAC0AMAA0ADEAAAABAAAAAAAAAAAAAAAAAAAAAAAAAAEAAAAAAAAAAAAAAMoAAAC0AAAAAAAAAAAAAAAAAAAAAAEAAAAAAAAAAAAAAAAAAAAAAAAAEAAAAAEAAAAAAABudWxsAAAAAgAAAAZib3VuZHNPYmpjAAAAAQAAAAAAAFJjdDEAAAAEAAAAAFRvcCBsb25nAAAAAAAAAABMZWZ0bG9uZwAAAAAAAAAAQnRvbWxvbmcAAAC0AAAAAFJnaHRsb25nAAAAygAAAAZzbGljZXNWbExzAAAAAU9iamMAAAABAAAAAAAFc2xpY2UAAAASAAAAB3NsaWNlSURsb25nAAAAAAAAAAdncm91cElEbG9uZwAAAAAAAAAGb3JpZ2luZW51bQAAAAxFU2xpY2VPcmlnaW4AAAANYXV0b0dlbmVyYXRlZAAAAABUeXBlZW51bQAAAApFU2xpY2VUeXBlAAAAAEltZyAAAAAGYm91bmRzT2JqYwAAAAEAAAAAAABSY3QxAAAABAAAAABUb3AgbG9uZwAAAAAAAAAATGVmdGxvbmcAAAAAAAAAAEJ0b21sb25nAAAAtAAAAABSZ2h0bG9uZwAAAMoAAAADdXJsVEVYVAAAAAEAAAAAAABudWxsVEVYVAAAAAEAAAAAAABNc2dlVEVYVAAAAAEAAAAAAAZhbHRUYWdURVhUAAAAAQAAAAAADmNlbGxUZXh0SXNIVE1MYm9vbAEAAAAIY2VsbFRleHRURVhUAAAAAQAAAAAACWhvcnpBbGlnbmVudW0AAAAPRVNsaWNlSG9yekFsaWduAAAAB2RlZmF1bHQAAAAJdmVydEFsaWduZW51bQAAAA9FU2xpY2VWZXJ0QWxpZ24AAAAHZGVmYXVsdAAAAAtiZ0NvbG9yVHlwZWVudW0AAAARRVNsaWNlQkdDb2xvclR5cGUAAAAATm9uZQAAAAl0b3BPdXRzZXRsb25nAAAAAAAAAApsZWZ0T3V0c2V0bG9uZwAAAAAAAAAMYm90dG9tT3V0c2V0bG9uZwAAAAAAAAALcmlnaHRPdXRzZXRsb25nAAAAAAA4QklNBCgAAAAAAAwAAAACP/AAAAAAAAA4QklNBBEAAAAAAAEBADhCSU0EFAAAAAAABAAAAAE4QklNBAwAAAAAEA8AAAABAAAAoAAAAI8AAAHgAAEMIAAAD/MAGAAB/9j/7QAMQWRvYmVfQ00AAv/uAA5BZG9iZQBkgAAAAAH/2wCEAAwICAgJCAwJCQwRCwoLERUPDAwPFRgTExUTExgRDAwMDAwMEQwMDAwMDAwMDAwMDAwMDAwMDAwMDAwMDAwMDAwBDQsLDQ4NEA4OEBQODg4UFA4ODg4UEQwMDAwMEREMDAwMDAwRDAwMDAwMDAwMDAwMDAwMDAwMDAwMDAwMDAwMDP/AABEIAI8AoAMBIgACEQEDEQH/3QAEAAr/xAE/AAABBQEBAQEBAQAAAAAAAAADAAECBAUGBwgJCgsBAAEFAQEBAQEBAAAAAAAAAAEAAgMEBQYHCAkKCxAAAQQBAwIEAgUHBggFAwwzAQACEQMEIRIxBUFRYRMicYEyBhSRobFCIyQVUsFiMzRygtFDByWSU/Dh8WNzNRaisoMmRJNUZEXCo3Q2F9JV4mXys4TD03Xj80YnlKSFtJXE1OT0pbXF1eX1VmZ2hpamtsbW5vY3R1dnd4eXp7fH1+f3EQACAgECBAQDBAUGBwcGBTUBAAIRAyExEgRBUWFxIhMFMoGRFKGxQiPBUtHwMyRi4XKCkkNTFWNzNPElBhaisoMHJjXC0kSTVKMXZEVVNnRl4vKzhMPTdePzRpSkhbSVxNTk9KW1xdXl9VZmdoaWprbG1ub2JzdHV2d3h5ent8f/2gAMAwEAAhEDEQA/ANzoZ/yL07v+pYvOv+AqPf4q+PgPuH9yqdFn9h9M/wDCWKfkaKVdEwkwSnqdFQI4H3D+5RgHsPuCmmPCba6GurCB20+Gn5EvmfvKcpkEy2YJaKeqZK1rDRMpmVEkN50S4lUxPCipOIj+4E/kUTwnad0a9mJAJ7/eVHa3w/EqaZIKBR7R4flTFo/1lS7KKLMBTBwE/wC9Qj/XVTdyo90lh3KxAhRgeCmou7JMZD//0Oh6L/yJ0w/90cUfdRUrqpdF/wCROmf+EcU/fRUrqTVluV0x4TpimsuPYsSEycpkElSaE6RQQsBLoJjSZPCyeqdfx+nuDaj6lp+kBGn3q51C/wBHGe7gAST5HRZWF0akt+25LS+0+4h0bdfLbu+j/LUWTLwtjl8AmdRo5Vn1r6o5pdU04wHLQArHTvrX6tpry2TprY2AQZibN35n9VamXjYcMb6TGvs040XNdX6S3GuN7CQ390EQf5L9PoqOOXUU2J8rHhOj2TLGWMD2Hc12oI7hOuf+q/UvVqfiuINhcXVDXwYNnP0PauhMSY4VqJJFudOJjOuiPsmTnhMnM3Zg7lQ7qbuVA8pWxHcqUXKSZyK1/9Houif8idM/8IYn/nipXVT6J/yJ0z/whif+eKldSasvmKkxTnhMgWXHoNVimgJ0k1JWhMS1sOcAQNSD3Tk6IOSwWUPZ3cCGu/dMH3ppTDd54dVZ1jKysBvtZ6opf/JYALd7f7S1MrqOFRY3CN9TriA12P67WObAgNc0j27m+9UPqh01mJ9qtezda2yHukahw0dyreb0Lp+VeHXNDSyX1BhAcX8QfzVVnXEXT5eOg0/BWbVjmpmQ5+lfuO7j93j5rmOoZrbbxQLd4fI2wQAACe62frDW/Jurrp/RilkNGn0liO6b1VvqDOtORWxm5jy4GDMbdu7d9FNhXENmWYPCdC5PRuouxs2uxji19FpD3Dkgw2F6OCS0GeRP3ryrAqe7NyWtElxaGjTWHsd/31epViK2A8holXIb/Rzc9X9VzwmSJEKJcCpGMWp3KgeUiRKieSm2sO5XPCiSUkyctf/S6Pon/InS/wDwhif+eKldVHon/InS/wDwhh/+eKldlOpglE2V0ySSbS4KTd06ZNISWJ4KqdRu9PDfrtLyGB3ZpPu3H/NVp3BVXMrF1DqnQA/Qk/8AfU2Xypx/OGn0J4t/aj6ngsZdXWfKK2Wuf/V96ldk9PFlguzLGWF3DXPAbPZrQwrL+r2/D69mYT3A0ZWObAO5sa+ulv8A4G5dBeXOY0B7mAaAMMARp4FUpj1F2MJqIt5dzrMjPF78iq/YZLqXS3wTdayxXSY00g686KGT9mryXPDQ3br7QG/9QGtWF9Yeomw+lWRA1PwiEoRJIIXZMkQDdtbpgjMNvIe4afNel9h8B+ReedBx/tOZj1aw8y+OYGui9B3eHCtx0Dlcx8/4rO+iVBSJJCiU61u7F3KZM9x3fJR3FJaQzTFKUiiCsf/T6Lov/InS/wDwhh/+eKlcVLov/InTP/COIPmKKlcTxswSlqWSZNITEhAheGSWvPbxQ7LqaarLrrG1VVNL7HvIAawf4R0/mfmrl8v/ABk/Vym0sqbk5bREPZW1tZkB3tGQ6u3/ADq00hNdnqnaAzMaqlfj5NhaXPDKC72uOvugwHf2dyqfVz634fWm5tldF9NGE1rrH2Fr4dcXM+iz9I7+b/wbVcyupMxMk0bRZTcIB7bne5jh/Ya9VcszdbNvl8F+onYtPG6Rbj9S+23+m6AWVlgAEE7/APqlY6g5wpeytxY5h+k0wdfd+b8VSozr7cW9wA9Ku2GGY9oY2x3/AFSNiWjL3XNM1vZsa7j3eCrlvDZ5PJryzPqTDh7iZ1VPoPQmda6v9lybnVVhj7HvgOJawTs9667rtDH7WVshg+k8a7R/V+k5c/0SvM6X1qnLewvx9zmPdodrXD3P2D3p0JVotlHidrpn1Xo6Rfbf67rWUmGWEBp2lrbO39daDMnHua00WBrnCdrm6f2SfpIWd1Gu3oeQGloyH7mV1TqZLWt/8DScGevTSJ9PEoZMg6NjRPjkIPe2PJgEjd1omMwVEkoGNmV32vDXAlw37To4tnbvDHe7ZuVh2mh5U8TYtp5I8Jpg7lQ7p3kT8lHuixkMgdU5UEkQxkaP/9ToOiH/ACH0z/wli/8AnilXZVHop/yH0z/wnjf+eKVcTxs1CTqpM5wAJ7x7R4ke7b/mBzkpTtcGOD3asrl7vg0F/wD1Q/zEjsyxJsPn3+MjrrnZTOhVj9HQG25cHm13vZS6B9Gmv3fuer/xa4d20AnjSWjx12o3UMqzMzb8u1263Ise97vi47YW79Rvq2/rfVG5FzdvTunltuXaeCQd1eOz95930VHI0LZ4Czo9t9UPq7d0Xol5yXfrPU2susxy3aa2AWNZW5+53qfzu/6LFnZLsg24uMHRXhltbPziWsD21z/nrpvrH1F1Vcs/nbAGtHJ01YxeZde61ZVfsxbT6odue8cDQyz8VUA9yWjd4vbjr5vS5TcllbcKizR5L3jaQTua2r97+Qt7Axxj4FNDdC2DJ8uy836F9ab8LqLb8+cil2jieW/1V6Vg5+H1FrbcS1lwsG4AHafDVn5qZmxyidIr8WUSGq7atrCLD6juzoj+9ZnXerY3SaWGwt/WDtrI5LYLt8a7Vc6z1bp/RMYW59g3vE10NdNrj4emyWsXlXW+rX9VzrMu6AXGGVt+i1vbZ+6nYsJO6MuUR+V65gblMdaywE2RtcOWx7vFWaqM9z3ZByHmPa9p/OAXDYHVcnGexof+inWRK77prHZWFVkUWb67oGzuH/nBOy4uGNjosx5uIkHs8/8AWTKzOn9Uxs3GDmhtZNds6P3GX17fzK2sPsYuv6b1KrqmHVnV/wCEYGvEzDx9JvZZn1i6Z9s6PcwtLr6R6lAGmoc11jf+2t6yPqF1DbbkdPJ0fX6tTfB7T+k/6CkxESgCw5o1PXqLeycJKj3U3Ebjt+j+b8ICgeU9gO6iVElOouRCCNH/1d7o3/IfTP8Awnjf+eKVbVPozh+xOmDww8b/AM8Uq3IUkdmkdz5rkgAkmI7qh1rK+ydF6hlA/wAzQ/WY1dFeyf3/AH/RVx2rSANxIOnj5LkP8ZPVAzCx+lMcKxlPORkhup2tH6Hj8y13/UJHYsuIF87aPaJgkSJ/H/vy9X/xd5WE/wCqjcZga3Jx7rX2DQbnkvNVn8t/p7GNevKn2BxB2hmg0HE910/1R6j9lw8mHRDw75KvmjxQIb2ChIW7v1r6q6uu25rpdWd1bgeCB/g3f+RXmtji57nkyXku511Wj1nrN3UXkTtqbO1o0lZSGGHDGlZ5XPQ2F5Pij42bmYrt+LkWUO/eqe5h/wCgWqukpGIEhJbfdc82W2Ose76TnOLifi5yGkkkqyVLtP8AF11Msy7OmvM+qPVxQ46C1n02s3f6Rv7q4tWun5t2Bl05lBi2g7mfFCQsUmEuGQL7DdWd42sGhEkjTbPu3T/IXm2JmU4P1wF2OR9lGU5gAIDS1/6N409vp/8AQXY4X1lweq4D7qd1eSwEvY4kCO/P0/avMXn3udMHcdfAg7lFhiRI2KDPzExMRogkdn17iB4f3lJZP1a6sOp9Kba9wN1H6O7xEBux7v8AjNy1SCDB0I5Ce1JXxFR4UXdlKUzuyctB1f/W2+in/IvTf/CeL/54pVuVS6Mf8i9N/wDCeL/54pVySpojQNI7nzWfaypj7X6Mra57tY0aC92vyXi/VOpZPU863OytbbnTAOjWn6DG/wAhv5q9c60Hv6TnV0aF2Le3x1NbwvGHvJaP6rQ74tljUws+E6LOf5JMybqw5tbi0P5AUHFXejdLu6rn1YNImyyT8mgu/wC+pjNdNGSmT/FMgq1JJJIqUkkkgpSs4WKcu70Qdp2vdMT9BpfHLfpKstv6q07syy4j21VkH+2Njv8AoogWq3NoyLcRzvTJaSILZ4nRVyZ+ZlaX1gx24/U7Q0Q14DmiZ5WYkRSbdHoPVb+l9QryKzLCQy1hPtc06e/+r9JenssrsrbZW7dW4Ahx1OoleQAmI7Fel/Vt7ndCwgTO9h3f9bIaxNIWl1UzjwmLimJJSAYwKNv/19jo5/yL03X/ALR43/nilWifNU+kf8i9N/8ACeN/54pVpWBs0ZbnzX2scdlg3Vv9r2zEtOj2/wCavJfrT0K3o3Ubqmhz8R7t+PdBALHSWMdp7La16u/aWOD/AKJBDu2nfVV863p7am/tFuMKNGs+1Bjmyfolvre31P3EOC+rLilQfIundH6l1F36pi2XsB2ueGu2An9+36DV3/1W+rT+jNF9zmOzHwHPaRNVcw9tX5z7HN/dW8wMFNfokHHg+iW/Qj/g9XN/zE2u7TnsjHEB16IzZDwitNXxu9hZZY0tLS1zgQ4QQQeHNP0UHVanXhWOs9RFRmv17Np/trMKhnu2Ym4g9wskkkmpUkkkkpS6T6otP606Dt/RgmNJO72rm12H1VZX+ynGsjebf0wJiIH6BGO6JGgrr3TLM7HrupaBdQ2IjV2o5/OXJ2MtDyHtLXjlsRHyXojQSdDtPjE/gqnUMfoWQ1rM2yljgTtcXBjpMbo9zU4xVEitXhq2OcQwNPvcGgx3XqHTcX7H06ikn3VsY0t4IMN3+3833fTWJ0rpf1fxMwW42XXdkH+YD7GWFp77amfzu7/oLoAZMHQjknxTDErTLVIT5qOqQIk+SdKiiRFaP//ZADhCSU0EIQAAAAAAVwAAAAEBAAAADwBBAGQAbwBiAGUAIABQAGgAbwB0AG8AcwBoAG8AcAAAABQAQQBkAG8AYgBlACAAUABoAG8AdABvAHMAaABvAHAAIAAyADAAMgAzAAAAAQA4QklNBAYAAAAAAAcACAAAAAEBAP/hDMNodHRwOi8vbnMuYWRvYmUuY29tL3hhcC8xLjAvADw/eHBhY2tldCBiZWdpbj0i77u/IiBpZD0iVzVNME1wQ2VoaUh6cmVTek5UY3prYzlkIj8+IDx4OnhtcG1ldGEgeG1sbnM6eD0iYWRvYmU6bnM6bWV0YS8iIHg6eG1wdGs9IkFkb2JlIFhNUCBDb3JlIDkuMC1jMDAwIDc5LjE3MWMyN2ZhYiwgMjAyMi8wOC8xNi0yMjozNTo0MSAgICAgICAgIj4gPHJkZjpSREYgeG1sbnM6cmRmPSJodHRwOi8vd3d3LnczLm9yZy8xOTk5LzAyLzIyLXJkZi1zeW50YXgtbnMjIj4gPHJkZjpEZXNjcmlwdGlvbiByZGY6YWJvdXQ9IiIgeG1sbnM6eG1wTU09Imh0dHA6Ly9ucy5hZG9iZS5jb20veGFwLzEuMC9tbS8iIHhtbG5zOnN0RXZ0PSJodHRwOi8vbnMuYWRvYmUuY29tL3hhcC8xLjAvc1R5cGUvUmVzb3VyY2VFdmVudCMiIHhtbG5zOmRjPSJodHRwOi8vcHVybC5vcmcvZGMvZWxlbWVudHMvMS4xLyIgeG1sbnM6cGhvdG9zaG9wPSJodHRwOi8vbnMuYWRvYmUuY29tL3Bob3Rvc2hvcC8xLjAvIiB4bWxuczp4bXA9Imh0dHA6Ly9ucy5hZG9iZS5jb20veGFwLzEuMC8iIHhtcE1NOkRvY3VtZW50SUQ9IjcyMThERDIxNkI0MDEyOTFBNkY5NTAwRkVFMUEzMzZEIiB4bXBNTTpJbnN0YW5jZUlEPSJ4bXAuaWlkOjI5Mjg4MGNlLWJhNmUtNDczNC1iM2E3LWJiNzM4ZjY5ZmMzOCIgeG1wTU06T3JpZ2luYWxEb2N1bWVudElEPSI3MjE4REQyMTZCNDAxMjkxQTZGOTUwMEZFRTFBMzM2RCIgZGM6Zm9ybWF0PSJpbWFnZS9qcGVnIiBwaG90b3Nob3A6Q29sb3JNb2RlPSIzIiB4bXA6Q3JlYXRlRGF0ZT0iMjAyMi0xMS0wNVQyMjoyMjowMS0wNjowMCIgeG1wOk1ldGFkYXRhRGF0ZT0iMjAyMi0xMS0wNVQyMzoyNjo1Ni0wNTowMCIgeG1wOk1vZGlmeURhdGU9IjIwMjItMTEtMDVUMjM6MjY6NTYtMDU6MDAiPiA8eG1wTU06SGlzdG9yeT4gPHJkZjpTZXE+IDxyZGY6bGkgc3RFdnQ6YWN0aW9uPSJzYXZlZCIgc3RFdnQ6aW5zdGFuY2VJRD0ieG1wLmlpZDoyOTI4ODBjZS1iYTZlLTQ3MzQtYjNhNy1iYjczOGY2OWZjMzgiIHN0RXZ0OndoZW49IjIwMjItMTEtMDVUMjM6MjY6NTYtMDU6MDAiIHN0RXZ0OnNvZnR3YXJlQWdlbnQ9IkFkb2JlIFBob3Rvc2hvcCAyNC4wIChNYWNpbnRvc2gpIiBzdEV2dDpjaGFuZ2VkPSIvIi8+IDwvcmRmOlNlcT4gPC94bXBNTTpIaXN0b3J5PiA8L3JkZjpEZXNjcmlwdGlvbj4gPC9yZGY6UkRGPiA8L3g6eG1wbWV0YT4gICAgICAgICAgICAgICAgICAgICAgICAgICAgICAgICAgICAgICAgICAgICAgICAgICAgICAgICAgICAgICAgICAgICAgICAgICAgICAgICAgICAgICAgICAgICAgICAgICAgICAgICAgICAgICAgICAgICAgICAgICAgICAgICAgICAgICAgICAgICAgICAgICAgICAgICAgICAgICAgICAgICAgICAgICAgICAgICAgICAgICAgICAgICAgICAgICAgICAgICAgICAgICAgICAgICAgICAgICAgICAgICAgICAgICAgICAgICAgICAgICAgICAgICAgICAgICAgICAgICAgICAgICAgICAgICAgICAgICAgICAgICAgICAgICAgICAgICAgICAgICAgICAgICAgICAgICAgICAgICAgICAgICAgICAgICAgICAgICAgICAgICAgICAgICAgICAgICAgICAgICAgICAgICAgICAgICAgICAgICAgICAgICAgICAgICAgICAgICAgICAgICAgICAgICAgICAgICAgICAgICAgICAgICAgICAgICAgICAgICAgICAgICAgICAgICAgICAgICAgICAgICAgICAgICAgICAgICAgICAgICAgICAgICAgICAgICAgICAgICAgICAgICAgICAgICAgICAgICAgICAgICAgICAgICAgICAgICAgICAgICAgICAgICAgICAgICAgICAgICAgICAgICAgICAgICAgICAgICAgICAgICAgICAgICAgICAgICAgICAgICAgICAgICAgICAgICAgICAgICAgICAgICAgICAgICAgICAgICAgICAgICAgICAgICAgICAgICAgICAgICAgICAgICAgICAgICAgICAgICAgICAgICAgICAgICAgICAgICAgICAgICAgICAgICAgICAgICAgICAgICAgICAgICAgICAgICAgICAgICAgICAgICAgICAgICAgICAgICAgICAgICAgICAgICAgICAgICAgICAgICAgICAgICAgICAgICAgICAgICAgICAgICAgICAgICAgICAgICAgICAgICAgICAgICAgICAgICAgICAgICAgICAgICAgICAgICAgICAgICAgICAgICAgICAgICAgICAgICAgICAgICAgICAgICAgICAgICAgICAgICAgICAgICAgICAgICAgICAgICAgICAgICAgICAgICAgICAgICAgICAgICAgICAgICAgICAgICAgICAgICAgICAgICAgICAgICAgICAgICAgICAgICAgICAgICAgICAgICAgICAgICAgICAgICAgICAgICAgICAgICAgICAgICAgICAgICAgICAgICAgICAgICAgICAgICAgICAgICAgICAgICAgICAgICAgICAgICAgICAgICAgICAgICAgICAgICAgICAgICAgICAgICAgICAgICAgICAgICAgICAgICAgICAgICAgICAgICAgICAgICAgICAgICAgICAgICAgICAgICAgICAgICAgICAgICAgICAgICAgICAgICAgICAgICAgICAgICAgICAgICAgICAgICAgICAgICAgICAgICAgICAgICAgICAgICAgICAgICAgICAgICAgICAgICAgICAgICAgICAgICAgICAgICAgICAgICAgICAgICAgICAgICAgICAgICAgICAgICAgICAgICAgICAgICAgICAgICAgICAgICAgICAgICAgICAgICAgICAgICAgICAgICAgICAgICAgICAgICAgICAgICAgICAgICAgICAgICAgICAgICAgICAgICAgICAgICAgICAgICAgICAgICAgICAgICAgICAgICAgICAgICAgICAgICAgICAgICAgICAgICAgICAgICAgICAgICAgICAgICAgICAgICAgICAgICAgICAgICAgICAgICAgICAgICAgICAgICAgICAgICAgICAgICAgICAgICAgICAgICAgICAgICAgICAgICAgICAgICAgICAgICAgICAgICAgICAgICAgICAgICAgICAgICAgICAgICAgICAgICAgICAgICAgICAgICAgICAgICAgICAgICAgICAgICAgICAgICAgICAgICAgICAgICAgICAgICAgICAgICAgICAgICAgICAgICAgICAgICAgICAgICAgICAgICAgICAgICAgICAgICAgICAgICAgICAgICAgICAgICAgICAgICAgICAgICAgICAgICAgICAgICAgICAgICAgICAgICAgICAgICAgICAgICAgICAgICAgICAgICAgICAgICAgICAgICAgICAgICAgICAgICAgICAgICAgICAgICAgICAgICAgICAgICAgICAgICAgICAgICAgICAgICAgICAgICAgICAgICAgICAgICAgICAgICAgICAgICAgICAgICAgICAgICAgICAgICAgICAgICAgICAgICAgICAgICAgICAgICAgICAgICAgICAgICAgICAgICAgICAgICAgICAgICAgICAgICAgICAgICAgICAgICAgICAgICAgICAgICAgICAgICAgICAgICAgICAgICAgICAgICAgICAgICAgICAgICAgICAgICAgICAgICAgICAgICAgICAgICAgICAgICAgICAgICAgICAgICAgICAgICAgICAgICA8P3hwYWNrZXQgZW5kPSJ3Ij8+/+4ADkFkb2JlAGRAAAAAAf/bAIQAAQEBAQEBAQEBAQEBAQEBAQEBAQEBAQEBAQEBAQEBAQEBAQEBAQEBAQEBAQICAgICAgICAgICAwMDAwMDAwMDAwEBAQEBAQEBAQEBAgIBAgIDAwMDAwMDAwMDAwMDAwMDAwMDAwMDAwMDAwMDAwMDAwMDAwMDAwMDAwMDAwMDAwMD/8AAEQgAtADKAwERAAIRAQMRAf/dAAQAGv/EAaIAAAAGAgMBAAAAAAAAAAAAAAcIBgUECQMKAgEACwEAAAYDAQEBAAAAAAAAAAAABgUEAwcCCAEJAAoLEAACAQMEAQMDAgMDAwIGCXUBAgMEEQUSBiEHEyIACDEUQTIjFQlRQhZhJDMXUnGBGGKRJUOhsfAmNHIKGcHRNSfhUzaC8ZKiRFRzRUY3R2MoVVZXGrLC0uLyZIN0k4Rlo7PD0+MpOGbzdSo5OkhJSlhZWmdoaWp2d3h5eoWGh4iJipSVlpeYmZqkpaanqKmqtLW2t7i5usTFxsfIycrU1dbX2Nna5OXm5+jp6vT19vf4+foRAAIBAwIEBAMFBAQEBgYFbQECAxEEIRIFMQYAIhNBUQcyYRRxCEKBI5EVUqFiFjMJsSTB0UNy8BfhgjQlklMYY0TxorImNRlUNkVkJwpzg5NGdMLS4vJVZXVWN4SFo7PD0+PzKRqUpLTE1OT0laW1xdXl9ShHV2Y4doaWprbG1ub2Z3eHl6e3x9fn90hYaHiImKi4yNjo+DlJWWl5iZmpucnZ6fkqOkpaanqKmqq6ytrq+v/aAAwDAQACEQMRAD8Asi/l2yzS/CD4eCommq1j+Kfx8qEStlkrUWfJdWbWmrJtFW0yGSaSBbG10FwtgzA76DG9/wC4sf8AzUH+BujtxLAzEPR46QaSdMuMx8qg3HIWSmYA/wCP1966C/U+ngo2chsZhyNJP/FmxQ/K/wBKP2zP8A+3qycestRT0SoCuMw4OoD/AIs2LP4b+tH7SdOdN70tFKNLY7GKAdV4sZQQNcAixeCmjcrz9L29prr+zH+m/wAh6M9q/wByH/0h/wAI6xfZU0Pqp4vtXPpMlGz0cpU8lGlpWikaMkAlSbEgG1wPaDo+6xyo6qCtXkQb2/4umRP4P9ar29B8Z+zoo3v/AHFj/wCag/wN03VXkMa6qmtkGscS11ZKoOluQsk7KD/j9favoL9NrxhhZnmIvf8A4ETj+v8AST3sdXTj1heFAOGm+v8AysVH/X33vpzrBJElhqXyi/6ZyahAbHkJOZEDf42vb/X92Xj0zP8AAPt6jyRRWGmKKI3/AFQRpTuRY8F4Fjcr/he1/wDW936S9RpIwFFnm+v/AB3n/of+bnvR6unH8uoFSCIxaSb9Y/3fN/Rv+bnuvTvTdKW0j9yb6/8AHeb+h/2v25H8R+zrY6bquPyxqrTVagOGvFW1kDXCsLF4J43K8/S9vb/W+mmaghdQJJa+QagQsuUycig2IuFerYA2P1+vu8fE/Z0Ybd/bt/pD/hHTZWY2lWJSoqAfIB/wNrT/AGW/rUe3ujnpqkoKYqL/AHH1/wCV2s/of+mj25HxP2dL9u/t2/0h/wAI6iS0FOqgr9wDqt/wMrD+D/Wf270c9NGRpYlgQq1QD5VH/AurP9h/6ze25PhH29FO8/7ix/8ANQf4G6YJoVCiz1H6h/ylVP8AQ/8AN72z0Guo4iBPMlR/51VP/X33sdIdw/sV/wBMP8B6j1dPG0ahjMw1g2apqGF9Lc2MpF/fuifpsekgt+l/r/x2m/x/5ue7px/LpqX4R9vWP7SD/Uv/ANTpv+vnt7pP1//QtA/l5UNKnwQ+Hc6xWlb4q/G1C+uQ3U9S4I20lyv1Qfi/ujMQoNc9RBvO8biQIzcdgc/hXyqB+Ho5lNDGZDdf7B/Lf1X/AB901t69B/8Ael//AL//AOMr/m6coYY1YkLY6T+W/qP6n2kvJXWJSGzq/wAh62N1vwRSf/jK/wCbrlLEjKAy3F7/AFI5s39D7LvHl/j/AJDoXbS7XLUnOofs/wAFOossMSrdVsdQH1Y8WJ/J90eV3ADNUdDT6S3toVmhj0yE0JqTjPqSPIdQKgaUBXg6wP6/hv6+2+m/Ef16gsSwseeb/wC+t70XZMqaHot3Ql7dA3DWP8B6jyojKAwuL3+pH4P9D719RN/H/If5uiDQvp1gEER+qf8AJzf8V96a5nAw/wDIf5uvUAyOunpobfo/P+qf+h/2r3T6u4/35/If5uvV6g1MESxgqtjrA/Ux/Df1PvYu7gf6J/If5unI0SViriop1BMaH6r/ALyf+K+9/WXP+/P5D/N099Lb/wC+/wCZ/wA/WCaFNIsv9ofk/wBD/j7Mdsn8ad1ujqj0E+maj0zwr0g3GIwwK1t2yawK8cUPr+XTVWxgRLYf7sH5P+pb/H2e0sP99fzbol13/wDv/wDkvTPMLKOP7Q/3o+09wbdUBgWj19ScZ9enYZLsMfElqtPQf5OoUgBUX/r/AMQfaPxH9elPiyfxf4OocygKLD+0P96Pt+3dmcgny/zdVa9ubcB4ZKMTTgDj8wfTprrf8yv/AC0H/Qr+1nQm2qeW5ak7ah9gH+CnTPNwvH+qA/5NPvwJGQehulrBDEJY0o5NK1PD8z8uochuov8A1/4g+9629evV6ZcrxTpb/jsv/Qknv2otgnHRPvRItY6f78H+BukzOx0Dn+0P96Pv1B0GNbevWGI3Y3/p/wASPejjpPc96ANkV/z9c5UVlAYXGq/1I/B/ofeukXhR/wAPTbWIscalBYlwL3J40sfyT/T3YEg46T3SKsYIGa/5D03a2/r/ALwP+Ke7a29ekHX/0bW/5fUES/Az4QBVsKv4f/HGrqPUx8lQvVe20EnJ9FlkPC2Xn6e2j/Zr1B++ACVwOAkb/CejhxQxqxKrY6bfVj+R/U+2+iHqXGi3PH9k/k/1H+PtHff2S/6b/IeveY+3rt0XSOPz/U/0b/H2WdDvYvjHUGsGmMFeD5AP6/2W/r710P5/9xI/9N/n6aZTqUBuRqv/AE/B/p790g6jlF/p/vJ/4r7o/Dov3L+wT/Tj/AeuJjQ/Uf7yf+K+2uiPrG6KoBUWN7fUn8H+p91fh1o9YSAfr7a6r1gmjRlAZbjUD9SPwf6H3sdP2/xn7P8AN031CRxJqWLVdtJOp/2wQT5Dz9Ba3+x976WdJnK1NJi4DXNubGVQ1+ObHVMtJTGkiKu7VYkRY5neIxhNJYqdZNrgWYnujaIJAck0/wAvofTpTa2ou5DGwqAK/wAwPUevQQZbvTo2hnGPyvbtPj8p5Qn8PjgxssYksw0eVoHe1/8AavaT99P/ABf6v956X/uSP+H+Z/6C6UuP3Jis/As2EyWPytCwEkdZT1Mb1Li1hrgjbQsZDctpHNh+fZntW4Nd3Dxk4CE/zA9B69E+9bclpaxyKMmQD+TH1Pp04KdRs3I+v9P969n/AEGOuEyLpHH9ofk/0P8Aj7UW3xt/pf8AN0nufgX/AE3+fpprUXwrx/uxfyf9S/8Aj7XdCvY/jH+rz6Z5kXT9P7Y/J/1J/wAfeupDP+46f6b/AD9QnRbfT8/1P9D/AI+/dMdNOUjQ06XH+7l/J/1En+PvY6Jt7/3Ej/5qD/A3SZqY0EYsP7Y/J/o3+Pu3QX6iIoB4H4/4p70emZvhH29dv9P9j/xB916TdN9YAYlv/wAdB/0K3vY6S3f9mv8Apv8AIem3Qv8AT/eT/wAV976L+v/Stb/l4MZfgb8MfIdX2nxN+N1LT/QeOBup8AxTi2u7IOWuePr7qACoHl1Bu8kl9R4lz/l6OXCoLG4/sn/ex71oX06IupQUC5Atx/j7TXUaGNQR+L/IevDiOuDjj/Y/77/e/aDwo/4f8PQ72L4x/q9eosyK6gMLjVf6kc2I/BH49szRoqgqM16Ht0StnGR/H/kPTfUQxqgKrY6gPqx/Df1PtP0V+I/r1AdQBwPz/j/j7alNFFPXpHesWiUMcav8h6x+2NR9eiqg9OuLKCLEfn/H3R2NOPTkaKxIIxTrE6KBwPz/AFP/ABX21qb16d8GL+H+Z6hVAcNSFP8AN/dx/cCwOqn0S61ueVu2nkWPu6uq6jIcU6ssHcoiHdX+Xnx6Kl8nvlhs/pPD18ePoRUZSpQ4uCFJHqHiqZqeoqVqAk7TA6TR6eRb1ew5u+7yWuowSaR9gP8AhU9Srynyrtu5lPrLPWD/AE2Hr/C4619t/wDYfyp70q6zIbWyG4qDGHJmsV6XHY+FHpESohMGqLHKWVjUKeT/AGfYEl5mv7ljDPdaoxmmlRnhxCA8D1ONt7Ycp20CTw7PpmbBPizHHGlDKRxA6AndfXPeGPx6ZLJw5WbIxVStPVzU0ZkKCGdn+tPpUl1BuBf23+95P9+fyH+bp7/W/wCX/wDo3f8AVST/AK2dc+jPld211Rv6pWLd+Rwf2mDqYK6Gvo8VkqfI0QymIeXFw0uZx9dT0887xI4lhRJ1WMqrhWYFZY7/AH1tMXtLjTIVIJ0qcYP4lI4gdBrmr2+5dO2x6ttr+qP9El/hb/hnWxP8bfkVh+9tuQ1tPMlPm4KL7isxzCJJnhjkp4Za3xqq6UE06LwAt3Hsf7TvO5XTAT3Oof6VR/gUdY3c2cv2u2I5srbQRX8RP/HmPRmWdmFibi9/oPrb/Aex3buwQPXuP+fqH7a5vZtwkhuJK24UkCijNR5gV4V+XTfW/wCZX/loP+hZPanxpP4v8HUm7Eq6xjpnn/QP+DD/AKFPvaSOTQt5dSE6gWyUH4v8/UJzx/sf+IPt3W3r0l6aMqSKdP8Alsv/AEJJ7q0jgVB6Jt8/3Ej/AOag/wADdJmoJKC/+qH+9H3TxpP4v8HQV6ij3ZZXJoW6am+Efb12efr7vrb16T9Qq0ARLb/joP8AoV/d0Yk5PTFwoKAEef8An6a/bnSPw09Ov//Ttk/l7xJH8DPhBoXT938PvjjVVHJPknXqvbaiTknRZXPC2HP091X4V+zqDt8AEjAcBI3+E9HHjUBjYfj/AIke99EHWb2nufgX7f8AP1scR10QD9f6/wDFPaHod7F8Y/1evWCZQFFh+f8AiD7YuPgH29Dy7/3Dj/0/+Q9QKgAoL/6of70faTop6gyIthx+f6n+h/x9tTfCPt6SXn9kv+m/yHrDoX+n+8n/AIr7T9F3Xii/0/3k/wDFfdH4fn05F8R+zqNUDSgK8HWB/X8N/X210o6Se5cjPQYuR6eTx1M5aCnfRG+mUwTzXCyKyH0Qn6j2R7/dfSWSSg8ZAP5N8j6dH3LlqLvcDGfKMn9hHzHr1U1RdeUXyI7gzlTnqJs/t7BPUY+tpTUVdJH/ABpa2kEUpkxk9HKrLSCddIbSdV7XAIh7f96fvzn/AFf0esn+RdjGqPt/1Z/pdHbxewds9btR7W2vgqDFY4RLJUUpiNe7INKuDU5N62rAuw+kg9x0m9t470Pkf8P+l6yPXZUFlFUY1f5D/S6A/sWl2xuXdM2z4aegpL0klbOpih/cWN46Vk1G7oWasB9JFre1P77b+L/V/vPTP7li/h/w/wDQXVN/yx+K+18FnKrcsOPSRaSX7ykFPX5OIxV6xzPHO4grkWeNYw4McgaIlgSpIFhFyzuLXe4SRE/6ET/xpfkPXoN807Ih21NK58Uf8db+l0Hvwi+QVZ1t3PFXZjMeOhnw9VtvIwmnoUhmxdRmMJUtTeMU6xxOZsfG3lQLMAtg1mYGcdi+Mf6vXrFTnzZBokouP9X9LrZswVauWwMOcU6qfMSwVmJYWATHPBIWQFbeS8jKdTam4+vuTLf+yX8+sZN024WdwZAOLU/y+p65Vv8AmV/5aD/oWT290Jti+MdM8/6B/wAGH/Qp93j4/l1IMn+4sf8Apv8AP1Bf6f7H/iD7e6SdNWTAMCX/AOOy/wDQknuj8OibfP8AcSP/AJqD/jrdJupUCMWH9sf703troK9Qh7unH8umpfhH29dOSBx/X270n6g1bExrc/2x/wBCt7cj+I/Z0zP8A+3pu9u9Jev/1Lav5fAB+BvwXv8A94a/HL/31u1/dV+Ffs6gzmAlZGI/363+E9HIRFv9Px/U/wBR/j730GvEf16zqik2I/3k/wDFfbFwKoPt6ciZmcAnHXmjQC4H5/qf8f8AH/D2k0j06kHYvjHWCVFKi4/tD8n+h/x9p7kDQPt/z9D25ANpHX+P/P1CnjTQPT/aH5P9D/j7RdFmlfTqL4Y24K3/ANi3/FfbcoGkfb0mu0Xw1x+L/Ievfbw/6j/k5v8Ao72xQdF+hfTrFNDGqgqtjqA+rHix/qfaS8YxxKUNDq/yHqyqoOB1Db7WOWlerTXSrUK1Sutk1QiOUsCysrKOByCD7LfHl/j/AJDoXbTtllctSeDUPtYf4COq2+7PmTsrGd1ZfrjB1cKR7P2zW7xqMIjRzy1/2lbjdvGBZ5/LWhjJuNWssg/T9PYP51uZ12qAh/8AiQvkP4JPl1MPJnK+xDcHkFj3+E345P4h/T6Er4p9YZTa20N1blhSr+937k5ezxU0uPly0+OwUOuknxX2ZLINVRlYX1lSw8dr2J9xJPCl1q8ZdXrxH+CnWRnLu2bbaPGI4glTQVZsnOBVsmlelb/eLCb53I643L7miy0GunqWzG1Dh8X4FkRZEgrZoRBJVmYoVjHqZAx+in2Sz7NtqKHW2o1f4m/6C6lWSWSO0jCNQav8/Rcu0esZ9r72rd3Szw5Ey4mekp1mrJaRIp5Z6WqScGCaBXZVpWAVrqQ1yOBZN+7LH/fH82/z9I/qZ/4/5D/N1VD8hOy87Ll6fFZqoozQ5bLLho44XppXd5aLITRxEqnlVdFMTqBDcfXk+xjyRt1mu7XBEOfp282/jT59Brmq4mO2LV/9FHkP4W+XVNY3bTbe7G37gamYploYp32+wcxtS1K5LHPE4RSFqLRhuJA4P5HuYIJHtjWA6T+3/DXrH3mW0t7lXE8eoZ8yP8BHW2B8Ge6sv2z0ZtL+K5ZcpXbWxseHqJRSY+lKMvisjLQ0tMjEBPqwJ9i7l/cby6u5IJ5tUQjJAoozqUcQAfM9QDzZsO0rBFILTvMv8T+jf0ujj1E0jIAWuNQP0X+jf0H+PsXdBSCCK2NYF0n7Sf8ADXptndtA5/tD8D+h/wAPfgSOHR1a3U8zGKSSqAVpQca/IfPqE7tb6/n+g/of8PdtbevS3pryDsYV5/3av4H+of8Aw9p7iR1QFWzX/P0VbwqtbICMeIP8DdJ6qY+Mc/2x/T/Ut7R/UTfx/wAh/m6DnhR/w9QNR/r/AL17ft5pGcgtiny+XSe4jQICB5/5+sFRI6oCrWOoD6A/hv6j2s1t69ItI9OmupnlKC7f2x/ZX+jf4e3I3bUc+XWjGj4YY6heaT/Vf7wv/FPb2tvXrX08P8H8z/n6/9W23+XqAfgf8GL/APeGnxy/99dtf3VfhX7OoL5h+Nv+arf5ejmoi3+n4/qf6j/H3voMdZdIH0Htmf4B9vTsP9ovWKUkILf1/wCIb2l6kPYvjHUSR20/X+1/Qf0P+HtNc/2a/b/n6H1x/uJH/p/8/UdjqFm5F7/0/wB69oei3rGVAHA9tyfCPt6TXX9mv+m/yHrj7Z6L+o1USI1t/qx/0K3tDf8A9iv+m/yHqw49ITfC5Q7XytTi60UlTjqSpr2XxQStWxQ01QhokWeKUBpJJVa6gNZPra/sp6HWxfGOtWn4+9N7579+em99+56qqadMdDlMLVUE6inWXBHcu3J5kaGBYIzG09LEdenXxa/J9g7nb/kk2/8Az0L/AMck6nLk3/c1/wDmk3/Hh1f58rOltzVnXWK2hs7sndGwtuUcdLUuuzM5lcFkquojxeRpUxtRnMPVUmdbFzNVeR6Y1P27SxRuyFkQrF3U/wCxfGOiafBv41/JfYm68nSdydhbp3F13PPV5nbzbk3DksozpFUUy08KtXVMtQZGpZpSJWcyAAjVZiCmuv7Nft/z9D+f/cSP/Tf5+irfN35HbxoN+bpwUUWRzWx9r5TVBiaJFpXqJqeCqgWEZTHx0+XkDQSyek1BBNja4BCDpB1VvSby2r3fmRW7Z6+zGydybdlbOk5DcO7MoGWkBoJJhR53MV9HqaXJKf8AN8Dj6E3GnJ8fhbvcLrVv8WOVNR8adBnmk12xcf6KP+Ot1WD2rW5Km+TmJSoqG+7r8zjKbIERxIJ6epy1DT1CNGsaxx+SNyLqFIvcEHn3LEMYazuXI4MtP2N1Be/nj+fW0n/KRqZ02P2LQLI32lNvfdFLDCbMI4MbW4uCijDsDIfDFUuLkktquxJAsb8r/wDJQm/5on/jydQnzb/uLD/zV/yN1b9O7aBz/aH4H9D/AIex50Aem+d20Dn+0PwP6H/D37pbY/2zf6X/ACjpsq5ZEjUq1jrA+injSx/IP9PfujXpnqJ5XQBnuNQP6VHNmH4A/r7TXX9mPt/yHor3b/cZP9OP8B6Za+R1hUq1j5APoD/Zf+o9oOg90zPUzAcP+f8AUp/j/tPtRa/2h+z/ACjpPc/2Y+3/ACHqPLUTMoDPcar/AKVH4P8ARfa/pD1DlkcqLn+0PwP6H/D25H8R+zrY6j62/r/vA/4p7e631//Wt0/l5Kp+BvwXJH1+Gfxy/J/59btb2/HGhoCMU6hnfIY2c6l/0Q+vz6OaFA+g/wB79u+DH/D/AIeg/wDTQ/wfzP8An68faa6jQRii+f8AkPRntNhaT3LrLFVQhPEjNQPI/PrFIAVAP9f+IP8AxX2h0L6dC+CGK2NYF0n8z/hr1HdFI+n5/qf6f6/tieNCgqPPo2iu7ib9KSSqDNKDj+Q+fWLxp/T/AHk/8V9pfCj/AIf8PTtT1hnUKgIFjqA/P9D/AF9tTRoFFF8+kl4xES0P4v8AIeoMrsqgqbHVb6A/g/1HtNoX06LNbevUColkKC7f2gfoP6N/h7strBPqWVKqBXiRn8j0kvbmaGJGjejFgOA9D6jpHbyrKbHbcyOXruabDwSZCW7si2VHp/3ArKHT/Kf0tdT/AEuB7DO7otqGMA0/z/w16knkxmujEZzqJP2evpTquL4yYbZUHzMWQ4qON987Vz9dUiKrroEqscuRwtQQIoqpEib7yOFtcYR/Ta9mYGHucdyvGsrZGm7PHB4L/C/y6yt5J2ewe5npb9/07U7m41FPPo+3YnYu0do4bzZoK1Nl6nKYCnWagymbBqUqfuKJVpqGQ1MLR09FIPLcC3BN2HuOPrbnP6n8h/m6yI2TYtsLrSAih8mbPyNScfZQ/PoFMj3pszI4KtXJZp6bP4DB1T4qdsRn8DBHj0eCM0yw18iYqplZ5EI1RtOQpsdOu9Wu5nUIzVzXgP8AV/Lod3Gw7cIY5BEdFaadRpX1/irQU+Kny8+qmMJunaHZvY+XwFRgoK9TWT52prpmnZKqanqI6Cx0yhbMuSJ0iym304HtvxZP4v8AB0i/cu2f8o3/ABp/+gunrsnq3qDZOSzO7INo0dBk6rblVjFqqeuy8KE1E9HWFftFyAoyxahBv49XH9L+z/ly8ube/d4ZKMYiOAOKqfMH0HQb5q2XbP3an+Lf6KPxP/C39LrV97jocZX/ACYosnHBfRmY3hcSzAI9PUrVQHSJAraJoFbkEG1jwSDMmz3k88ckMslUZgSKAcKjyHz6xj50tYLcuYY6UB8yfT1J62pv5Ym38RiurNxZCgpPBWZLPVVdWzfcVUvmqsmYp66XxzTSRR+eWmQ6UVVXTZQATcf7Zbw2xM0KaZSKVqTitfMkeQ6xV5z3G8W2iCzf6OPJf4W+XVmNS7BBY/2x+B/Q/wCHs3+ol/j/AJDol2ljctSc6h+z19KdMGTqZ4oEaN9JMqgnSh40SG3qUj6j376iX+P+Q/zdDF7G1t4FliipIWpWpOM+pI8h0wvW1Ug0vLqAN7aIxzYj8IPwffvqJv4/5D/N0moOm+sqZ0iUq9jrA/Sh40t/VT/T2zPNKUALefoOi/ckVoEBGNY/wHponqZ5ECu+oBgbaUHNiPwo/r7S+I/8XRJ4Mf8AD/h6igluDyPr/vre3oJZA5o3l8uk9zDH4Y7fP5/PrhMAFFv9UP8Aej7V+PL/ABfyHSLwY/4f8PUKT9I/1/8AiD7egmkLmreXy6o8aKKhesPtV4j/AMXTWkenX//Xtw/l5M3+yG/Bbn/uTP45/gf8+t2r7VReX2dQ9vf9of8ATn/L0c9GJPJ/Ht/oh69ISALf1/4g+0t3/Zr/AKb/ACHo42T/AHLk/wCaZ/wr1hLE/U+y/oUdcG+n+x9szfCPt6UW3xn7P83WP2m6W9YpgCov/qh/vR9sz/APt6SXv9kv+m/yHpuqVAjFh/bH+9N7S9FfTJXOyQqVNj5APoDxpc/kH+nt+D4n/wBKei/cv7GP/Tj/AAHounyRz+TxHVuTemV56KtqYaHOU8ccZaowr01bUVEXlCGanBqaaE64mSQWsGAJBCu//C3Un8if6D9v+fquv4adp7P3t/MDpNtVEIxVNifjfu1NlNLUVAFNu3+/3V9LTaZGn118rYmprQI5zKhBLadSqVgznH/cOD/mqP8AA3WYfIdfrXP/AAg/8eHVk+/shntvZSeDaPWWa37k9vZWRKmnw+Whx00H3Sz1E+Sklykj0ckIqI0Qxhb3lBAsD7j2hJIAz1kRsbopVmYBT646It8r+3Dntj/bdxdB9v7cx0WXgFDldsZXF5aqOVGMyq09NW0OH8ZjxrUbzu8pXSskaLe7D3smpyM9DuSMR2UYRv09fD9uakk9EH6UyGw6PJNlNsVdbDLI7wnF5qNo8zBTvNFK01Qr39KSRIrf7Uw966RdJz5g9qy43A1XkrgsXpjgAiphpmNJVlTq8Wp7IrcG4Ps52L/c1v8Ammf8I6DXNX/JNj/5rL/x1uqAKRabc++4c/XoKqpTJsYZ9bxaXtKVPjgaKJrC/wBVPuY9i+P8+sV+ev8ARfs/zdbUv8sWaSbpTMyytqdc8kStZVsgim9NlAB/SOfr7lCz/s/9XqesQOdf9x4/+egf8dbqx6qdvGOf7Y/A/of8PavpDsXxj/V69J3KMTTpc/7uX/oST37oe3P+4cf+n/yHph9+6LOoOQJEK2/46r/0I/tqX4R9vSDcf7Ff9MP8B6ZixP1PtP0T9cbkfT27D8R+zpPc/APt/wA/XTHULNyL3/p/vXtT0h6jzKAosP7Q/wB6Pt+3+M/Z/m6bk+Efb1F9rOmev//Qto/l5u3+yFfBQ35Pwy+ON+B+erNrE/j2Z2kaPIVYY0/5R0Cd622y8BZPB7zJxq3mGJ8+jlCWQfRv94H/ABT2YfTw/wAH8z/n6DX7vtP99fzb/P1zWR3NmNx9foBz/sAP6+0l7BEIlon4vU+h6V2drBDKzxJRtNOJPmPU9eckDj+vss8GP+H/AA9GXWIsx/P+8D2zPDHoHb5/PpyNirEg5p11c+0nhR/w/wCHp7xH/i64OSRz/X/iD7amij0jt8/n1SQmQBXyK9Qar/Nj/g4/6Fb2l8GP+H/D0z4Uf8P+HpN5hmSmjKGxM6j6A8eOX+t/6e3I1hj1sy40n16LN1hrBEIxnxB+yh9egj7Eof49tiqwtRUxxUmTf7SrWWOIieneGdmgV2TXEzMobUhVxpsDYn2Ed+ktqP24/PqTeRLWYmKgx+Xz+fWvN2btnNfHr5nfHXsHauY/hWNk71662lnvBHBVfc7R3FnkjzONkeujq2jiq0p0BkUrMhsUdTz7hPmo2klkFMdX8QacnBzU/sqM+vWZXtzak383jCoFuf8Aj6+h62WMxmKTMzZGahIGO3BNX5lRESjzNRZfKYmKT7hCJ9C0pVdIfSSNRBbn3H5jjJaiYJ+fU0WjS2awmOT9VUpX14VNOGSPTHlxPRFO/wDE4TEbcyuSEdXFNUSvSvIuVyyh0enqZijJ994ypMAP0/HtPOioqlRQ16OBvO5SIY3uaoASO1eP+8/PqoGPde1ttVM+Tmp6eN3yJphUamWdndZZgrTFvK6nwXIJIJF/qB7EG07dZ3LUnh1D7WH+AjoL7vzFvFqGMF5p/wBoh/wqeqs/nB3xW7hqJsFhctoWCqSsaJaehkPgjpK2nPreneS2upX8+5M2XlzYY5Glaw7tJHxyev8Apvl1EfNvO/NhtbaOPde0zCv6UORRv+F9FI6eM+Uxryu3kyTTL9jNZVKVbTRxhxGgWJ/2ncWZSvN7XA9jCC22y2NYLbSf9M5/wk9BbdEutx22Se8k1zaeNAPL0Wg8utxH4WbFg656M2rSQUpo8hn6KHNZNzLUTGqqCgUzaKmWZIOZv0xhE/w9nNveVJSPGK/6qj59Yl8yW8824TWsxrbq2oDHHIrUGvAkZPRr6ipnKC8n9of2E/of9p9qvqJf4v8AB/m6KoIp7Y1gfSfsB/w16a6p3kjCu2oBwQLAc2b+gB/Pu6TSE0Lf4OhFtt1e3MrQ3c2uEKSBRRmoFagA8Cfl01VHoQFeDqA/rxYn83/p7c8R/wCLo58GP+H/AA9J7M1EyUsZV7HzqP0qePHKfyp/p7bkkcgVPn0ivoYjCtV/F8/Q9Jd66qA4l/P+oj/6M9s629eir6eH+D+Z/wA/WWlrKmSQq8moBCbaIxzqUfhQfofbsTsGND5dIr+GNYVKrnV8/Q9OCSOTy34/oP8Aint7xH/i6KdI9OvSMSoufz/xB9vQyyBjRvLpmcAIKevWH2p8aT+L/B0l6//Rtg/l5u3+yE/BTn/uTL44fgf8+s2t/h7NbL+1b/S/5R0F96/3Fj/5qD/A3RyNbf1/3gf8U9mvQY6yRu1zz+P6D+o/w9o73+yX/Tf5D0/B8Z+zrIWJ+p9lfSrrG5IHH9f+K+2J/gH29WTj1geRwOD+f6D/AIp7SdO9cPI5+p/3gf8AFPbU3wj7etHrBUMSguf7Q/3o+03Wuk9mk1ULtrCNE3lTgHWyo4CAEHk6v949ke/3RtLJZRxMgH8m+R9OlVnaC8nWI+lf2fmOigbvyXYG68nFtvFYGYw0dWMl9xMPt4Z0p0mpDAkyhGLv96CBfkKT+PcPb/vbd+c/6v6PU/ci7IA0fb/qz/S6r/7p+P8AvzsTtPZlFm+upsXQbd3Zgt4yZta/Lus9Rt+q89FAB974kK1ssc/pA1eDSbozKYvudxN05jrwz/hHoPXrLDljbxaM8gGDHT+YPqere6anoMHgtu2iMdNS4x8RGrSzSFZ6yeTKTgtJI7uZKlZH5JIvYWWwCToYdVDfN/sPsPDTvjsbkXl2/UZKNBjkxuKkId6PIESGqagessEBFvJb1f1t7TXPwL/ph/l6cj/H/pT1Sp2Bm9z5PGZKmEc9H9nrysMhhj9NXEkkCn1R+r0VTek3X/DjgV7F8fQR374W/wBXp0TPpH4ydpfMHvbbHVu05cZVbu3blpKCeszcz0NJFhYkeasKrRGnhEwmSKxADadXPuQZrtbSy1muotQUpxzxqDileHnTqLry1+rlhT0av+H5jq1/av8AJj716X7Wxm1N21W18jt2uiqNxYuqwNfV1U0UeGyePoKqklJqGJgaSv1M7EuGVQDYkEqO9ufxZ/1f0ehnNssf7mckdun/ACf6bq//AGdtSkwWKw2yTk8ec5t7AKFiqahKYJQQPSwSQgKyLJIZ5I+Td7A8/X2JOVtwa73CaMnAhJ/40g9B69Ynb/sijeLk+X+yf6XUetfMwVT01Xiqano0uY8jBUvN5pQQEh0s7oA8ZZrgf2fY9/Pop/cyen+r/eumyrnlWNSrWOsC9lP9lv6j3dOP5dMzbetogkHmaf5fU+nTVLUTMoDPcar/AKVH4P8ARfbvSXpqr/3YVWT1KJQwH05CuL+mx+h90fh0jvv7Jf8ATf5D0n6uJEjUqtjrA+pPGlj+Sf6e2uivqJC7IxKmx0kfQHi4P5B/p7cj+I/Z0g3D+xX/AEw/wHpwp5pGchmuNJP0Uflf6D290TdSXdrfX8/0H9D/AIe3YfiP2dMz/APt6xa2/r/vA/4p7UdJOv/Stg/l8gL8C/gsF4A+GnxyA/PA6s2v/X2a7b3Smv8AB/lHUV7vud8XeEz/AKYc0FF8tQ9K8Ojh3Ps60r6dEn111/v3+Q/zde1svINv9gP+Ke2poo3UBlqK/Po02m4mnuXSV6roJ4AeY9B17yyf6r/eF/4p7T/Swf77/mf8/Qi0j06xSzSaR6vz/Rf6H/D2kvLeFYlKpnV6n0Pz6U2kUbyMGWo0/wCUdY45HdiGNxa/0A5uB+AP6+yzwo/4f8PRh9LB/vv+Z/z9ZHnmpl1wYmozDN6Ggp4KypeBCCxq2jo5oZAkZUKSSVu4uLke/GCJlaqcBXieizdozDbxtajTIXA9cUPrjjTpsqKyaOCrl+3jkqHhUQY+tSTD/aslRBPPUJUVlTaolWkhlj8RvcOWAutwFd3nltQfAbT+w/4a9KdqsnuSBONX8v8AAR0tv7uYTdu36/dmKx9ZDhq2po4duxGrM9FTVVNR1S5Bo6qKd6iqd6hf0yvIgF7D6e4j5s3vdGs4UN12+KPwp/C39HrID2r5J2DdN8uo9z27xIVtGYfqSL3eJGteyQHgTjh+dOg0jyu19wQVuws/kKXFblwEUu56CvVosfNroSuNjiY0ppvuUP8AFrmOTWjFQSCVFo2nle6DeO1Sfy/LFOskbPlDl/a3jNhtpVeBHiSGnz7nJxwp8/l0X6i73xFVuDcewc5W02XzmEwNbmYK4wUkTiko67H0FgtNDCj2fILywJ49kd1awW6CSGOjk0rUnGT5k+nQvtSYuyPC0/1ceg7yvbK5PamRiWsVpaCsWsoiI6ceGeMS06SWWIeQLHUMLNqXm9rge0OtvXpZ40n8X+DpJ7m6Ux3bS4KbJ0scxqMO2XqppJaiJZpInip7hYJokQlaw/pAHtqZiyip8+qvcTItVelccB/m6p6+X3VVBseqzmK2/SRVIhppXloadpZZEjVHDTmR3kn0o2lbarXbn8e3YNxvbY1gm0n7FP8AhB6LbiNLqonGr+X+CnRNv5YvZlB1p83urMzXJFt9Ic9WUFTWVUUU6SR5CJqM0qrXrPDFJK8oYOoWQaDYi59iOLctyvIo1ur0SQU1BdKAhvyUHFSPTovj2fbfEJ+l7qfxP/0F1uE4ysxGa3HmoFrafJZHaOMzeIoCBEJqNNzZ3C5ggtGFedZIqA28uvT+Le79HBGqIwn+yPl+VPt6rAxVJj+zO/fkdktxvX5Da3XOP/gmApqXLZXDDG7onqsdUwzNV4OtxtVWj7Onqh4aiSaE3uUuqkeG77hsxFzttx4c7dhOlW7Tkijqw4qM0rjj0FJ+ROVbqaS4n2rVMRk+LMP5CQD+XS261yeSTbeYrsnXVNVj6V54MetRI8vhmVgYW8jkySlYUceste/PsWbVzVv1ywE9/qH+kjH+BB0E935P5ctQ3gbdp/5uSn/C56W238xT53FM8hEtSlV+sHT+0EcEaY9CfqI5tf3JG0XtzcO4mlrRfQDz+QHUOc57faWlhbtbw6WMwHFjjS/qT1Nq4o0jUqtjrA+pPGlj+Sf6ez3W3r1G+kenSeybskCFTY+ZR9AeNEh/IP8AT3dCWNG4dJ7pFaMAjz/yHpN1E0jIAzXGsH6KPw39B7voX06QeDH/AA/4eo8TEsbn8f4f1HvekLkDpJeQRNEoKY1ep9D1n8rx+pG0k8XsDx9fyD/T36p6LPpYP4P5n/P10aqoP1k/5NT/AKN9qrQB5GDcNP8AlHSO+giSFSqUOr1PoeuP3M/+r/5NT/o32Y+FH/D/AIeirQvp1//Ttc/l4M0vwM+GGs6vtPiZ8bqWn4A8cDdT4BinFtd2Qctc8fX2bbbiVv8ASf5R1DW5EtIxPEt/lPRxvZ30V9R6l2SMFTY6wPoDxZj+Qf6e6Pw6ONk/3Lk/5pn/AAr1B+4m/wBX/wAmr/0b7b6FPXF55SOW/P8AqV/x/wAPaK+/sl/03+Q9LLL+1b/S/wCUdBb3H3Xs74/dcbn7c7HrIaLYWzcdPk91VUcqrnY8dHFIYI9p0TkQZXcVXlBTwJTyJKn20s8mnVGrKVdGnWhn8zf52/zd+R+9d1UGzt+7i6H6foNzLVbU2PsGPDYfKU9JDT5Wjw1XuTfFJio9+TZLLYqreaXHvkjjvINfgLwQyLscH/0p6eitRdt4XHFfsp+Y6rfPyX+SeYyq5PJ/IHu3J1UVVT1BOQ7W33WwK1VVQY2V1pKnPS0iEwV7rwgsGNufYT3juEkbAU0seArhSRnjxHr8uHQ82XZVGg0xqA/aafxfPrfg+Gm/N8/G3+Vd8Se2KjI7lz2fotltvbtegy+Yym46jeFNuHe2VwsUKxZ+pya4mWGCWlkD0K0rhKZubPJqg7m9kaMNEtIzOaD0FGoP2dZCe3W2i13G4cnJtSP+Noa8T6dJr5ads0uF7V2nncVujyS7s3T11TL9o8Cf797eNNUZHI4gpEgQimkpY42kt5la1mB9gLqYugd6d3bhJN79rb83lkQFoeqZI6WtnnemVpazsGiglg0QvDC7TUWLQXKkjx3FiWJQbh/Yr/ph/gPTsPxH7Oo3UPZDdp/IbcOxNvRyf6O6U0LmmX9yKXyNTeaIZIhskDK8mrie408WHsn6U9WlS7qxe1qOrx0hEIx0yYTGrrOqCnlikm8Gst5JrtTA6pCzcfX23J8I+3pqb4R9vRIO0OiJ97ZSv3RjIzT1uYjkxlbXTSTVUdTiqk/cTUa0tXJNRwvJUU0TiSONZlCEBgpYFnpP0T6u/l0bXhylDu6mRMNnNvZan3LSZSPK5eNhX0PkMVoP4j9pJ65tWhkMZ08qR7NNpJFxIB5xn/jynqycehCwny63T0jvTcDiM7z3NueKGgydRItNEi1VHGoo8ulNBDHRo1HFTGLxoixyeW7qzAEH3TvQfdc/JXZWD2H3/lMjuuowW+t/bnjzGRpRQ0VQ0mXhjqYYKxY6mmmihWGknlj8UapC3k1FCyqQXbn/AGEf/NQf4D1scG+w9CNWd7YHcHUeGx3V28JaSqo6GLLb9rRjsdWTU8STR0VTloYa+jq41nFRXxxCFFWPTMW03UEHux/GOgVv3Bvt6Bf43/PjYuY7t358eN6Sx7Y3HhKvH1+187UOqRbiwBNNR1YlicClgraqtyUEgRVVgqNpsLj3MWxRyUebQfCoRXyrUGn20PUB89sv0FstRq8cGny0v1afnqmKnyFNQUsgnhnoRkI6pbMkiaokGk2tz57/AOw9iLqLekrlZZPt09X+7l/C/wCok/w9uR/Efs6T3PwD7f8AP0nJJHKi5/P9B/Q/4e3+kXXGJ21Hn+yfwP6j/D3o9Jbv+zX/AE3+Q9ZXdrfX8/0H9D/h7r0X9R3kcDg/n+g/x/w9rLL+1b/S/wCUdINw/sV/0w/wHrH5ZP8AVf7wv/FPZp0T9f/UtO/l4SyL8CvhyQ1j/sq3xtH0X6f6JMH/AIezfbv7Zv8ASf5R1jtut/djd7m2Ev6KgkCg/ipxpX+fRwvuJv8AV/8AJq/9G+zrpL9Xcf78/kP83XB5XkFna4Bv9AObEfgD+vvwAbBHRrtF7crcuRJnQfIeq/LqNKSqgrwdVv6/g/1928NPToR/X3f+/f5L/m6b6mplKDHQKRXZgT0WOrrArjKylpKjNLUvGQYZRVwYqSjAkVl1VQIGsKQX7iiiBCB+Mf4D0fcuzy3N7Kkz6lERPADOpfSnr1qBf8KPPmFmX3r1P8P9n7vmWk2bh6DtTtSDHxY9Bk9553H5fGbcoK2sjpfvqf8Autg8xXwPSRyx000lSks8Uk0MEkZL0M/Bj/h/w9asdbVVldj6ySScGfGY5WppTHEJZSclRo5qpVQSZCo8U7hZJzLIqmwIFh7YuJfCQEGlTT9vS7b4iJz4Qo2k/wCrPVvv8lT+X3/w4x8xE21nNvO/QvXmITePZ2Okrs1jqXO4nGZPB0w20m4cTkaDOY+tyNdWJV6qargmWOEqCFJHsEcw3y20Omv+MMCfsU49KZFR50z8j1JexR3MklC/6akenEH/AD0+3re87c2h1xtPo7Fdc7CxVNtDYG0MJV7S25tietr8zFT4HCz1ppKf73cNZlcpWrDUVbt5J55ZWZhdzpW0Dc0Xcs1tEkT9/ig8Bwo3qPs6nTlNpYLmaSRu3wSPLjqHp9nWutvPG0Oa3vg5Mpl4Mp/dvcdJUYlKzJTUsdE1BLJPSuGgnpzUGnlRdKy6103Frce0W1bebkgTrq/On+Ajo13ff7q11GCfSP8ASg/4VPS07XXYsW14dq4yOijqd0TY/E1sWOz+TmqKmNTlcjEjH+JPLFEtbO7koVJLAHiwAj3TY9ms7FLi6s6qXp8b8aN6MfT06Itk5t3W53CSGe9rH4TEDQgzUUyEB6Ot8MOiZ+saSbclTQGCbJwR1MVVK9RLI1ZE0C0kuqolkusdN5F0/oa9yCQCI23e42S1B8C30/7aQ/4QepV2q8S5IE51fy/wAdHTzW2sLnZHnylG1TLLWpXSMKutp9VXHHLEkmmmqIVFkmYaQNPP0vb2ArneDcMIbJtLg14Vxw/Eo6Gv0W1NCGaDP+mf/P1Iq2p6DG00L0/3OMx1THVvjEaRZK1Y4pYft1qY2WsBtPq9MgPp9iDaraa5IE3d+wf4COgpuz2ttqMCaQPmT/hr1TF/NH+de1fi5gcFt3bm4Y8ru3cm5aCqmwlG1NPV7ewD4XcBqqaoSRJZHVK4U4LS6nuRzybyry3ynFfXEixWtXEZJ7iPxAfxdRdv3NF7t1uksF1pYyU+FTijHzU+g6rl6L+Rew+60TceVrEi3FGWrVmkqpaZ4yHjhKvT08sNM4vUfRkI9nz8sWsTtHJakODQjU3/AEF0GxzxvhAIvsf6SP8A619GjxvXOzdyV9PPFLRSDKZGOatPkc+cskqksfL6AdX9mw9ke+8v20diZI7fvDj8R+fq3Qv5M5lvt03O5t9xn8SAWzMBpVe4OgBqqg8CfOnRk8J1dtDrjIUlLgaGn+2zg+zkhjqaypjp6qcfcRV9StTUzialimpgDDJqgZmUlCQto7sL+/tdzWDxaRaiKUX/AA0J6MuYNL6xF/q/b1q/fPXY3bXx7+Ue5t31+4HOfyedp97bf3LDR0NKDHTN4afHU1PBSJjPFHDIrGEReN1iuVJF/eVvLotJtsto/D7mByK4JNdXoTUUr5DHAkHH/nK3l+mSSWpQzD0xRXxjOak/6h1tN/y/PlLD8qegdrbuq64S7p25j4dubhgeKkhqJqqJU8lW8NLDDFGoeALZFC+r2raBUZkZcg/PoACCEgEJj7T0eKoVZkCyDUoYMBcjkAi91sfofdNCrlRnov3ONI4EZBQ6x/gPTRWwRRxKyJpJkAvqY8aXP5JH1Hv3RJqb16bASpuOPd4wGYhhinWiBJ2uKjrhNI4UWP8AaH4H9D/h7e8JP4eq/Tw/wfzP+fpvqaiZUBV7HWB+lT+G/qvtRbIqyEgeX+UdF+5QRCBKL+MeZ9D1B+7qP+On/Jif9G+13RJ4Mf8AD/h6/9W0L+Xo7D4E/Dmx/wC5WPjb+B/z6TCf4ezjbv7Zv9J/lHWNe7f8l+9+w/8AHujfJI5PJ/H9B/h/h7OemOu3kcDg/n+g/wAf8Pdl49Ge0/7kv/pD/hHUeSRyoufz/Qf0P+Hu/Qh6j/eiglhr6og4nG/dZXMoVUGSiw+PrMrTWnAE1P4sxRUshMbIXVDGxaJ5EYu3P+wT/Tj/AAHoScrf8lCb/mif+PJ18wT5u9l5ruD5S9+9l7lysmbzu4+1t0SR5OSKmp746OsmhSmhpKCGlx8NPEIIgixxKqAem12uR9D7os2BxuR3FkoNu4nGVuazWflpsRhMfjo3lrKjL1dbSrQxQwREGdp5R49BuPXe1wCCffJVt7SO4kkVYo5AWJ/h0sCB51zimScdCblS3NzuUsQUlvBan+9KM5GM56+l3/Ju+AVR/La+LmHoOwaWkxPyE7vx9H2V2HhqKomqm2RjDQ/Z4/bc001ROrTZGGvjmlQi8clPYWsfePfM+/O8kjaya/DWlQv4agLStOP7fPqeuXNoSViFH6aEg/ws4PdTur2morwrUcVwX/5599VlJmhtPb9e9PS0E1TDUxwxUrrR4epSolyE8ryQvIVNYIbuzFlvYEAkEEbFMd23KW2OQImb9jAfL19ehxvUA2nbIrocTIF/aGPz9PTrUB+cnyYlo86u0Ou9zVSZSh3FBm6zN0EySftQUWUpJaJg6zQ+uevR7af91+5v5b2KLueWLVGBTiR3V+Telfl1D+/721WAbu/yf7z0TTrv5bdy7J39g981e56/cn8IqIHq8bkoqKWmqaFKmnlmjCij8dPKxhULIAGF7XAY+xJzHyjbbxs30rnw21gxmpw4DAV7sggkEfOoyB0Eti36SPc5GUah4TV+yor+Hy63d/hB/Mo6P+U3X2FxdLuTG7Z3jh8Sk+U2dkmpKPQtI1LQT1q1LKlUzpUV8aBNegiQm3AIxv5h9ub9S4I7h/pf+tnU6bBvuoRsrVB4f6tPVn2NwVduSnxsuHohUwVtbFHBW4mrhqY31xTOBXNVSSw0+PIUl5F0uGCgEAkEC7dyXcbdfPPMOwoV8uJIPk59OpIG9H6cV4/6v6PVcfz6/mEdJ/CTHV2Czm4tqZfuGM+Hbe1Nu5GXN1+Oyc1BkHgzGXp3nq8f/D6fwmCQTRtEJZ0uL29y3y7y7LPXwYWYLk08v+NefQI5g33Rq1OATgcP+getDv5H96bt747K3h2nvitZt17ny15qL7amNJDjJVnmQU6xQR0lGY2WMBIY0B1Ei3N5z2Hao7WFI1o0dNWoEjuwKca0A9cE5oOoN5m3hnRSSRJrpTBFO7Pw0qT/AIOgn2l2ZvXY8r1G1M5PipDGVkMdPQ1K+MyROw0V1JUoLyRryBfj/X9nk22Wk7l5YqufOpH+A9BAbvMoAD9o+Q/zdbB38uLtqn73raHYu4N1CLd82MmqMXXytT0rtkYK7GUyQLS00dPSyO0dW50lCLKePYd3TYEktHULn/YP9Loccj780W7XDV427D/jaH+H5dXgYnrDdlHX19NUTy10uPi/hVfXNHGVk1SQ1AjRVjEUEhNMCHQK9gQDYkHFTmWEbfuzUP4v8v59ThYz/X0zk/6vl1XN/Ny+PeO318c4+w6LbLZffnWm4sbmqusjqMqamfaNJgtyUdbjmo6aqWlkRslW0cpfxGb9rSGszAzR7c7u108lqJNK+CPLy1AHyHqPPoL+6m1LZ8t2NxTJvUH/AFSmPqfT06rz/kn/ACBn2P8AJCHqXJ1yR7O7H2Pm3pMLpgVIN5ncG3mx4iqTF9/qjx1LWHR5dBDglTYESlLEwEkjPWj6ftxx/ZTqAQeAp5V6206iphkosI1N6ZxBlYss19Xmq4K2BKZirErEY4C4sgUG9yCbe0zcOi3dv9xk/wBOP8B6aax2aJQxuPID9AP7Lf0HtvoP9NjEgcf19uw/Efs6svHqPIxKi5/P/EH2p6v021pIiW3/AB0H/Qr+37f4z9n+bou3P+wT/Tj/AAHps1t/X/eB/wAU9rOiPr//1rPf5fBI+BHw4t/3ix8bP/fR4X2ItpiRp2qv4P8AKOsZd9dk3y8Kmhz/AMe6NuJHH0P+8D/insQeBF/B/M9Fvjy/x/yHXmkc2Bb8j8D/AIp7q0MaioXP59bW/u7ch4ZaMccAcfmD6dQ6uaRI1KtYmQD6KeNLn8g/0900L6dC/arma5ak76h9gH+ADoC/kX2FJ1v8fe698T1YpqXb3XG4qmqmMcDBIp4I6GM/uRsq/wCVVUfP1/H0J9lG8jRbRlePiD/A3Q+slFmBPbDTK3aTxxWtKGo8h8+vmB19TJuGvz+UyxNVkKncuYrZZ2AhaRMlUGoRylP4ov3HRmFlH1/p7DYd6ZPQ82sLcuol7hT7M0zwp59Xl/8ACdHr7qPdn8y7Y7dn47E1UW2Ni7i3Tsk5qadqKl37Q7k2XQYmsNE9SlDkpocVlK7RBVRzwXOvxl0RlBHP/ivsS6GoROvp/C/l59Sjy3aW9nd+NbRaZWQqcnIOaZJpkDIz8+t7n5AbrPXdDujIrXy1GUy1Fm8vLmqmZq+SWemrqampFi++apjp6aClqGWOniCQKLWQWFsOt5v92bcXt2uaxEj8KeZ+yv8APrJzZbO2XbUnWOkoU0NT5DGK0/l1p/8A8x75MPsePOZygy6UmZ3pgK3a9RWPT0FSZzkL5ExxwVdNPS00rPiQQ8SRyAKQGAJBm72y5c25rme6mtdUpt6V1MOLrXAanl6dQp7kc0b6kENql9SAT1poj8lamdFfM+fn1qT1uQydVV19ZXTyTVNVVvLJPMqGSV3eV3e+j6MSPpx/tvc+RwW8SQpClAq8M/L/AFZ6hObc764LmafUW44X/IOon3VRa3kNjwbKouPpY2Xke1bTSsugv29MWsskErSRNRypB+wkYz0ptqb13Xs7Kx5fa+dyGCyUKWSsx0op5dHlil8cmldMsRliVijhlJUXHHtFLZ284IljqD8yP8B6P7XmPebI1tb3T/tUI/YVI6PPT/zWv5gmK2T/AKP8Z8ktx47arKIjQ0O1euaWt8Yhlh0DOwbNTPhdEh4FVybH6gEE9xyrsN0oWew1KDX45BnPo49ejN/cHm9UCru+P+aUP/Wvoi269/by3rlKzO7u3Dkdx5rITeaty2YkWuyNRJ6j662dHqNF2PoDBf8AD2Y2e07fYqI7S30RgcAWp5ZNTk44mp+fRPd817/fV+qv9Z/5pxD/AAIKdI+SaSQWdr83+ijnn+gH9fZpEqoxKihp0SXN3cXChZpNQrXgBnPoPn1jMrxq4RrCRfG/AN0JDEcg25Ucjn2/rb16R9Cz0f23vDpfsHbnYGzs5Nh8ptXK0Oag8UNFU/dfb1tKtRSCDIU1VSyeelZ7h0YAC/BAISXpkeBo04tj7MH/AC9HnL101nfmVXoNBBxWoquPP7fy6+jZ8cuwtmdydK7Q7G29HDW0nZ238Tu6onjmlf7TJUdGtBlaR2Elo3nqsjr0CwXR6QB7gLmflzZrqRp7iz1S1465B/IMB1k9yVeRzNEJGr+35+g+XSd7D2ltXMU9ZtrMYKPKYrdy1m3MlTyz1vhWlqaKrq2lkMdQjRoj0SjUpU3P19hGyuZ9huVban8IsApwGqpNad4b0GePUle4O17TuXKcMdxb69FyrjucUOh1rgjyYih9eHWjNLmaP4ufP5ztWpgoMZsLvGjraHIQhK37LHST1dHVUIORFassEkOVIbyatPjBHIBGTXLsce5bZBNeLrk00rw8zw00HoPy+3rBvmSSTb9wnhs20Rg4HHzp+Kp4DreRoMzi83SSZjBqI8TlIcDlcagkkmVRlMXLVZBlkmaSRhPVaWsSQlrLYceyi6AS8lhXEYGB+f7eivfppE2O0uFakzTAE44aX8uHl6dZHdnFmNxe/wBAOfp+AP6+26dAj94Xf+/v5L/m6x6FP1H+8n/ivtTaIrSMGGNP+Ude/eN4OE38l/zdYKhFVAVFjrA+pP4b+p9mPgx/w/4evfvK9/39/Jf83TNW/wCaX/loP+hX92WNENVGenobia7Yx3D6kArwAzw8gPU9Nfu3SnwIv4P5nr//17PP5fP/AGQR8OP/ABVj42f++jwvsTbR/bt/zTP+FesY+YP+S1d/af8ACejZuSBx/X2IeinqNNI6qpVrHWB9Afwf6j3V/h6bk4L9vUB46mvq8XSrXLRxSV0hqWdISJYVx2QZYbujFCagI11sfTa9iQWehnsfxjqk3+ev8mF+Pvwbn6co8iK/tj5E1f8AdB5oIaR6hdoyDI5uql+yaB6SCKOXAU6GaOJJQWA18m5Nvn+4kdOPiD/jrdSVbgGKIsKoGBP2Vp/l60ZcliIsLT4+RcjDk5s3j6CseeHRojkx8LUtVDaOyArNUD8X49hkcB0NtioXBAoM/wCXo2PwD39k+uPlb1PujE5OfFV9NnIoYKyDxllMs0LOjpKkkMsbJGbq6stwDa4Hsl361F5t7xHhqB/YD8x1Lmx/7kRf6vXrct+TXzOp63rxYdxbshhix0kMFRJLS4qFp8bUY+uqKuhMkdHG96ipijk1g+RfHYMASDi/u+yr+9noMah/h/03WTmz/wDJHH+lP+DrS0+ffyWpO7t2DC4M+Tb+BzKVVHUL4yhnpqWvpdMcgXyyjTWsSSxHufuTdtWztRJSmqMD8q1rxPWM3uXIhkjjB7hMSfl29V6TVlRUBRNIG08LZI1t+P7CLf8A2PsaBFHAdRR1H1N/X/eB7tQdORfEfs67EjryrWP0+gPH+xHv1B6dPE066eeVhYtfn/Ur/Q/4e9hR6dNSE0H29Yw7MbE3H1+g/wCIHvZUDgOmevOSBx/X/iD72vHrTcOsanUbNyPr/T/evd+qdOeLMMNdDLLGJI4yzOh5BGkgXFxwGIP+w9pb1Wa3dEajHrRna3KyqM1/1evW3j/IN+XWCi6c3B8dN+Zyiqc7h8jV57YtLk5qagOO289VRUVZQ08tMtLPWLNkcpC48zSsoWykDj3FfN6KlzPoFEJB/MgE/wA69TLyFvbfpVbP/F/0errPkTues68683PnzjKTGVP8Gy0uJz0NQa3/ACk4bI1NPGlNVyVNISywl9XjJ9FvoSDEVz/bxf6Yf4T1P+57ibzZGi+df2A/IdfOh3/uTM7s3Zuzc2UyS1WVzW4Mnnq+skhpYp6+tgrwkDReCGJIWjhrmbRGEQheVNgRlZy3F4O3QxAUpEmPmRU/zJP8uHWG/NjD96zFvNiP+NMP8HW5v/LO+T2M+Q3xy2xHU1iNvXaOPo8NnqYiCOaWHGRLRpVGGCOKJY42dFDKgvr5ufYevcbjN9n+Xor5g/5Vyx/5rj/jknViTyOBwfz/AEH/ABT210AOu4XZmIY3Gkn6Afkf0HtXZf2rf6X/ACjrx6ySqGUBhcar/kfg/wBPZp1rpqyEaCFbD/dq/k/6h/8AH37pbY/2zf6X/KOmfQv9P95P/FfeujXr/9Cx7+X1W1P+yM/D2DyftL8VPjcyroj4I6mwIvq0ajwx/PsU7IA1w9f99n/CvWMm/wD/ACW7z7T/AMePRvzUTH6v/wAmr/0b7E2hfToqp1gmlkKj1f2h+F/of8PaW77IgVwdX+Q9PW8UcsgWRarx8/8AJ0zZGbHxU5rstPFFT4wTZFBPUPR00hpqSpNQKipikheKOLHtNKDqF2jA/NvZf4j/AMXUi7HZW2sfp/zP+frQq/nFfNrF/KP5S01R1/kHqNmdO4/LbH2bmJIaaoh3DFLOsedyTQTQyU6S46qiFPG2nUUlLA359le7MzW8YY/jH+A9SdZbfZyR6XiqPtb1+3qm1iaSngigZkjgadYVLGQRiqZJJwvkLm0jwKf8COPqbh4AAUHR7EBA2uIUb/V69LzqjeT7Q7I2XuOoqfFHis7S1Pk0RWQrrGogoVPBP1BHti5AMdCME9CrYt1uUu28SWqhCRgcaj0HoT0eL5u/LOXsPE4nb+0dwSRU0tZQ1mVghSlc1AhxeSpZC0jQSTRrqqxwjKP8PYWl5a2WWcXT2IM4Naln8vlqp/LqRP6+8wW9uLeDcdMXCmiM4I9THX+fVVeQqGnjBc6mMoYmwvfS1+Qo+vs+toxGxCigp1HnMF7JeQI0rapPEBr+TfIdNHtb0E+ve/dbBK5HXvfut62Pn10QPeweqsxI49dAW+nv3HqlT162rg8+/cOHXhnj12FA+g/3v37UfXrdB6dSqX/ON/wQ/wDQy+6P3AA+vVhDHKdLrUcfPpb7R39uzrncWM3ds/M1mFzmLlh8FbRsiv4YpEmEEiOkkMsLSQoSrqyllBIPtBdbZZX8DW13AHhLaqVIz61BBH5Hhjo0sby42xg9lJoI+QP/AB4HrYj2R/M0qe4vjFuHavZ2fnzO7Mft2qFBWVMWPoGiqI6V8ZpNPi6Whppm8Nc49aN9b/WxAdl5H5XJVm2vuB/35N/1s6Ew575qMRh/ev6RHDwof+tdetbutqkElbLFYT0+ceaic2YRwkzsylH1JKC8MX6w36f8TcYQEwaViwukfy+3oJXTteyPNdHVISanhxz5UHn1YB/Lf+ZtR8Vu9IcnuqtkPW28sdPtndiR0tIVwyZHNYLInccCrSmTy0gxBiKKRHonZiLgEF95ZxPWdY6zE5ycj7OHSDdC01lFbOawrICB86MOIz5nz63Wdubjwm7dv4zc+FyFPW4fc1LBmdpT0siyrk9uyRDXkKhlLeGoSoliXQCBZzxx7K/DT06Dn0sH++/5n/P08qSpuvBtb+vH+x93T9M6kwei/co0ggR4hRi4Hrih9euRkc/U/wC8D/int3xpP4v8HRL9RL/H/IdQqwlolB5/cB/5Nb+ntTasZJGVzUaf8o6M9pld7lwzVGg/4R02aR/T/e/a/wAJP4ehD1//0bDP5fzsPg78P7H/ALlT+N34H/PpsB/h7FOx/wC5L/8ANM/4V6xk5g/5Ll79p/48ejePNIBw35/ov+P+HsU9FXUeaom0j1/2v9Sv9D/tPtHff2K/6b/IelVn/bD7D1Vt/OG7qzPTPwL7ZyeDzUuCzm86jb/XuJyNPHSmrjqc/XGtnipZKiCUwTT0GImQvHpkCFgCAT7K+pL2P4x18+XNSZCKpyju/qj3Bk6OudooyTVQ+JoNAKEQakklMgTSJWsz6mAILN0/3HT/AE4/wHqUdv8Ag/L/ACnpKV9fVrCpWWx8oH6Iz/Zf+qeyHox6Y5qyrnVVaUnS4cWSNSGAIBBVVPF/dJKae4Y60Zmgo6mh4dYHapdi7ys7Hgs9mNh9OSSePbX6fp1r94zVrrz+X+brgfJb1m4/1lHP+w9+Gn8Iz176uSfsZqgZ8v8AN1w92691737r3XvfuvdePvw6q3Drj731Xrokj6e9jPWxx68pJPP9PfiAOrdS6Y/vRqPrI8cY/wCQpEBH+xF/dD07H8XRxcZ0W+a+MO2+z8Hiwu4a7em68Xnso71VQJ9uYeJVWlFFNPJjaZoqwIfLFCkx5Bcg291NKnp8Vp0VlM9WYynnpMPPJQwu5hqUXTIJgdWrmYSsoZk/BHv2nV8Q68Pl0mmYszMxuzEsx+lyeSbDj8+7AUoOvdZ6aJ5pRFGLs4Nh/W3P/Ee25XVE1NwHSK+IWFSf4v8AIetpX+TD8rf47sLLdL72zcmYy+3w8+24awU0c2NxUdVQ0kNNSyQQwztTKa5BpZmUsBe5AsTToI5WUDt8uiZhQkeXV985NLKlJN/wJkiFWp+n7HpW1uBbVIvNvbPRRvH+4yf81B/gbrhrb+v+8D/inv3Qc6gZCR1hUq1j5VH0B/sP/Ue1lj/at/pf8o6Ntm/3Kk/5pn/CvTP9xN/q/wDk1f8Ao32a9CXr/9KwL4AOw+Dnw/sf+5VPjb+B/wA+lwP+HuTtu2+0iBkSGj0pWrcK/b8h1i/zOzJvd4VP4j/x49G3eR7fq/P9B/Q/4ezTwIv4f5noh8aT+L/B1lpqikj87V6CRPA4hBZo9NRqTQ942QmyBuDcc+y7c4o1gQhc6x/gPT1vcSrKpD+vkP8AN1r2/wDCg+i3VmfhRQSUVVIcXg+89kZ6SnSnp7CKi2vv6NHeQQiVljkqlNmYqSBcH2QSL2NTj1JvK93J9XEJWqhJBwPOo/lXrSg3Nk6qoyOS8EgFHV1dHla1RHEfJmK2hDT1OooXj8p8h8alYh+FFhYv3MAxAeWsf4D1Ku2TSGFdTZNfTgD/AJz0jKyWRolDNceQH6KP7Lf0Hsk0L6dGniP69YaEqamIzLrhWSEzrfTeHzxLKNSlWF0Y/Q39tTx1Si4Nf8h60ZY8eOKr+fH8vlXo0XYHxl3l178cOsu/M1Qy0+I7E3vuLbFBUMH8c6UFG9RQhb2i5jxlQ91Go67EmwsmMDg1I7f9Xz6S+LaymkI/w/5eiryMSoB+t73/ANYf8b97EZU1Ix09CKOSPTrDc+7dKanrizEDg/n3sAHrVT1j1t/X/eB/xT3bSPTr1T69clYk8n8f4e9EAcOvVJ65+69e69YH6+/cOtrx67AA+nvVSer9ZodfkTxgmXWnhtyRLrUpYHgm/Fjxz7XbfDHPM6SrVdPqRmo9Om5HaMBlamc/Z1sufHXqfD03xQwex83iVnXKbfzWZip2nrI2OSzfgnyFSJIaiOYGomQHQG0J9EVR7Ov3ZY/74/m3+fpD9bc/78/kP83WudvnBHa26917dlhMEmL3BV0sUZZ2MdNDPViJbyMXf9p4+SSePr7L9wtLeCFWijo2oDiTih9T8h0rguJXIq2KGvDjjpH+yfpT4j+vUqkqJaWdZ4G0SoDpYqj2vwfS6sp4/qPbUqK66WFR0nuiXjAbhX/IerOf5RM8zfNfYuMMj/Y5zG5GgylOp0rV0i12JrliZ1tJHpqqSNgyFW4tfSSCxLGjqoZa06LpAAo63JabI1mTkmyFdN56ymq8lioJfHFFooIKmLxQeOFI4m0eJfWVLm3J5PtjwIv4P5nouvY0liVXFRq/yHqTLVTqoKvY6rfpQ/g/1X37wIv4P5nor+kt/wDff8z/AJ+m+qqp3jAd7gOD+lBzpYfhR/X29DGiMSq0NOthRa/qQDS5x644+dfTqD5H/wBV/vA/4p7U9W+tuv8Afv8AIf5uv//TPt8BpHX4NfD4q1j/ALKt8bB9AeP9EmC/qPctWP8AZf6vn1i9zT/yW73/AE5/48ejVzVMwUWf+0P7Kf0P+0+1vQd6bqmV5owsjFlDhgAAvqAYXuoU/Qn2W7p/uOn+nH+A9Ow/2i/6vLooXzk+MFb8vPjF2b0/h5Y13M2Fqtz7RpZXaKPJ7iwVFVfbY15Y2jdfuaOsntz+oD8+yDy6kPYSQ4I4j/Z6+b5vfbu4tl5PNbc3JjZsTncdnqjG7gxVVTVENVgsrhJK6h/hztK5WSOeKQurEFmCCx4YsWbiCIAT5uP8B6mPb2jYaY+Cr+2pqfsoekCxaXSrswjDqZZFj8hijuFaXSum+kN9Li/sl6Mx0d/4f/DjsP5K9o4Tb22ds5fKbEq1iqtxbvqKCsxtJi8PDkKCCvlVlqF1MrVKBbar34I/JntVkL+6MLCqBCT+RA8iPMjoCe4fMH9XNihvkYrO9ykaUAI1Mrk1qGxpVvI5oOFerxv5xux8H158Cuh+qNk0ax9e9Vd54DB0M84k+9qM9mOvOzqzJVC1NW8uSqKepbHMx1yvGhUBQt/Yok2WOi1Xz/1fi6C3JO/ybi70bOj5fxD+iOtWHIQRRQrJGuljIqk3Y8aHNrMSPqPZPv23JaWcbheMoH/GWPqfTqZ4VrbpL69NGpv6/wC8D2EqDq3Xa+o2PItf/fW9+oB17rt1AHA/PvfXuuk+v+w/4p7q3Dr3WT3XrfXY96PW149d+/dX6cMb6agSj/OQNTTRN9dMgrqVQ2k3VvS54II9me0/7kv/AKT/ACr0nuTSP9v+A9bdnWwoqfZmwFqIh9rBituUSxhmRRTV+HnqKqMlWVj5ZYVOoksLWBAuPYj6K+qLP5hvRMuw+28j2Bt3bMn9ytwV1PFPDHNlapP4pNDWVkkjTvPPUQpPT0r3IcIhUWHPsq3cf4uhrTvH+A9LLNu5l+Vf8HVcte9LUTvU0FH9lRkpGKfyyzeOXSSR5JnkkYNYnk+w7wwePRh1woDAKynNUuum8qedNTLqj1DUNSFWW4/IIPur10mnHpPc18PHGvVvX8nvrnM5z5IZDsLF07R0209tZM4Sqsz/AGmXm3BtmOKXQ5eKo8eNlmTRMsiHUSRqCkMOeC+fRfIeC0z59banjlxskdETpkljlrqgWBL1E7xmaX1A6dbtewso/AHtvpFdf2Y+3/IesVTUzCMWf+2P7Kf0b/afe+kPUBqiZhZnuL3/AEqP96X3eP4j9nTM/wAA+3rh5ZP9V/vC/wDFPb3STr//1DyfAyaRfgz8PrNb/nFj42D6L/z6TB/4e5asP7L8h/l6xe5sxvd9T+Nv+PHo0sk8pUXf8/6lf6H/AA9rug1U9RnmksPV/aH4X/H/AA91aCK4GiVKqM8SM/lT16q8rx6WRqGvUKetz8D0a4SiFf8Ac1kVPlV8zUz0+JKyTT1MVRC0c8MiVUMK3RlJViCdJINP3ZY/74/m3+foabFd3GofqevkP83VK3z9/kq9T/Lvf+d7H2Z2Vt3qDf2Zlp81uPI1mD3LuXH5hKOmqKN8dDg8Rn8bQUOUnnrY5RWNGUCQurqzSAiybFtl2TFNb1Wlfifjw8mHr9ny6kUbxd2MEcyPUlqU7c8TmqnGPKh+fQG/G7+Rr8UOqYhlu3Rmu6d600higFVvSt2/tOntLDMMlTbW2rNg9wNURtB41FdXVVH45nDwvIYnjUjlPYAKGxJ/28n+Rh0ik5p3p21Lcqg9Ai0/40GP8+reNm7E2Z1Zhkw3Xu18HtXG/ajGmnxmOplLURaOUwSTzpNUyAyUyEszliV5P19nGzcubNbXM0kFnpfwiPjc+anzY+nQC9wNwu952SC23KXxIUuVcCirRgkig1QKeDEUJpnhw6q5/nUdfUXYvww3Puqtxy1Oa62z21dyYmekebGU1Cq1NTt2oqZcZipaLF105otwyxeSphlZRISCGsQm32JbaKQ240sMjz/w16Bnt/vF7acw2dss1LR5AjLRcqT6kVFDQ4NcdaU2biganEkEZWEZOvpranNjTCHxi7MT+mY/6/uLOZb66nghjklrF4leA4gEDgK8CeszrBS2yWUsmZCcn7RUfLpMNGgHC/n+p/4r7B4dj59W0j064aQOQP8Ae/dtR9eqkAdeIv8AX3up6r10AB9Pfqk9b66YkDj+vvwz1rryEk8/0/4ke/MAB1ZePWT3Xq/QkdRbPq+wextpbJooTPU7mzWPxqxKXBdDWQVE4BjKuP2KduQQR7NtmAa7YH+A/wCEdFm7SvBZtLGe4H/CCP5Vr+XW3XBgcNRx0eJoKQw4rF47BU9JTCoq38NdiMe1FVP55ZnqJLPKRpZ2Av8AT6exX4afw9A/94Xn+/v5L/m6a99bJ2d2Bt+fbm9qNKrF1JAg/bfyJWeGaGJvLTtFUKBBNIL6vz7S3drBNGqyJVdVeJ9D6HoQ8t3TXF9Kl22qMREgcM6l9ADwr1Up3t/KyyFHi33N0vWY3KS1majWfbmZyNdRwQ46WjyNRLV0lTJLUVM1bHVRRRrEW0lJWP8AZHsvO3WeKQ5+1v8AP0NCtn+GMV+1uiCp8MvkXDufG7Y/0MbkqshmMnHiMbUtFVrgKqrmWSRFjyCS0+m0UDsC0o9KE6T7LNzs0hgRoE0vrAJrXFD/ABE/Lon3mWCC2R4yUOsCozXDYowNPX8utoP4A/Fnb/xX69+xStav7NywSr3gZPK0e3qiXxSS4Snjld6SeHzIjeQoX/b+tiQSAwTk1LZ+wdAw31yTUy5+wf5urBZcjW19WauqmElQITF5BHDH6NSHToijSP6qObX9syw3CqCHzX0HS2wmFxMyXR1RhagcM1HpQ8CesqM8p0yNqUDUBYDkcX9Nj9D7Y03X+/P5Do28Lb/98/zbrMsMZPIvx/Vv+K+1tjHK0zCZqrp+QzUenQe5leK1sYpLNdEplAJycaWNO6o4gfPrn4Iv9R/yc3/FfZr4Mf8AD/h6BH7yvf8Af38l/wA3X//VO38DvJ/sjPw//wDFWfjb/T/n0mE9y1Yf2Q+wf5esXubf+S5ff81G/wCPHo0j+S3+x/2n+h9r+gz1Fm82ldH11j/UfSx/r7unE/Z01NwX/TdNtV959u//AAJ0WPl+18nk8djq1fa/u6L2v+L29u9DDYviH59JqH7LSPtv4Z5POLfxn7C/l0t+j+P8eb+lvVa9uL+1ll/at/pf8o6HF9/uFF/p/wDI3UDPfcXT7vx6tQ0/a/b/AGltLW0/Yf5Frt9Leq3+Hsz6JekhXePxL/y0X/Vf6lvZjtv9rN/zTP8AhHQY5t/5Jaf81R/x1uq6f5pH8R/2RDv/APhfjt/AMF/EvJ9vb+G/3v2/5tH3POvz+O3j/c/pxf2Q8xf2Uv2HoAcn0/rHY14eMv8Ah60VMx4f4Z/k9vtv7x5jVbVfy+Kk8f8AnP3beL+np/rz7hvf6eFHp4a/8h6zp27V+4LPX8WoV/3n/N0kJdOkafrf/H+h/r7DC8evdYD7uOqtw64+99V697917ro2tz9P9j/xHvYr5de64i39j6/8R/sffj/S4dbXj1zGq/P0/wBh/wAR70aeXVujV/CX+K/7NL01/AtH8a/vZT/wzyfZ6PuPBPr1fxD/ACH/AIDeT/O+m/09VvZvsdPrGr/vs/4R0Tb9q+gOnhrFfsz/AJadbXuQ/u/qk/hP6/vKvy/8Db/deT/cp/wJ/s/eabW9H+o9N/Ys6BPUrb9/vZPD9pr+2f8A4GfZ+O3lh/R/EP2fLf6W9dr24v7Zm+Efb0Z7V431D+B8eg+nCo9ehEpv4nqT7j+D/b39P3H93fFr/s+Ly+ny6b20+q17cX9puj//AHYf6tPQj0n8M+1j+/t4tSavJ9/4dVm/4tn2Xr/iP+p+z/ynx67ejX7bk8HSPG+Cvz4/l0h3D6nwV8f4NQ9OND6dOtf994qf+F/Yfda18P2/2n3n8L0v5P4j5/3/AC+fxf8AAv8Ayv8Ap6dXtn/EP9Wronx0ocb939rP9z/Dvuftm8Wr77z+XUltPh/yTXa/6vR7am+g0j7f6XXv1f8AQPj/AC4fn1lxP8R8L/e+Py6/Tq0efR/04/yXxX/5Dvb8X9p/8Q/1auvf4/8A6tPTofP/AGfr/wAgfT/Y+2ZvpdI8H46/Ph+fRVvH1P0yeN8PiD040b069/lf++8XtN0HOv/Z;clipPath=inset(0% 0% 0% 0.99%);" vertex="1" parent="_XqpVjVCsElwEC0yUfst-10">
          <mxGeometry y="27.149999999999977" width="145.89" height="131.301" as="geometry" />
        </mxCell>
        <mxCell id="_XqpVjVCsElwEC0yUfst-7" value="" style="shape=image;verticalLabelPosition=bottom;labelBackgroundColor=default;verticalAlign=top;aspect=fixed;imageAspect=0;image=data:image/jpeg,/9j/4AAQSkZJRgABAgAAAQABAAD//gARTGF2YzU4LjEzNC4xMDAA/9sAQwAIMjI7MjtERERERERRS1FUVFRRUVFRVFRUWlpaampqWlpaVFRaWmRkampzdnNtbWptdnZ9fX2Wlo+Pr6+119f//8QAewAAAQUBAQEAAAAAAAAAAAAAAAcCAwEGBQQIAQACAwEBAAAAAAAAAAAAAAAAAwIBBAUGEAEAAQICBggHAQEBAAAAAAAAAQIDEQTBMjEhURJhcnGhgkEUQpETUkOB0SKxM2IRAQEBAQEBAQAAAAAAAAAAAAABETECEiH/wAARCAEAAQADASIAAhEAAxEA/9oADAMBAAIRAxEAPwD5/AAAAAAAAAAAAAAAAAAAAAAAAAAAAAAAAAAAAAAAAAAAAAAAAAAAKJlbVFzm5oxww8+0nZXsl7/DpCLVeltfTPxn9n+ltfTPxltDgzsV6W19M/GVeltfTPxluTEVsP6W1wn4yv0trh3z+23UgcxPpbXDvn9q9La4d8tqYkzsX6W1w75HpbXDvltFBbF+ltcJ+Mq9La4d8topaLF+ltcO+TfS2uHfLaGBbG+ltcO+TfTWuHfP7bM1YY301rh3yb6a1w75bNGs1jvTWuHfI9Na4d8tgas1jfTWuHfKvTWuHfLWmqIZT01rh3yZ6e3w75a8wFMl6e3w75M9Pb4d8teYtTFent8O+WAvURRVERwLYSPM68dXTINjEgBTSCw5H3+HSR4sWR+54dIKpXzwtTEFHKLaYYYcoGqUcFEmqWFBGD3mmYjaEkiNxZu0x0oou0z0L0Y7qgtMoxGlRpnQxRygcgNSGBnClqCKNRxoQQkhzWvHV0yV8kOa146umVmxhwAppBYsj7/DpI6WPI/c8OkFUsJylhiClhBphph5qKZoWEUFKOMUt4qquWCfTFVyWnr34RxdrZDDa7HmE++Tg4FVE0lRmcIcqYiYI1uxnLdyaZ6Cikeq3SUK1VjHY6McP1HfMSI2og1S1LTQmnmKIAClomGnGrRRkgzWvHV0yWEj2a146umQZGHAAaQWPI/c8OkjhY8j9zw6QVSxrCwwhSzUWqA1YQMUAFIGszeuclLSk7v04zHAppjs0f3OPlGx6JuU44RVTLp00xFODh1WYmeGDnu9HUnCYY+up3rm6mIhgJ542IHOLXO7F3rNX9driXY3JLO2ntl0I5NLQas1sctSlGAxSM9EgQeYpSaIUEawCQ5rXjq6ZK4SLNa8dXTK0oxAADQCyZH7nh0kbLHkfueHStCllClrYgoBBoUAEUzTTzESzWXrna0pPbszhJVa/LfRP8x2PB/W3d+XrieamJ6HNmJj3T8Icp6iM5crxnDB7vJx6pqx8p7kszuUYyt6cU1iN8M/VOMtHZ1odGOF6KijPRtTlRCsKBhigESlmrCSBqJKiSUaSPNa8dXTJXCR5rXjq6ZWkxAASPBY8j9zw6SOFiyP3PDpWiWQKBjOcoAtIBSkVrMONQUgZa5GMYvfcq5cPJmqq44slbPMdTL7qMOmWllzbcYQkqjGGB34yFUsxXW980zizlVO82F1xY2lJsRtljIgptuaY/mJ3tscr00Ji0R7GcYpSJiFSRGopIsw5ZQRJEaajSR5rXjq6ZK4SPNa8dXTKSTEABI8FiyP3PDpI6WLI+/w6Vl0sQANZADApoWcjIFfvzcnCJ/mO/pkswsk3rce+n4vLN+1Hvh82tHYpiu7TE7MSzMKVNdN+qKeWrrbP26cZamJxxmWvmIp3mzMRvcq12pMeqN0PDMI+bdEx5w8k14YTO5ma3grjCCdVUzzR0zh8SoY83B5OSEi0NVimOXDa5k24orirFtccao/LPVTjcp6IxOQx0cYU522v8MleuTRMTT+Y4tErBZjfI3PoriunGHuaWJGaFLQOUFBBalKMKBJM1rx1dMlYJNmdeOrpla2JACR4LDkff4dJHiwZH3+HSsm8LCDVmsSzQpZzH5mvktzxq3ft89lQzk/1THCCWkthhV8nRVzc2G7Cd/aT63RNyqKYfU+EUxhGyIZLW2OHzY4xw/xw6Z/nDhMx+nPrqwnGHNiqOLG3a0uy3Ef+Xqp/r8MpNVM+bXUbCsaNdF553PBcu0URvnfwJ1Gaxxx/HQqRWthFU7sel5YqwmZYr50TLr80T5tOE60VNeGPSwmY9v50NfTsQ3KeamUZ0X9jG5evlqw8p/0sr5s2PoSirmpieMOg5L2ozzESAatSSRhq1JEglGZ146umSqkpzOvHV0ysMUAEjgWDI+/w6SPlgyPv8OlIm8K8Ao9z1o1udXVyUzVwhTRCHZiea5V0bmQweqd+3zMZ299JWLMWqf/AFO2dCS7VhD20V81MSTu9XtlyO12ORibtfkxeK5nHeidNyT3apu107olwVJB0KqpqnGXgUsKCeJwecLRLLbmKoxaLAmWWrwrw8p/0sUudXW8kPvW+SrHyltctVjRhwcbMzshw7FfLV0TuapxhvS0g0LYDjD1GBCYkRgwwlWZ146umSqEqzOvHV0ysMaAEkwV7Je/w6SQldyXv8OlIm8K8DVNDnrJjm690UfmSkTOETL5gqmZmZnzKaoiNRApuKrRXhST2uuapeTmnDB4CZD7QADWcAAAAAKAUsLTxjjuLLbvxXGE7pJdajGr8S8040VF4nK7uY1mRdCqrmc5IUudqvnpjj5u+QO3XyVRJeMcUWdIFKBIedIjMOMJXmdeOzTJVCV5nXjs0ytbGgAJgrmS9/h0kjK3kvf4dKcJvCuGqNanNcq7/wA6uyXzY+pJjGMHzHVTy1TE+RFbY8JizojElrdy1b+ZM9EOAXa1b5KMPOdpDTcZ5dRhQJaFqAWAtS1AAALbCxG2VX42S9ljZPa61ynmpPLJaDzSEwW2x/zgiZeLcYU0x0KQdU1RgQWApaJpKszrx2aZKqSrM68dmmVqjGgANIKzkvf4dJJisZL3+HSnCbwrKgpqcxbFXrPzN8bp/wBbIwNEJLTlPqq+DcUWqbeyPz5u6YmlUT55rjCqqOmX0I+eK5xqntlVK8uYFqc91QAAoKWAAFLCyn2owoh2XitakPe0srP12Yq3xuli6rdVPkVp6oRw7SXWrc1TjOwrjnc9O/fsRxXTOyUcLdc9zIrpmcMd7pKxWnI1mIkKJXmdeOzTJUCXZjXjs0yDIx4AU1gq2T9/h0kpKtk/f4dKcJvCrKUGtzApalnGGJTUknEu1ctFU9D56Lbmf+c9sESZab5MNSGs7YaAAsAAKACgCm5ef5ntXXRVM7nLy22ooTXLjOwvy6sXqpprpnHBqHpN+qvGG5KtuG06Ka4mJ5dnk3CVX1UMY75UzzTO3ygz5dUTGH+twcX9UljaqapmJw79jl/Lr/GJQ0K/pTL26aqZ38GVzGvHZpkp5MMxrx2aZIt06MiAC2sAAAAAAAAAAAAAAAAAAAAAAAAAAAAAAAAAAAAAAAAAAAAAAAAAAAAAAAAAAAAAAAAAAAAAAAAAAAAAAAAAAAAAAAAAAAAB/9k=;clipPath=inset(7.03% 10.55% 20.7% 10.94%);opacity=20;" vertex="1" parent="_XqpVjVCsElwEC0yUfst-10">
          <mxGeometry x="10" y="11.660000000000025" width="148.49" height="136.68408826309766" as="geometry" />
        </mxCell>
        <mxCell id="_XqpVjVCsElwEC0yUfst-8" value="" style="shape=image;verticalLabelPosition=bottom;labelBackgroundColor=default;verticalAlign=top;aspect=fixed;imageAspect=0;image=data:image/jpeg,/9j/4AAQSkZJRgABAgAAAQABAAD//gARTGF2YzU4LjEzNC4xMDAA/9sAQwAIMjI7MjtERERERERRS1FUVFRRUVFRVFRUWlpaampqWlpaVFRaWmRkampzdnNtbWptdnZ9fX2Wlo+Pr6+119f//8QAewAAAQUBAQEAAAAAAAAAAAAAAAcCAwEGBQQIAQACAwEBAAAAAAAAAAAAAAAAAwIBBAUGEAEAAgADBQYFBQEBAAAAAAAAAQIRBAPBMVEhEkIUgnGhMnKRYUFDsRNSItGBMxEBAQEBAQEBAQAAAAAAAAAAAAERAjEScSH/wAARCAEAAQADASIAAhEAAxEA/9oADAMBAAIRAxEAPwD5/AAAAAAAAAAAAAAAAAAAAAAAAAAAAAAAAAAAAAAAAAAAAAAAAAAAKJldKmp1dUY4YffzJ2V7Jdvw7Qi1XddL+M/Of9P7rpfxn5y2hwZ2K7rpfxn5yruul/GfnLcmIrYfuulwn5yvuulw9Z/1t1IHMT3XS4es/wCq7rpcPWW1MSZ2L7rpcPWR3XS4estooLYvuulwn5yruulw9ZbRS0WL7rpcPWTe66XD1ltDAtje66XD1k3u2lw9Z/1szVhje7aXD1k3u2lw9ZbNGs1ju7aXD1kd20uHrLYGrNY3u2lw9ZV3bS4estaaohlO7aXD1kzu+nw9Za8wFMl3fT4esmd30+HrLXmLUxXd9Ph6ywGtSKWiI4FsJHmffHw7ZBsYkAKaQWHI9vw7SPFiyP5PDtBVK+eFqYgo5RbTDDDlA1Sjgok1SwoIwe80zEbwkkROHOrXzMjWrKxjvKC0yjEaVGmdDFHKByA1IYGcKWoIo1HGhBCSHNe+Ph2yV8kOa98fDtlZsYcAKaQWLI9vw7SOljyP5PDtBVLCcpYYgpYQaYaYeaimaFhFBSjjFLeK1umCeTFtSzU354RxdrDCGG12OYwP7ODg2pMcyl2nCMXNnnDPrdjNaepNZ+hRiP25SUHStjHk6UcPqO+YkRtRBqlqWmhNPMUQAFLRMNONWijJBmvfHw7ZLCR7Ne+Ph2yDIw4ADSCx5H8nh2kcLHkfyeHaCqWNYWGEKWai1QGrCBigApA1mdbU6KtKTzXrjhwKaY61P7zj9oSTq0xwi0S7FK4ViHMtpRZz3fkeydzH3t5u/qcq4QwUxeN0yhDXBvOMO/o2/t5uNqxPSdo76+cujHJpaDVmtblqUEYMUYciRJPMUpJAKCNYBIc174+HbJXCRZr3x8O2VpRiAAGgFkyP5PDtI2WPI/k8O1aFLKFLWxBQCDQoAIpmmnmIlmsved8NKT3VmcJgitfLeVn+seTxf23p6T1Ur5Q8M1w7VvT/ABzHqIz+paccMHqjc5NurHfj6H48lGMvrcz9COcQ4VrYy0Oj7odGOF0VJGejanKiFazQYYoBEpZqwkgaiSoklGkjzXvj4dslcJHmvfHw7ZWkxAASPBY8j+Tw7SOFiyP5PDtWiWQKBjOcoAtIBSkVrMONQUgZbUjGMXv1LdOH2Zq144slbOY6eX5Uw+stRLk6UcnotGLC77IXllr3wdG1ZxZq1eZkLrixvKToRvljMCm6c1j+sTzbY5XTQmLRnsSzFKRNQqSI1FJFmHLKCJIjTUaSPNe+Ph2yVwkea98fDtlJJiAAkeCxZH8nh2kdLFke34dqy6WIAGsgBgU0LORkMzGvN5mtZwrHqWmWCdXTjfevzeCdfSjtw+awinhZZ1dPXtFMLfFjh/rrxlqxOOMyQytprMTG+H1BS0XrFuLBXS5e+MHhmHoc21orhMy5zouZeMIJveJicSpYxbh+ry9GK1ka6pxdelo/cibTFcI+buauljOFY58SazS0ThO9045lhf8Aqid0wmfM0xg7FNW1J5Ty4NTE+gkbn0vF64w9xYRmhQQOUFBBalKMKBJM174+HbJWCTZn3x8O2VrYkAJHgsOR7fh2keLBke34dqyb4WEGrNYFmhS2lksxfo054zyh88FOzlsbVjhH6kvJa0YU7OnpzqWiILOamuWtNYniUzS0p0vvjE/q2HLDDhyc6tseqODmV15HseGYx/VFW2OMcOaCJ3srU9GGD1Q4V9SunGMz/wA+7BVzf9pxjlhyhKQvSo032n6s9XC17Tweml+qmPm51J6az9TFuR+zW9pJhq06LTBb68q48SSa/u/40xhsTZe/TbD7T+pZHzXufQtLdVYnjDY5r2ozzESgoBJJGatSRQJRmffHw7ZKqSnM++Ph2ytTFABI4FgyPb8O0j5YMj2/DtSJvhXlqUe560a3OvborNuEKaIQnMWx1LfTl8mReuXnZ296KVm8xEb5fUenSNKsVj/suboaEaVY/lMc5erUthDm2ulI8M2wvhxc6P8A0meNSbamrh5of39yWJaVuv3n6YOJNsOqWIpr74lua9N45SrDdIbacZlsdLR6o6pcjW0+ifN7v38KxEfZpZP1t5thyhFM8oJT1yd12LxLSwYuLqU6qzxgUnqjGGkZ/D/SClby1saTHCWJ1qdE+abL36b4cW9zKWYGhFjONOUYtCaejCaiU5n3x8O2SpkrzPvj4dsrUxgASMBXsl2/DtJCV3Jdvw7Uib4V4GqaHPWTLN35RXjzkolp6YmeD5t1LzqWm0ltcc9ZgJbX1HS/VSJ+hPNa+9x41OmpP73m0ufI6Nv8eCZxMUG9zVupTUtTc5Sgt3L6k33uIAAApYU2GhbC2HEqZEtOMbFLprRaMJ5Sz1slZzMzuhg2p198MoaTS9aduusS7BFdHUmk4faS0qZFhSgSHnSIzDjCV5n3x5bZKoSvM++PLbK1saAAmCuZLt+HaSMreS7fh2pwm+FcUo1oc1m8xOGlb5Pnt9B68dWnb5vncit8WpGpBqdGMb4Q5xX9HS6K9U75jl9CRJ4TumhQKNAAWFgBQAAC2u0Y3y8mpHTbHi6+hHKXv1a418jS2Am2LyqBRiy56UzakSQwtmjGGnVRbRGqMCCwFLRUSnM++PLbJVSVZn3x5bZWqMaAA0grOS7fh2kmKxku34dqcJvhWVKNanMNnm+fNbSnTt9PtL6ERqao+ca6V77qz5lD08t087c/oUZGli7THzxeMLWj6y+hnzxecbT5yuk8uYFqc91QAAoKWAAFLCyn6UYUj5uu8mn7Kva0spPr6U13c4ZotqCdOtt8F40EhrWbTEQXKsdMRHBwaxp0xw3w6cXrO6RhTrHuZF6zOGPN0lYjpyNZiJCiV5n3x5bZKgS7Me+PLbIMjHgBTWCrZPt+HaSkq2T7fh2pwm+FWUoNbmBS1LORKSmJpOHq26aWn6PnwtmZ/wDP/sETZKbyYakNZ2w0ABYAAUAFAFNy8/1nzF6WmeTmZbfYoDXLjOw/7dsXqrW9Zxwad6jfqrxhui2/DfidFbxMT07vs3CVX1UMY79qZ6pnf9oM/btExh+rcHF/VJY21bTMTh67nL/bv/zEoaFf0pl9Otqzz4MrmPfHltkp5MMx748tskW6dGRABbWAAAAAAAAAAAAAAAAAAAAAAAAAAAAAAAAAAAAAAAAAAAAAAAAAAAAAAAAAAAAAAAAAAAAAAAAAAAAAAAAAAAAAAAAAAAAA/9k=;clipPath=inset(7.42% 10.16% 20.7% 11.72%);opacity=10;" vertex="1" parent="_XqpVjVCsElwEC0yUfst-10">
          <mxGeometry x="20" width="147.3" height="135.52" as="geometry" />
        </mxCell>
        <mxCell id="_XqpVjVCsElwEC0yUfst-15" value="" style="group;movable=0;resizable=0;rotatable=0;deletable=0;editable=0;connectable=0;" vertex="1" connectable="0" parent="1">
          <mxGeometry x="300" y="520" width="120" height="40.5" as="geometry" />
        </mxCell>
        <mxCell id="_XqpVjVCsElwEC0yUfst-4" value="" style="endArrow=classic;html=1;rounded=1;fontColor=none;noLabel=1;fillColor=#f8cecc;strokeColor=#b85450;strokeWidth=1.5;" edge="1" parent="_XqpVjVCsElwEC0yUfst-15">
          <mxGeometry width="50" height="50" relative="1" as="geometry">
            <mxPoint x="14" y="40.5" as="sourcePoint" />
            <mxPoint x="104" y="40.5" as="targetPoint" />
          </mxGeometry>
        </mxCell>
        <mxCell id="_XqpVjVCsElwEC0yUfst-5" value="Pose Estimation + Graph Reduction" style="text;html=1;strokeColor=none;fillColor=none;align=center;verticalAlign=middle;whiteSpace=wrap;rounded=0;fontFamily=Times New Roman;" vertex="1" parent="_XqpVjVCsElwEC0yUfst-15">
          <mxGeometry width="120" height="30" as="geometry" />
        </mxCell>
        <mxCell id="_XqpVjVCsElwEC0yUfst-18" value="" style="rounded=1;whiteSpace=wrap;html=1;fontFamily=Times New Roman;fontColor=none;strokeColor=#990000;strokeWidth=1.5;movable=1;resizable=1;rotatable=1;deletable=1;editable=1;connectable=1;" vertex="1" parent="1">
          <mxGeometry x="801" y="416.34000000000003" width="740" height="285.77" as="geometry" />
        </mxCell>
        <mxCell id="_XqpVjVCsElwEC0yUfst-19" value="SLGTformer" style="text;html=1;strokeColor=none;fillColor=none;align=center;verticalAlign=middle;whiteSpace=wrap;rounded=0;fontFamily=Times New Roman;movable=1;resizable=1;rotatable=1;deletable=1;editable=1;connectable=1;" vertex="1" parent="1">
          <mxGeometry x="798" y="424.34" width="120" height="30" as="geometry" />
        </mxCell>
        <mxCell id="_XqpVjVCsElwEC0yUfst-20" value="" style="group;movable=1;resizable=1;rotatable=1;deletable=1;editable=1;connectable=1;" vertex="1" connectable="0" parent="1">
          <mxGeometry x="670" y="529" width="120" height="31.5" as="geometry" />
        </mxCell>
        <mxCell id="_XqpVjVCsElwEC0yUfst-16" value="" style="endArrow=classic;html=1;rounded=1;fontColor=none;noLabel=1;fillColor=#f8cecc;strokeColor=#b85450;strokeWidth=1.5;" edge="1" parent="_XqpVjVCsElwEC0yUfst-20">
          <mxGeometry width="50" height="50" relative="1" as="geometry">
            <mxPoint x="15" y="31.5" as="sourcePoint" />
            <mxPoint x="105" y="31.5" as="targetPoint" />
          </mxGeometry>
        </mxCell>
        <mxCell id="_XqpVjVCsElwEC0yUfst-17" value="Data Augmentation" style="text;html=1;strokeColor=none;fillColor=none;align=center;verticalAlign=middle;whiteSpace=wrap;rounded=0;fontFamily=Times New Roman;" vertex="1" parent="_XqpVjVCsElwEC0yUfst-20">
          <mxGeometry width="120" height="30" as="geometry" />
        </mxCell>
        <mxCell id="_XqpVjVCsElwEC0yUfst-46" value="" style="rounded=1;whiteSpace=wrap;html=1;strokeColor=#990000;strokeWidth=1.5;fontFamily=Times New Roman;fontColor=none;rotation=0;dashed=1;glass=0;sketch=0;" vertex="1" parent="1">
          <mxGeometry x="915" y="460" width="590" height="200" as="geometry" />
        </mxCell>
        <mxCell id="_XqpVjVCsElwEC0yUfst-49" value="" style="endArrow=none;html=1;rounded=0;strokeColor=#990000;strokeWidth=1.5;fontFamily=Times New Roman;fontColor=none;entryX=1;entryY=0.5;entryDx=0;entryDy=0;startArrow=none;exitX=0;exitY=0.5;exitDx=0;exitDy=0;" edge="1" parent="1" source="_XqpVjVCsElwEC0yUfst-18" target="_XqpVjVCsElwEC0yUfst-18">
          <mxGeometry width="50" height="50" relative="1" as="geometry">
            <mxPoint x="800" y="560" as="sourcePoint" />
            <mxPoint x="1450" y="560" as="targetPoint" />
          </mxGeometry>
        </mxCell>
        <mxCell id="_XqpVjVCsElwEC0yUfst-57" value="" style="edgeStyle=orthogonalEdgeStyle;rounded=0;orthogonalLoop=1;jettySize=auto;html=1;strokeColor=#990000;strokeWidth=1.5;fontFamily=Times New Roman;fontColor=none;endArrow=none;endFill=0;" edge="1" parent="1">
          <mxGeometry relative="1" as="geometry">
            <mxPoint x="950" y="560" as="sourcePoint" />
            <mxPoint x="950" y="560" as="targetPoint" />
            <Array as="points">
              <mxPoint x="950" y="560" />
              <mxPoint x="950" y="560" />
            </Array>
          </mxGeometry>
        </mxCell>
        <mxCell id="_XqpVjVCsElwEC0yUfst-47" value="N ×" style="text;html=1;strokeColor=none;fillColor=none;align=center;verticalAlign=middle;whiteSpace=wrap;rounded=0;dashed=1;strokeWidth=1.5;fontFamily=Times New Roman;fontColor=none;" vertex="1" parent="1">
          <mxGeometry x="911" y="462" width="60" height="30" as="geometry" />
        </mxCell>
        <mxCell id="_XqpVjVCsElwEC0yUfst-61" value="" style="endArrow=none;html=1;rounded=1;strokeColor=#990000;strokeWidth=1.5;fontFamily=Times New Roman;fontColor=none;edgeStyle=orthogonalEdgeStyle;exitX=0.5;exitY=1;exitDx=0;exitDy=0;" edge="1" parent="1">
          <mxGeometry width="50" height="50" relative="1" as="geometry">
            <mxPoint x="1364.995" y="570.0100000000002" as="sourcePoint" />
            <mxPoint x="945" y="560" as="targetPoint" />
            <Array as="points">
              <mxPoint x="1365" y="647" />
              <mxPoint x="945" y="647" />
            </Array>
          </mxGeometry>
        </mxCell>
        <mxCell id="_XqpVjVCsElwEC0yUfst-62" value="Drop &lt;br&gt;Graph" style="rounded=1;whiteSpace=wrap;html=1;strokeColor=#9673a6;strokeWidth=1.5;fontFamily=Times New Roman;fillColor=#e1d5e7;" vertex="1" parent="1">
          <mxGeometry x="1330" y="598.45" width="70" height="40" as="geometry" />
        </mxCell>
        <mxCell id="_XqpVjVCsElwEC0yUfst-70" value="Drop Graph" style="rounded=1;whiteSpace=wrap;html=1;strokeColor=#9673a6;strokeWidth=1.5;fontFamily=Times New Roman;rotation=90;fillColor=#e1d5e7;" vertex="1" parent="1">
          <mxGeometry x="1220" y="540.57" width="160" height="35.75" as="geometry" />
        </mxCell>
        <mxCell id="_XqpVjVCsElwEC0yUfst-74" value="&lt;font style=&quot;font-size: 14px;&quot;&gt;+&lt;/font&gt;" style="ellipse;whiteSpace=wrap;html=1;aspect=fixed;strokeColor=#990000;strokeWidth=1.5;fontFamily=Times New Roman;fontColor=none;align=center;" vertex="1" parent="1">
          <mxGeometry x="1354.99" y="550" width="20.01" height="20.01" as="geometry" />
        </mxCell>
        <mxCell id="_XqpVjVCsElwEC0yUfst-77" value="" style="group" vertex="1" connectable="0" parent="1">
          <mxGeometry x="1170" y="478.45000000000005" width="113" height="165.54999999999995" as="geometry" />
        </mxCell>
        <mxCell id="_XqpVjVCsElwEC0yUfst-56" value="Temporal&lt;br&gt;Twin Attention&lt;br&gt;Transformer" style="rounded=1;whiteSpace=wrap;html=1;strokeColor=#b85450;strokeWidth=1.5;fontFamily=Times New Roman;fillColor=#f8cecc;" vertex="1" parent="_XqpVjVCsElwEC0yUfst-77">
          <mxGeometry x="4.559999999999945" width="100" height="160" as="geometry" />
        </mxCell>
        <mxCell id="_XqpVjVCsElwEC0yUfst-58" value="T&lt;sub&gt;n&lt;/sub&gt;× (V × C&lt;sub&gt;n&lt;/sub&gt;)" style="text;html=1;strokeColor=none;fillColor=none;align=center;verticalAlign=middle;whiteSpace=wrap;rounded=0;dashed=1;strokeWidth=1.5;fontFamily=Times New Roman;fontColor=none;" vertex="1" parent="_XqpVjVCsElwEC0yUfst-77">
          <mxGeometry y="135.54999999999995" width="113" height="30" as="geometry" />
        </mxCell>
        <mxCell id="_XqpVjVCsElwEC0yUfst-54" value="ReLU" style="rounded=1;whiteSpace=wrap;html=1;strokeColor=#82b366;strokeWidth=1.5;fontFamily=Times New Roman;rotation=90;fillColor=#d5e8d4;" vertex="1" parent="1">
          <mxGeometry x="1055" y="542.13" width="160" height="35.75" as="geometry" />
        </mxCell>
        <mxCell id="_XqpVjVCsElwEC0yUfst-53" value="BatchNorm 1D" style="rounded=1;whiteSpace=wrap;html=1;strokeColor=#6c8ebf;strokeWidth=1.5;fontFamily=Times New Roman;rotation=90;fillColor=#dae8fc;" vertex="1" parent="1">
          <mxGeometry x="1010.56" y="541.06" width="160" height="35.75" as="geometry" />
        </mxCell>
        <mxCell id="_XqpVjVCsElwEC0yUfst-78" value="" style="group" vertex="1" connectable="0" parent="1">
          <mxGeometry x="960" y="479.22" width="100" height="164.77999999999997" as="geometry" />
        </mxCell>
        <mxCell id="_XqpVjVCsElwEC0yUfst-48" value="Spatial&lt;br&gt;Self-Attention &lt;br&gt;Transformer" style="rounded=1;whiteSpace=wrap;html=1;strokeColor=#b85450;strokeWidth=1.5;fontFamily=Times New Roman;fillColor=#f8cecc;" vertex="1" parent="_XqpVjVCsElwEC0yUfst-78">
          <mxGeometry width="100" height="160" as="geometry" />
        </mxCell>
        <mxCell id="_XqpVjVCsElwEC0yUfst-55" value="V × (T&lt;sub&gt;n&lt;/sub&gt; × C&lt;sub&gt;n&lt;/sub&gt;)" style="text;html=1;strokeColor=none;fillColor=none;align=center;verticalAlign=middle;whiteSpace=wrap;rounded=0;dashed=1;strokeWidth=1.5;fontFamily=Times New Roman;fontColor=none;" vertex="1" parent="_XqpVjVCsElwEC0yUfst-78">
          <mxGeometry x="5" y="134.77999999999997" width="90" height="30" as="geometry" />
        </mxCell>
        <mxCell id="_XqpVjVCsElwEC0yUfst-79" value="ReLU" style="rounded=1;whiteSpace=wrap;html=1;strokeColor=#82b366;strokeWidth=1.5;fontFamily=Times New Roman;rotation=90;fillColor=#d5e8d4;" vertex="1" parent="1">
          <mxGeometry x="1348" y="542.13" width="160" height="35.75" as="geometry" />
        </mxCell>
        <mxCell id="_XqpVjVCsElwEC0yUfst-42" value="BatchNorm 1D" style="rounded=1;whiteSpace=wrap;html=1;strokeColor=#6c8ebf;strokeWidth=1.5;fontFamily=Times New Roman;rotation=90;fillColor=#dae8fc;" vertex="1" parent="1">
          <mxGeometry x="786" y="542.13" width="201.12" height="35.75" as="geometry" />
        </mxCell>
        <mxCell id="_XqpVjVCsElwEC0yUfst-21" value="Dimension Permute" style="rounded=1;whiteSpace=wrap;html=1;strokeColor=#666666;strokeWidth=1.5;fontFamily=Times New Roman;rotation=90;fillColor=#f5f5f5;fontColor=#333333;" vertex="1" parent="1">
          <mxGeometry x="740" y="542.13" width="201.12" height="35.75" as="geometry" />
        </mxCell>
        <mxCell id="_XqpVjVCsElwEC0yUfst-82" value="Strided Depth-Wise Convolution" style="rounded=1;whiteSpace=wrap;html=1;strokeColor=#d6b656;strokeWidth=1.5;fontFamily=Times New Roman;rotation=90;fillColor=#fff2cc;" vertex="1" parent="1">
          <mxGeometry x="1390" y="543.35" width="160" height="35.75" as="geometry" />
        </mxCell>
      </root>
    </mxGraphModel>
  </diagram>
</mxfile>
